<svg width="1409" height="457" viewBox="0 0 1409 457" fill="none" xmlns="http://www.w3.org/2000/svg">
<path d="M1234 147L1242.66 132H1225.34L1234 147ZM1234 117H1232.5V133.5H1234H1235.5V117H1234Z" fill="#FF0000"/>
<path d="M956 316L947.34 331H964.66L956 316ZM956 346H957.5V329.5H956H954.5V346H956Z" fill="#FF0000"/>
<rect x="32.5" y="147.5" width="166" height="71" rx="19.5" fill="#76D1FE" stroke="#897F7F"/>
<path d="M61.5341 190V179.091H63.2102V183.835H64.3182L68.2386 179.091H70.3977L65.9943 184.347L70.4545 190H68.2955L64.7159 185.398H63.2102V190H61.5341ZM76.2589 190.227C75.274 190.227 74.4099 189.993 73.6665 189.524C72.9279 189.055 72.3503 188.4 71.9336 187.557C71.5217 186.714 71.3157 185.729 71.3157 184.602C71.3157 183.466 71.5217 182.474 71.9336 181.626C72.3503 180.779 72.9279 180.121 73.6665 179.652C74.4099 179.183 75.274 178.949 76.2589 178.949C77.2437 178.949 78.1055 179.183 78.8441 179.652C79.5875 180.121 80.1651 180.779 80.5771 181.626C80.9937 182.474 81.2021 183.466 81.2021 184.602C81.2021 185.729 80.9937 186.714 80.5771 187.557C80.1651 188.4 79.5875 189.055 78.8441 189.524C78.1055 189.993 77.2437 190.227 76.2589 190.227ZM76.2589 188.722C77.007 188.722 77.6225 188.53 78.1055 188.146C78.5884 187.763 78.9459 187.259 79.1779 186.634C79.4099 186.009 79.5259 185.331 79.5259 184.602C79.5259 183.873 79.4099 183.194 79.1779 182.564C78.9459 181.934 78.5884 181.425 78.1055 181.037C77.6225 180.649 77.007 180.455 76.2589 180.455C75.5108 180.455 74.8952 180.649 74.4123 181.037C73.9293 181.425 73.5719 181.934 73.3398 182.564C73.1078 183.194 72.9918 183.873 72.9918 184.602C72.9918 185.331 73.1078 186.009 73.3398 186.634C73.5719 187.259 73.9293 187.763 74.4123 188.146C74.8952 188.53 75.5108 188.722 76.2589 188.722ZM89.7266 187.727L93.5334 179.091H95.1243L90.4084 190H89.0447L84.4141 179.091H85.9766L89.7266 187.727ZM85.4368 179.091V190H83.7607V179.091H85.4368ZM94.0163 190V179.091H95.6925V190H94.0163ZM104.727 187.727L108.533 179.091H110.124L105.408 190H104.045L99.4141 179.091H100.977L104.727 187.727ZM100.437 179.091V190H98.7607V179.091H100.437ZM109.016 190V179.091H110.692V190H109.016ZM115.437 187.528L120.692 179.091H122.624V190H120.948V181.562L115.721 190H113.761V179.091H115.437V187.528ZM124.21 180.653V179.091H133.074V180.653H129.494V190H127.818V180.653H124.21ZM141.967 190H140.121L145.462 175.455H147.28L152.621 190H150.774L146.428 177.756H146.314L141.967 190ZM142.649 184.318H150.092V185.881H142.649V184.318ZM160.909 181.946V183.509H154.545V181.946H160.909ZM168.944 175.455V190H167.182V177.301H167.097L163.546 179.659V177.869L167.182 175.455H168.944Z" fill="black"/>
<rect x="242.5" y="147.5" width="166" height="71" rx="19.5" fill="#76D1FE" stroke="#897F7F"/>
<path d="M271.534 190V179.091H273.21V183.835H274.318L278.239 179.091H280.398L275.994 184.347L280.455 190H278.295L274.716 185.398H273.21V190H271.534ZM286.259 190.227C285.274 190.227 284.41 189.993 283.667 189.524C282.928 189.055 282.35 188.4 281.934 187.557C281.522 186.714 281.316 185.729 281.316 184.602C281.316 183.466 281.522 182.474 281.934 181.626C282.35 180.779 282.928 180.121 283.667 179.652C284.41 179.183 285.274 178.949 286.259 178.949C287.244 178.949 288.105 179.183 288.844 179.652C289.587 180.121 290.165 180.779 290.577 181.626C290.994 182.474 291.202 183.466 291.202 184.602C291.202 185.729 290.994 186.714 290.577 187.557C290.165 188.4 289.587 189.055 288.844 189.524C288.105 189.993 287.244 190.227 286.259 190.227ZM286.259 188.722C287.007 188.722 287.623 188.53 288.105 188.146C288.588 187.763 288.946 187.259 289.178 186.634C289.41 186.009 289.526 185.331 289.526 184.602C289.526 183.873 289.41 183.194 289.178 182.564C288.946 181.934 288.588 181.425 288.105 181.037C287.623 180.649 287.007 180.455 286.259 180.455C285.511 180.455 284.895 180.649 284.412 181.037C283.929 181.425 283.572 181.934 283.34 182.564C283.108 183.194 282.992 183.873 282.992 184.602C282.992 185.331 283.108 186.009 283.34 186.634C283.572 187.259 283.929 187.763 284.412 188.146C284.895 188.53 285.511 188.722 286.259 188.722ZM299.727 187.727L303.533 179.091H305.124L300.408 190H299.045L294.414 179.091H295.977L299.727 187.727ZM295.437 179.091V190H293.761V179.091H295.437ZM304.016 190V179.091H305.692V190H304.016ZM314.727 187.727L318.533 179.091H320.124L315.408 190H314.045L309.414 179.091H310.977L314.727 187.727ZM310.437 179.091V190H308.761V179.091H310.437ZM319.016 190V179.091H320.692V190H319.016ZM325.437 187.528L330.692 179.091H332.624V190H330.948V181.562L325.721 190H323.761V179.091H325.437V187.528ZM334.21 180.653V179.091H343.074V180.653H339.494V190H337.818V180.653H334.21ZM351.967 190H350.121L355.462 175.455H357.28L362.621 190H360.774L356.428 177.756H356.314L351.967 190ZM352.649 184.318H360.092V185.881H352.649V184.318ZM370.909 181.946V183.509H364.545V181.946H370.909ZM373.146 190V188.722L377.947 183.466C378.511 182.85 378.975 182.315 379.339 181.861C379.704 181.402 379.974 180.971 380.149 180.568C380.329 180.161 380.419 179.735 380.419 179.29C380.419 178.778 380.296 178.336 380.05 177.962C379.808 177.588 379.477 177.299 379.055 177.095C378.634 176.892 378.161 176.79 377.635 176.79C377.076 176.79 376.589 176.906 376.172 177.138C375.76 177.365 375.44 177.685 375.213 178.097C374.991 178.509 374.879 178.991 374.879 179.545H373.203C373.203 178.693 373.4 177.945 373.793 177.301C374.186 176.657 374.721 176.155 375.398 175.795C376.08 175.436 376.844 175.256 377.692 175.256C378.544 175.256 379.299 175.436 379.957 175.795C380.616 176.155 381.132 176.641 381.506 177.251C381.88 177.862 382.067 178.542 382.067 179.29C382.067 179.825 381.97 180.348 381.776 180.859C381.586 181.366 381.255 181.932 380.781 182.557C380.312 183.177 379.661 183.935 378.828 184.83L375.561 188.324V188.438H382.322V190H373.146Z" fill="black"/>
<rect x="452.5" y="147.5" width="166" height="71" rx="19.5" fill="#76D1FE" stroke="#897F7F"/>
<path d="M481.534 190V179.091H483.21V183.835H484.318L488.239 179.091H490.398L485.994 184.347L490.455 190H488.295L484.716 185.398H483.21V190H481.534ZM496.259 190.227C495.274 190.227 494.41 189.993 493.667 189.524C492.928 189.055 492.35 188.4 491.934 187.557C491.522 186.714 491.316 185.729 491.316 184.602C491.316 183.466 491.522 182.474 491.934 181.626C492.35 180.779 492.928 180.121 493.667 179.652C494.41 179.183 495.274 178.949 496.259 178.949C497.244 178.949 498.105 179.183 498.844 179.652C499.587 180.121 500.165 180.779 500.577 181.626C500.994 182.474 501.202 183.466 501.202 184.602C501.202 185.729 500.994 186.714 500.577 187.557C500.165 188.4 499.587 189.055 498.844 189.524C498.105 189.993 497.244 190.227 496.259 190.227ZM496.259 188.722C497.007 188.722 497.623 188.53 498.105 188.146C498.588 187.763 498.946 187.259 499.178 186.634C499.41 186.009 499.526 185.331 499.526 184.602C499.526 183.873 499.41 183.194 499.178 182.564C498.946 181.934 498.588 181.425 498.105 181.037C497.623 180.649 497.007 180.455 496.259 180.455C495.511 180.455 494.895 180.649 494.412 181.037C493.929 181.425 493.572 181.934 493.34 182.564C493.108 183.194 492.992 183.873 492.992 184.602C492.992 185.331 493.108 186.009 493.34 186.634C493.572 187.259 493.929 187.763 494.412 188.146C494.895 188.53 495.511 188.722 496.259 188.722ZM509.727 187.727L513.533 179.091H515.124L510.408 190H509.045L504.414 179.091H505.977L509.727 187.727ZM505.437 179.091V190H503.761V179.091H505.437ZM514.016 190V179.091H515.692V190H514.016ZM524.727 187.727L528.533 179.091H530.124L525.408 190H524.045L519.414 179.091H520.977L524.727 187.727ZM520.437 179.091V190H518.761V179.091H520.437ZM529.016 190V179.091H530.692V190H529.016ZM535.437 187.528L540.692 179.091H542.624V190H540.948V181.562L535.721 190H533.761V179.091H535.437V187.528ZM544.21 180.653V179.091H553.074V180.653H549.494V190H547.818V180.653H544.21ZM561.967 190H560.121L565.462 175.455H567.28L572.621 190H570.774L566.428 177.756H566.314L561.967 190ZM562.649 184.318H570.092V185.881H562.649V184.318ZM580.909 181.946V183.509H574.545V181.946H580.909ZM588.51 190.199C587.573 190.199 586.737 190.038 586.003 189.716C585.274 189.394 584.694 188.946 584.263 188.374C583.837 187.796 583.605 187.126 583.567 186.364H585.357C585.395 186.832 585.556 187.237 585.84 187.578C586.124 187.914 586.496 188.175 586.955 188.359C587.414 188.544 587.923 188.636 588.482 188.636C589.107 188.636 589.661 188.527 590.144 188.31C590.627 188.092 591.006 187.789 591.28 187.401C591.555 187.012 591.692 186.562 591.692 186.051C591.692 185.516 591.56 185.045 591.294 184.638C591.029 184.226 590.641 183.904 590.13 183.672C589.618 183.44 588.993 183.324 588.255 183.324H587.09V181.761H588.255C588.832 181.761 589.339 181.657 589.775 181.449C590.215 181.241 590.558 180.947 590.804 180.568C591.055 180.189 591.181 179.744 591.181 179.233C591.181 178.741 591.072 178.312 590.854 177.947C590.636 177.583 590.328 177.299 589.931 177.095C589.538 176.892 589.074 176.79 588.539 176.79C588.037 176.79 587.563 176.882 587.118 177.067C586.678 177.247 586.318 177.509 586.039 177.855C585.759 178.196 585.608 178.608 585.584 179.091H583.88C583.908 178.329 584.138 177.661 584.569 177.088C584.999 176.51 585.563 176.061 586.259 175.739C586.96 175.417 587.729 175.256 588.567 175.256C589.467 175.256 590.239 175.438 590.882 175.803C591.526 176.162 592.021 176.638 592.367 177.23C592.712 177.822 592.885 178.461 592.885 179.148C592.885 179.967 592.67 180.665 592.239 181.243C591.813 181.821 591.233 182.221 590.499 182.443V182.557C591.417 182.708 592.135 183.099 592.651 183.729C593.167 184.354 593.425 185.128 593.425 186.051C593.425 186.842 593.21 187.552 592.779 188.182C592.353 188.807 591.77 189.299 591.032 189.659C590.293 190.019 589.453 190.199 588.51 190.199Z" fill="black"/>
<rect x="452.5" y="244.5" width="166" height="71" rx="19.5" fill="#FEFE76" stroke="#897F7F"/>
<path d="M481.534 287V276.091H483.21V280.835H484.318L488.239 276.091H490.398L485.994 281.347L490.455 287H488.295L484.716 282.398H483.21V287H481.534ZM496.259 287.227C495.274 287.227 494.41 286.993 493.667 286.524C492.928 286.055 492.35 285.4 491.934 284.557C491.522 283.714 491.316 282.729 491.316 281.602C491.316 280.466 491.522 279.474 491.934 278.626C492.35 277.779 492.928 277.121 493.667 276.652C494.41 276.183 495.274 275.949 496.259 275.949C497.244 275.949 498.105 276.183 498.844 276.652C499.587 277.121 500.165 277.779 500.577 278.626C500.994 279.474 501.202 280.466 501.202 281.602C501.202 282.729 500.994 283.714 500.577 284.557C500.165 285.4 499.587 286.055 498.844 286.524C498.105 286.993 497.244 287.227 496.259 287.227ZM496.259 285.722C497.007 285.722 497.623 285.53 498.105 285.146C498.588 284.763 498.946 284.259 499.178 283.634C499.41 283.009 499.526 282.331 499.526 281.602C499.526 280.873 499.41 280.194 499.178 279.564C498.946 278.934 498.588 278.425 498.105 278.037C497.623 277.649 497.007 277.455 496.259 277.455C495.511 277.455 494.895 277.649 494.412 278.037C493.929 278.425 493.572 278.934 493.34 279.564C493.108 280.194 492.992 280.873 492.992 281.602C492.992 282.331 493.108 283.009 493.34 283.634C493.572 284.259 493.929 284.763 494.412 285.146C494.895 285.53 495.511 285.722 496.259 285.722ZM509.727 284.727L513.533 276.091H515.124L510.408 287H509.045L504.414 276.091H505.977L509.727 284.727ZM505.437 276.091V287H503.761V276.091H505.437ZM514.016 287V276.091H515.692V287H514.016ZM524.727 284.727L528.533 276.091H530.124L525.408 287H524.045L519.414 276.091H520.977L524.727 284.727ZM520.437 276.091V287H518.761V276.091H520.437ZM529.016 287V276.091H530.692V287H529.016ZM535.437 284.528L540.692 276.091H542.624V287H540.948V278.562L535.721 287H533.761V276.091H535.437V284.528ZM544.21 277.653V276.091H553.074V277.653H549.494V287H547.818V277.653H544.21ZM561.371 287V272.455H570.149V274.017H563.132V278.562H566.825C567.867 278.562 568.745 278.733 569.46 279.074C570.18 279.415 570.724 279.895 571.094 280.516C571.468 281.136 571.655 281.867 571.655 282.71C571.655 283.553 571.468 284.296 571.094 284.94C570.724 285.584 570.18 286.089 569.46 286.453C568.745 286.818 567.867 287 566.825 287H561.371ZM563.132 285.466H566.825C567.488 285.466 568.049 285.333 568.509 285.068C568.973 284.798 569.323 284.453 569.56 284.031C569.801 283.605 569.922 283.155 569.922 282.682C569.922 281.986 569.654 281.387 569.119 280.885C568.584 280.378 567.82 280.125 566.825 280.125H563.132V285.466ZM580.577 278.946V280.509H574.213V278.946H580.577ZM588.612 272.455V287H586.85V274.301H586.765L583.214 276.659V274.869L586.85 272.455H588.612Z" fill="black"/>
<path d="M242.707 183.707C243.098 183.317 243.098 182.683 242.707 182.293L236.343 175.929C235.953 175.538 235.319 175.538 234.929 175.929C234.538 176.319 234.538 176.953 234.929 177.343L240.586 183L234.929 188.657C234.538 189.047 234.538 189.681 234.929 190.071C235.319 190.462 235.953 190.462 236.343 190.071L242.707 183.707ZM199 183V184H201.15V183V182H199V183ZM205.45 183V184H209.75V183V182H205.45V183ZM214.05 183V184H218.35V183V182H214.05V183ZM222.65 183V184H226.95V183V182H222.65V183ZM231.25 183V184H235.55V183V182H231.25V183ZM239.85 183V184H242V183V182H239.85V183ZM242.707 183.707C243.098 183.317 243.098 182.683 242.707 182.293L236.343 175.929C235.953 175.538 235.319 175.538 234.929 175.929C234.538 176.319 234.538 176.953 234.929 177.343L240.586 183L234.929 188.657C234.538 189.047 234.538 189.681 234.929 190.071C235.319 190.462 235.953 190.462 236.343 190.071L242.707 183.707ZM199 183V184H201.15V183V182H199V183ZM205.45 183V184H209.75V183V182H205.45V183ZM214.05 183V184H218.35V183V182H214.05V183ZM222.65 183V184H226.95V183V182H222.65V183ZM231.25 183V184H235.55V183V182H231.25V183ZM239.85 183V184H242V183V182H239.85V183Z" fill="black"/>
<path d="M453.707 183.707C454.098 183.317 454.098 182.683 453.707 182.293L447.343 175.929C446.953 175.538 446.319 175.538 445.929 175.929C445.538 176.319 445.538 176.953 445.929 177.343L451.586 183L445.929 188.657C445.538 189.047 445.538 189.681 445.929 190.071C446.319 190.462 446.953 190.462 447.343 190.071L453.707 183.707ZM410 183V184H412.15V183V182H410V183ZM416.45 183V184H420.75V183V182H416.45V183ZM425.05 183V184H429.35V183V182H425.05V183ZM433.65 183V184H437.95V183V182H433.65V183ZM442.25 183V184H446.55V183V182H442.25V183ZM450.85 183V184H453V183V182H450.85V183ZM453.707 183.707C454.098 183.317 454.098 182.683 453.707 182.293L447.343 175.929C446.953 175.538 446.319 175.538 445.929 175.929C445.538 176.319 445.538 176.953 445.929 177.343L451.586 183L445.929 188.657C445.538 189.047 445.538 189.681 445.929 190.071C446.319 190.462 446.953 190.462 447.343 190.071L453.707 183.707ZM410 183V184H412.15V183V182H410V183ZM416.45 183V184H420.75V183V182H416.45V183ZM425.05 183V184H429.35V183V182H425.05V183ZM433.65 183V184H437.95V183V182H433.65V183ZM442.25 183V184H446.55V183V182H442.25V183ZM450.85 183V184H453V183V182H450.85V183Z" fill="black"/>
<rect x="661.5" y="244.5" width="166" height="71" rx="19.5" fill="#FEFE76" stroke="#897F7F"/>
<path d="M690.534 287V276.091H692.21V280.835H693.318L697.239 276.091H699.398L694.994 281.347L699.455 287H697.295L693.716 282.398H692.21V287H690.534ZM705.259 287.227C704.274 287.227 703.41 286.993 702.667 286.524C701.928 286.055 701.35 285.4 700.934 284.557C700.522 283.714 700.316 282.729 700.316 281.602C700.316 280.466 700.522 279.474 700.934 278.626C701.35 277.779 701.928 277.121 702.667 276.652C703.41 276.183 704.274 275.949 705.259 275.949C706.244 275.949 707.105 276.183 707.844 276.652C708.587 277.121 709.165 277.779 709.577 278.626C709.994 279.474 710.202 280.466 710.202 281.602C710.202 282.729 709.994 283.714 709.577 284.557C709.165 285.4 708.587 286.055 707.844 286.524C707.105 286.993 706.244 287.227 705.259 287.227ZM705.259 285.722C706.007 285.722 706.623 285.53 707.105 285.146C707.588 284.763 707.946 284.259 708.178 283.634C708.41 283.009 708.526 282.331 708.526 281.602C708.526 280.873 708.41 280.194 708.178 279.564C707.946 278.934 707.588 278.425 707.105 278.037C706.623 277.649 706.007 277.455 705.259 277.455C704.511 277.455 703.895 277.649 703.412 278.037C702.929 278.425 702.572 278.934 702.34 279.564C702.108 280.194 701.992 280.873 701.992 281.602C701.992 282.331 702.108 283.009 702.34 283.634C702.572 284.259 702.929 284.763 703.412 285.146C703.895 285.53 704.511 285.722 705.259 285.722ZM718.727 284.727L722.533 276.091H724.124L719.408 287H718.045L713.414 276.091H714.977L718.727 284.727ZM714.437 276.091V287H712.761V276.091H714.437ZM723.016 287V276.091H724.692V287H723.016ZM733.727 284.727L737.533 276.091H739.124L734.408 287H733.045L728.414 276.091H729.977L733.727 284.727ZM729.437 276.091V287H727.761V276.091H729.437ZM738.016 287V276.091H739.692V287H738.016ZM744.437 284.528L749.692 276.091H751.624V287H749.948V278.562L744.721 287H742.761V276.091H744.437V284.528ZM753.21 277.653V276.091H762.074V277.653H758.494V287H756.818V277.653H753.21ZM770.371 287V272.455H779.149V274.017H772.132V278.562H775.825C776.867 278.562 777.745 278.733 778.46 279.074C779.18 279.415 779.724 279.895 780.094 280.516C780.468 281.136 780.655 281.867 780.655 282.71C780.655 283.553 780.468 284.296 780.094 284.94C779.724 285.584 779.18 286.089 778.46 286.453C777.745 286.818 776.867 287 775.825 287H770.371ZM772.132 285.466H775.825C776.488 285.466 777.049 285.333 777.509 285.068C777.973 284.798 778.323 284.453 778.56 284.031C778.801 283.605 778.922 283.155 778.922 282.682C778.922 281.986 778.654 281.387 778.119 280.885C777.584 280.378 776.82 280.125 775.825 280.125H772.132V285.466ZM789.577 278.946V280.509H783.213V278.946H789.577ZM791.814 287V285.722L796.615 280.466C797.179 279.85 797.643 279.315 798.007 278.861C798.372 278.402 798.642 277.971 798.817 277.568C798.997 277.161 799.087 276.735 799.087 276.29C799.087 275.778 798.964 275.336 798.718 274.962C798.476 274.588 798.145 274.299 797.723 274.095C797.302 273.892 796.828 273.79 796.303 273.79C795.744 273.79 795.257 273.906 794.84 274.138C794.428 274.365 794.108 274.685 793.881 275.097C793.658 275.509 793.547 275.991 793.547 276.545H791.871C791.871 275.693 792.068 274.945 792.461 274.301C792.854 273.657 793.389 273.155 794.066 272.795C794.748 272.436 795.512 272.256 796.36 272.256C797.212 272.256 797.967 272.436 798.625 272.795C799.283 273.155 799.8 273.641 800.174 274.251C800.548 274.862 800.735 275.542 800.735 276.29C800.735 276.825 800.638 277.348 800.444 277.859C800.254 278.366 799.923 278.932 799.449 279.557C798.98 280.177 798.329 280.935 797.496 281.83L794.229 285.324V285.438H800.99V287H791.814Z" fill="black"/>
<path d="M662.707 280.707C663.098 280.317 663.098 279.683 662.707 279.293L656.343 272.929C655.953 272.538 655.319 272.538 654.929 272.929C654.538 273.319 654.538 273.953 654.929 274.343L660.586 280L654.929 285.657C654.538 286.047 654.538 286.681 654.929 287.071C655.319 287.462 655.953 287.462 656.343 287.071L662.707 280.707ZM619 280V281H621.15V280V279H619V280ZM625.45 280V281H629.75V280V279H625.45V280ZM634.05 280V281H638.35V280V279H634.05V280ZM642.65 280V281H646.95V280V279H642.65V280ZM651.25 280V281H655.55V280V279H651.25V280ZM659.85 280V281H662V280V279H659.85V280ZM662.707 280.707C663.098 280.317 663.098 279.683 662.707 279.293L656.343 272.929C655.953 272.538 655.319 272.538 654.929 272.929C654.538 273.319 654.538 273.953 654.929 274.343L660.586 280L654.929 285.657C654.538 286.047 654.538 286.681 654.929 287.071C655.319 287.462 655.953 287.462 656.343 287.071L662.707 280.707ZM619 280V281H621.15V280V279H619V280ZM625.45 280V281H629.75V280V279H625.45V280ZM634.05 280V281H638.35V280V279H634.05V280ZM642.65 280V281H646.95V280V279H642.65V280ZM651.25 280V281H655.55V280V279H651.25V280ZM659.85 280V281H662V280V279H659.85V280Z" fill="black"/>
<rect x="870.5" y="244.5" width="166" height="71" rx="19.5" fill="#FEFE76" stroke="#897F7F"/>
<path d="M899.534 287V276.091H901.21V280.835H902.318L906.239 276.091H908.398L903.994 281.347L908.455 287H906.295L902.716 282.398H901.21V287H899.534ZM914.259 287.227C913.274 287.227 912.41 286.993 911.667 286.524C910.928 286.055 910.35 285.4 909.934 284.557C909.522 283.714 909.316 282.729 909.316 281.602C909.316 280.466 909.522 279.474 909.934 278.626C910.35 277.779 910.928 277.121 911.667 276.652C912.41 276.183 913.274 275.949 914.259 275.949C915.244 275.949 916.105 276.183 916.844 276.652C917.587 277.121 918.165 277.779 918.577 278.626C918.994 279.474 919.202 280.466 919.202 281.602C919.202 282.729 918.994 283.714 918.577 284.557C918.165 285.4 917.587 286.055 916.844 286.524C916.105 286.993 915.244 287.227 914.259 287.227ZM914.259 285.722C915.007 285.722 915.623 285.53 916.105 285.146C916.588 284.763 916.946 284.259 917.178 283.634C917.41 283.009 917.526 282.331 917.526 281.602C917.526 280.873 917.41 280.194 917.178 279.564C916.946 278.934 916.588 278.425 916.105 278.037C915.623 277.649 915.007 277.455 914.259 277.455C913.511 277.455 912.895 277.649 912.412 278.037C911.929 278.425 911.572 278.934 911.34 279.564C911.108 280.194 910.992 280.873 910.992 281.602C910.992 282.331 911.108 283.009 911.34 283.634C911.572 284.259 911.929 284.763 912.412 285.146C912.895 285.53 913.511 285.722 914.259 285.722ZM927.727 284.727L931.533 276.091H933.124L928.408 287H927.045L922.414 276.091H923.977L927.727 284.727ZM923.437 276.091V287H921.761V276.091H923.437ZM932.016 287V276.091H933.692V287H932.016ZM942.727 284.727L946.533 276.091H948.124L943.408 287H942.045L937.414 276.091H938.977L942.727 284.727ZM938.437 276.091V287H936.761V276.091H938.437ZM947.016 287V276.091H948.692V287H947.016ZM953.437 284.528L958.692 276.091H960.624V287H958.948V278.562L953.721 287H951.761V276.091H953.437V284.528ZM962.21 277.653V276.091H971.074V277.653H967.494V287H965.818V277.653H962.21ZM979.371 287V272.455H988.149V274.017H981.132V278.562H984.825C985.867 278.562 986.745 278.733 987.46 279.074C988.18 279.415 988.724 279.895 989.094 280.516C989.468 281.136 989.655 281.867 989.655 282.71C989.655 283.553 989.468 284.296 989.094 284.94C988.724 285.584 988.18 286.089 987.46 286.453C986.745 286.818 985.867 287 984.825 287H979.371ZM981.132 285.466H984.825C985.488 285.466 986.049 285.333 986.509 285.068C986.973 284.798 987.323 284.453 987.56 284.031C987.801 283.605 987.922 283.155 987.922 282.682C987.922 281.986 987.654 281.387 987.119 280.885C986.584 280.378 985.82 280.125 984.825 280.125H981.132V285.466ZM998.577 278.946V280.509H992.213V278.946H998.577ZM1006.18 287.199C1005.24 287.199 1004.41 287.038 1003.67 286.716C1002.94 286.394 1002.36 285.946 1001.93 285.374C1001.5 284.796 1001.27 284.126 1001.24 283.364H1003.02C1003.06 283.832 1003.22 284.237 1003.51 284.578C1003.79 284.914 1004.16 285.175 1004.62 285.359C1005.08 285.544 1005.59 285.636 1006.15 285.636C1006.77 285.636 1007.33 285.527 1007.81 285.31C1008.29 285.092 1008.67 284.789 1008.95 284.401C1009.22 284.012 1009.36 283.562 1009.36 283.051C1009.36 282.516 1009.23 282.045 1008.96 281.638C1008.7 281.226 1008.31 280.904 1007.8 280.672C1007.29 280.44 1006.66 280.324 1005.92 280.324H1004.76V278.761H1005.92C1006.5 278.761 1007.01 278.657 1007.44 278.449C1007.88 278.241 1008.23 277.947 1008.47 277.568C1008.72 277.189 1008.85 276.744 1008.85 276.233C1008.85 275.741 1008.74 275.312 1008.52 274.947C1008.3 274.583 1008 274.299 1007.6 274.095C1007.21 273.892 1006.74 273.79 1006.21 273.79C1005.7 273.79 1005.23 273.882 1004.79 274.067C1004.35 274.247 1003.99 274.509 1003.71 274.855C1003.43 275.196 1003.28 275.608 1003.25 276.091H1001.55C1001.58 275.329 1001.81 274.661 1002.24 274.088C1002.67 273.51 1003.23 273.061 1003.93 272.739C1004.63 272.417 1005.4 272.256 1006.24 272.256C1007.13 272.256 1007.91 272.438 1008.55 272.803C1009.19 273.162 1009.69 273.638 1010.03 274.23C1010.38 274.822 1010.55 275.461 1010.55 276.148C1010.55 276.967 1010.34 277.665 1009.91 278.243C1009.48 278.821 1008.9 279.221 1008.17 279.443V279.557C1009.09 279.708 1009.8 280.099 1010.32 280.729C1010.83 281.354 1011.09 282.128 1011.09 283.051C1011.09 283.842 1010.88 284.552 1010.45 285.182C1010.02 285.807 1009.44 286.299 1008.7 286.659C1007.96 287.019 1007.12 287.199 1006.18 287.199Z" fill="black"/>
<path d="M871.707 280.707C872.098 280.317 872.098 279.683 871.707 279.293L865.343 272.929C864.953 272.538 864.319 272.538 863.929 272.929C863.538 273.319 863.538 273.953 863.929 274.343L869.586 280L863.929 285.657C863.538 286.047 863.538 286.681 863.929 287.071C864.319 287.462 864.953 287.462 865.343 287.071L871.707 280.707ZM828 280V281H830.15V280V279H828V280ZM834.45 280V281H838.75V280V279H834.45V280ZM843.05 280V281H847.35V280V279H843.05V280ZM851.65 280V281H855.95V280V279H851.65V280ZM860.25 280V281H864.55V280V279H860.25V280ZM868.85 280V281H871V280V279H868.85V280ZM871.707 280.707C872.098 280.317 872.098 279.683 871.707 279.293L865.343 272.929C864.953 272.538 864.319 272.538 863.929 272.929C863.538 273.319 863.538 273.953 863.929 274.343L869.586 280L863.929 285.657C863.538 286.047 863.538 286.681 863.929 287.071C864.319 287.462 864.953 287.462 865.343 287.071L871.707 280.707ZM828 280V281H830.15V280V279H828V280ZM834.45 280V281H838.75V280V279H834.45V280ZM843.05 280V281H847.35V280V279H843.05V280ZM851.65 280V281H855.95V280V279H851.65V280ZM860.25 280V281H864.55V280V279H860.25V280ZM868.85 280V281H871V280V279H868.85V280Z" fill="black"/>
<path d="M1151 183.076C1151.04 182.525 1150.63 182.045 1150.08 182.003L1141.1 181.319C1140.55 181.277 1140.07 181.69 1140.03 182.24C1139.99 182.791 1140.4 183.271 1140.95 183.313L1148.93 183.921L1148.32 191.898C1148.28 192.449 1148.69 192.929 1149.24 192.971C1149.79 193.013 1150.27 192.601 1150.31 192.05L1151 183.076ZM1037 280L1037.65 280.759L1039.14 279.482L1038.49 278.724L1037.84 277.965L1036.35 279.241L1037 280ZM1041.46 276.171L1042.11 276.93L1045.09 274.377L1044.43 273.618L1043.78 272.86L1040.81 275.412L1041.46 276.171ZM1047.41 271.066L1048.06 271.825L1051.03 269.272L1050.38 268.513L1049.73 267.754L1046.76 270.307L1047.41 271.066ZM1053.36 265.961L1054.01 266.719L1056.98 264.167L1056.33 263.408L1055.68 262.649L1052.7 265.202L1053.36 265.961ZM1059.3 260.855L1059.95 261.614L1062.93 259.061L1062.28 258.303L1061.62 257.544L1058.65 260.096L1059.3 260.855ZM1065.25 255.75L1065.9 256.509L1068.88 253.956L1068.22 253.197L1067.57 252.439L1064.6 254.991L1065.25 255.75ZM1071.2 250.645L1071.85 251.404L1074.82 248.851L1074.17 248.092L1073.52 247.333L1070.55 249.886L1071.2 250.645ZM1077.14 245.539L1077.8 246.298L1080.77 243.746L1080.12 242.987L1079.47 242.228L1076.49 244.781L1077.14 245.539ZM1083.09 240.434L1083.74 241.193L1086.72 238.64L1086.07 237.882L1085.41 237.123L1082.44 239.675L1083.09 240.434ZM1089.04 235.329L1089.69 236.088L1092.66 233.535L1092.01 232.776L1091.36 232.018L1088.39 234.57L1089.04 235.329ZM1094.99 230.224L1095.64 230.982L1098.61 228.43L1097.96 227.671L1097.31 226.912L1094.34 229.465L1094.99 230.224ZM1100.93 225.118L1101.59 225.877L1104.56 223.325L1103.91 222.566L1103.26 221.807L1100.28 224.36L1100.93 225.118ZM1106.88 220.013L1107.53 220.772L1110.51 218.219L1109.86 217.461L1109.2 216.702L1106.23 219.254L1106.88 220.013ZM1112.83 214.908L1113.48 215.667L1116.45 213.114L1115.8 212.355L1115.15 211.596L1112.18 214.149L1112.83 214.908ZM1118.78 209.803L1119.43 210.561L1122.4 208.009L1121.75 207.25L1121.1 206.491L1118.12 209.044L1118.78 209.803ZM1124.72 204.697L1125.38 205.456L1128.35 202.904L1127.7 202.145L1127.05 201.386L1124.07 203.939L1124.72 204.697ZM1130.67 199.592L1131.32 200.351L1134.3 197.798L1133.64 197.039L1132.99 196.281L1130.02 198.833L1130.67 199.592ZM1136.62 194.487L1137.27 195.246L1140.24 192.693L1139.59 191.934L1138.94 191.175L1135.97 193.728L1136.62 194.487ZM1142.57 189.382L1143.22 190.14L1146.19 187.588L1145.54 186.829L1144.89 186.07L1141.91 188.623L1142.57 189.382ZM1148.51 184.276L1149.16 185.035L1150.65 183.759L1150 183L1149.35 182.241L1147.86 183.518L1148.51 184.276ZM1151 183.076C1151.04 182.525 1150.63 182.045 1150.08 182.003L1141.1 181.319C1140.55 181.277 1140.07 181.69 1140.03 182.24C1139.99 182.791 1140.4 183.271 1140.95 183.313L1148.93 183.921L1148.32 191.898C1148.28 192.449 1148.69 192.929 1149.24 192.971C1149.79 193.013 1150.27 192.601 1150.31 192.05L1151 183.076ZM1037 280L1037.65 280.759L1039.14 279.482L1038.49 278.724L1037.84 277.965L1036.35 279.241L1037 280ZM1041.46 276.171L1042.11 276.93L1045.09 274.377L1044.43 273.618L1043.78 272.86L1040.81 275.412L1041.46 276.171ZM1047.41 271.066L1048.06 271.825L1051.03 269.272L1050.38 268.513L1049.73 267.754L1046.76 270.307L1047.41 271.066ZM1053.36 265.961L1054.01 266.719L1056.98 264.167L1056.33 263.408L1055.68 262.649L1052.7 265.202L1053.36 265.961ZM1059.3 260.855L1059.95 261.614L1062.93 259.061L1062.28 258.303L1061.62 257.544L1058.65 260.096L1059.3 260.855ZM1065.25 255.75L1065.9 256.509L1068.88 253.956L1068.22 253.197L1067.57 252.439L1064.6 254.991L1065.25 255.75ZM1071.2 250.645L1071.85 251.404L1074.82 248.851L1074.17 248.092L1073.52 247.333L1070.55 249.886L1071.2 250.645ZM1077.14 245.539L1077.8 246.298L1080.77 243.746L1080.12 242.987L1079.47 242.228L1076.49 244.781L1077.14 245.539ZM1083.09 240.434L1083.74 241.193L1086.72 238.64L1086.07 237.882L1085.41 237.123L1082.44 239.675L1083.09 240.434ZM1089.04 235.329L1089.69 236.088L1092.66 233.535L1092.01 232.776L1091.36 232.018L1088.39 234.57L1089.04 235.329ZM1094.99 230.224L1095.64 230.982L1098.61 228.43L1097.96 227.671L1097.31 226.912L1094.34 229.465L1094.99 230.224ZM1100.93 225.118L1101.59 225.877L1104.56 223.325L1103.91 222.566L1103.26 221.807L1100.28 224.36L1100.93 225.118ZM1106.88 220.013L1107.53 220.772L1110.51 218.219L1109.86 217.461L1109.2 216.702L1106.23 219.254L1106.88 220.013ZM1112.83 214.908L1113.48 215.667L1116.45 213.114L1115.8 212.355L1115.15 211.596L1112.18 214.149L1112.83 214.908ZM1118.78 209.803L1119.43 210.561L1122.4 208.009L1121.75 207.25L1121.1 206.491L1118.12 209.044L1118.78 209.803ZM1124.72 204.697L1125.38 205.456L1128.35 202.904L1127.7 202.145L1127.05 201.386L1124.07 203.939L1124.72 204.697ZM1130.67 199.592L1131.32 200.351L1134.3 197.798L1133.64 197.039L1132.99 196.281L1130.02 198.833L1130.67 199.592ZM1136.62 194.487L1137.27 195.246L1140.24 192.693L1139.59 191.934L1138.94 191.175L1135.97 193.728L1136.62 194.487ZM1142.57 189.382L1143.22 190.14L1146.19 187.588L1145.54 186.829L1144.89 186.07L1141.91 188.623L1142.57 189.382ZM1148.51 184.276L1149.16 185.035L1150.65 183.759L1150 183L1149.35 182.241L1147.86 183.518L1148.51 184.276Z" fill="black"/>
<rect x="663.5" y="147.5" width="166" height="71" rx="19.5" fill="#76D1FE" stroke="#897F7F"/>
<path d="M692.534 190V179.091H694.21V183.835H695.318L699.239 179.091H701.398L696.994 184.347L701.455 190H699.295L695.716 185.398H694.21V190H692.534ZM707.259 190.227C706.274 190.227 705.41 189.993 704.667 189.524C703.928 189.055 703.35 188.4 702.934 187.557C702.522 186.714 702.316 185.729 702.316 184.602C702.316 183.466 702.522 182.474 702.934 181.626C703.35 180.779 703.928 180.121 704.667 179.652C705.41 179.183 706.274 178.949 707.259 178.949C708.244 178.949 709.105 179.183 709.844 179.652C710.587 180.121 711.165 180.779 711.577 181.626C711.994 182.474 712.202 183.466 712.202 184.602C712.202 185.729 711.994 186.714 711.577 187.557C711.165 188.4 710.587 189.055 709.844 189.524C709.105 189.993 708.244 190.227 707.259 190.227ZM707.259 188.722C708.007 188.722 708.623 188.53 709.105 188.146C709.588 187.763 709.946 187.259 710.178 186.634C710.41 186.009 710.526 185.331 710.526 184.602C710.526 183.873 710.41 183.194 710.178 182.564C709.946 181.934 709.588 181.425 709.105 181.037C708.623 180.649 708.007 180.455 707.259 180.455C706.511 180.455 705.895 180.649 705.412 181.037C704.929 181.425 704.572 181.934 704.34 182.564C704.108 183.194 703.992 183.873 703.992 184.602C703.992 185.331 704.108 186.009 704.34 186.634C704.572 187.259 704.929 187.763 705.412 188.146C705.895 188.53 706.511 188.722 707.259 188.722ZM720.727 187.727L724.533 179.091H726.124L721.408 190H720.045L715.414 179.091H716.977L720.727 187.727ZM716.437 179.091V190H714.761V179.091H716.437ZM725.016 190V179.091H726.692V190H725.016ZM735.727 187.727L739.533 179.091H741.124L736.408 190H735.045L730.414 179.091H731.977L735.727 187.727ZM731.437 179.091V190H729.761V179.091H731.437ZM740.016 190V179.091H741.692V190H740.016ZM746.437 187.528L751.692 179.091H753.624V190H751.948V181.562L746.721 190H744.761V179.091H746.437V187.528ZM755.21 180.653V179.091H764.074V180.653H760.494V190H758.818V180.653H755.21ZM772.967 190H771.121L776.462 175.455H778.28L783.621 190H781.774L777.428 177.756H777.314L772.967 190ZM773.649 184.318H781.092V185.881H773.649V184.318ZM791.909 181.946V183.509H785.545V181.946H791.909ZM794.489 187.017V185.568L800.881 175.455H801.932V177.699H801.222L796.392 185.341V185.455H805V187.017H794.489ZM801.336 190V186.577V185.902V175.455H803.012V190H801.336Z" fill="black"/>
<rect x="1150.5" y="147.5" width="166" height="71" rx="19.5" fill="#76D1FE" stroke="#897F7F"/>
<path d="M1179.53 190V179.091H1181.21V183.835H1182.32L1186.24 179.091H1188.4L1183.99 184.347L1188.45 190H1186.3L1182.72 185.398H1181.21V190H1179.53ZM1194.26 190.227C1193.27 190.227 1192.41 189.993 1191.67 189.524C1190.93 189.055 1190.35 188.4 1189.93 187.557C1189.52 186.714 1189.32 185.729 1189.32 184.602C1189.32 183.466 1189.52 182.474 1189.93 181.626C1190.35 180.779 1190.93 180.121 1191.67 179.652C1192.41 179.183 1193.27 178.949 1194.26 178.949C1195.24 178.949 1196.11 179.183 1196.84 179.652C1197.59 180.121 1198.17 180.779 1198.58 181.626C1198.99 182.474 1199.2 183.466 1199.2 184.602C1199.2 185.729 1198.99 186.714 1198.58 187.557C1198.17 188.4 1197.59 189.055 1196.84 189.524C1196.11 189.993 1195.24 190.227 1194.26 190.227ZM1194.26 188.722C1195.01 188.722 1195.62 188.53 1196.11 188.146C1196.59 187.763 1196.95 187.259 1197.18 186.634C1197.41 186.009 1197.53 185.331 1197.53 184.602C1197.53 183.873 1197.41 183.194 1197.18 182.564C1196.95 181.934 1196.59 181.425 1196.11 181.037C1195.62 180.649 1195.01 180.455 1194.26 180.455C1193.51 180.455 1192.9 180.649 1192.41 181.037C1191.93 181.425 1191.57 181.934 1191.34 182.564C1191.11 183.194 1190.99 183.873 1190.99 184.602C1190.99 185.331 1191.11 186.009 1191.34 186.634C1191.57 187.259 1191.93 187.763 1192.41 188.146C1192.9 188.53 1193.51 188.722 1194.26 188.722ZM1207.73 187.727L1211.53 179.091H1213.12L1208.41 190H1207.04L1202.41 179.091H1203.98L1207.73 187.727ZM1203.44 179.091V190H1201.76V179.091H1203.44ZM1212.02 190V179.091H1213.69V190H1212.02ZM1222.73 187.727L1226.53 179.091H1228.12L1223.41 190H1222.04L1217.41 179.091H1218.98L1222.73 187.727ZM1218.44 179.091V190H1216.76V179.091H1218.44ZM1227.02 190V179.091H1228.69V190H1227.02ZM1233.44 187.528L1238.69 179.091H1240.62V190H1238.95V181.562L1233.72 190H1231.76V179.091H1233.44V187.528ZM1242.21 180.653V179.091H1251.07V180.653H1247.49V190H1245.82V180.653H1242.21ZM1259.97 190H1258.12L1263.46 175.455H1265.28L1270.62 190H1268.77L1264.43 177.756H1264.31L1259.97 190ZM1260.65 184.318H1268.09V185.881H1260.65V184.318ZM1278.91 181.946V183.509H1272.55V181.946H1278.91ZM1286.38 190.199C1285.54 190.199 1284.79 190.033 1284.12 189.702C1283.46 189.37 1282.92 188.916 1282.52 188.338C1282.12 187.76 1281.9 187.102 1281.86 186.364H1283.56C1283.63 187.022 1283.93 187.566 1284.46 187.997C1284.99 188.423 1285.63 188.636 1286.38 188.636C1286.97 188.636 1287.5 188.497 1287.97 188.217C1288.44 187.938 1288.8 187.554 1289.07 187.067C1289.34 186.574 1289.47 186.018 1289.47 185.398C1289.47 184.763 1289.33 184.197 1289.05 183.7C1288.78 183.198 1288.4 182.803 1287.92 182.514C1287.43 182.225 1286.88 182.079 1286.26 182.074C1285.82 182.069 1285.36 182.138 1284.89 182.28C1284.42 182.417 1284.04 182.595 1283.73 182.812L1282.09 182.614L1282.97 175.455H1290.52V177.017H1284.44L1283.93 181.307H1284.02C1284.32 181.07 1284.69 180.874 1285.14 180.717C1285.59 180.561 1286.06 180.483 1286.55 180.483C1287.44 180.483 1288.23 180.696 1288.93 181.122C1289.63 181.544 1290.18 182.121 1290.57 182.855C1290.98 183.589 1291.18 184.427 1291.18 185.369C1291.18 186.297 1290.97 187.126 1290.55 187.855C1290.14 188.58 1289.57 189.152 1288.85 189.574C1288.12 189.991 1287.3 190.199 1286.38 190.199Z" fill="black"/>
<path d="M664.707 183.707C665.098 183.317 665.098 182.683 664.707 182.293L658.343 175.929C657.953 175.538 657.319 175.538 656.929 175.929C656.538 176.319 656.538 176.953 656.929 177.343L662.586 183L656.929 188.657C656.538 189.047 656.538 189.681 656.929 190.071C657.319 190.462 657.953 190.462 658.343 190.071L664.707 183.707ZM621 183V184H623.15V183V182H621V183ZM627.45 183V184H631.75V183V182H627.45V183ZM636.05 183V184H640.35V183V182H636.05V183ZM644.65 183V184H648.95V183V182H644.65V183ZM653.25 183V184H657.55V183V182H653.25V183ZM661.85 183V184H664V183V182H661.85V183ZM664.707 183.707C665.098 183.317 665.098 182.683 664.707 182.293L658.343 175.929C657.953 175.538 657.319 175.538 656.929 175.929C656.538 176.319 656.538 176.953 656.929 177.343L662.586 183L656.929 188.657C656.538 189.047 656.538 189.681 656.929 190.071C657.319 190.462 657.953 190.462 658.343 190.071L664.707 183.707ZM621 183V184H623.15V183V182H621V183ZM627.45 183V184H631.75V183V182H627.45V183ZM636.05 183V184H640.35V183V182H636.05V183ZM644.65 183V184H648.95V183V182H644.65V183ZM653.25 183V184H657.55V183V182H653.25V183ZM661.85 183V184H664V183V182H661.85V183Z" fill="black"/>
<path d="M1150.71 183.707C1151.1 183.317 1151.1 182.683 1150.71 182.293L1144.34 175.929C1143.95 175.538 1143.32 175.538 1142.93 175.929C1142.54 176.319 1142.54 176.953 1142.93 177.343L1148.59 183L1142.93 188.657C1142.54 189.047 1142.54 189.681 1142.93 190.071C1143.32 190.462 1143.95 190.462 1144.34 190.071L1150.71 183.707ZM830 183V184H832V183V182H830V183ZM836 183V184H840V183V182H836V183ZM844 183V184H848V183V182H844V183ZM852 183V184H856V183V182H852V183ZM860 183V184H864V183V182H860V183ZM868 183V184H872V183V182H868V183ZM876 183V184H880V183V182H876V183ZM884 183V184H888V183V182H884V183ZM892 183V184H896V183V182H892V183ZM900 183V184H904V183V182H900V183ZM908 183V184H912V183V182H908V183ZM916 183V184H920V183V182H916V183ZM924 183V184H928V183V182H924V183ZM932 183V184H936V183V182H932V183ZM940 183V184H944V183V182H940V183ZM948 183V184H952V183V182H948V183ZM956 183V184H960V183V182H956V183ZM964 183V184H968V183V182H964V183ZM972 183V184H976V183V182H972V183ZM980 183V184H984V183V182H980V183ZM988 183V184H992V183V182H988V183ZM996 183V184H1000V183V182H996V183ZM1004 183V184H1008V183V182H1004V183ZM1012 183V184H1016V183V182H1012V183ZM1020 183V184H1024V183V182H1020V183ZM1028 183V184H1032V183V182H1028V183ZM1036 183V184H1040V183V182H1036V183ZM1044 183V184H1048V183V182H1044V183ZM1052 183V184H1056V183V182H1052V183ZM1060 183V184H1064V183V182H1060V183ZM1068 183V184H1072V183V182H1068V183ZM1076 183V184H1080V183V182H1076V183ZM1084 183V184H1088V183V182H1084V183ZM1092 183V184H1096V183V182H1092V183ZM1100 183V184H1104V183V182H1100V183ZM1108 183V184H1112V183V182H1108V183ZM1116 183V184H1120V183V182H1116V183ZM1124 183V184H1128V183V182H1124V183ZM1132 183V184H1136V183V182H1132V183ZM1140 183V184H1144V183V182H1140V183ZM1148 183V184H1150V183V182H1148V183ZM1150.71 183.707C1151.1 183.317 1151.1 182.683 1150.71 182.293L1144.34 175.929C1143.95 175.538 1143.32 175.538 1142.93 175.929C1142.54 176.319 1142.54 176.953 1142.93 177.343L1148.59 183L1142.93 188.657C1142.54 189.047 1142.54 189.681 1142.93 190.071C1143.32 190.462 1143.95 190.462 1144.34 190.071L1150.71 183.707ZM830 183V184H832V183V182H830V183ZM836 183V184H840V183V182H836V183ZM844 183V184H848V183V182H844V183ZM852 183V184H856V183V182H852V183ZM860 183V184H864V183V182H860V183ZM868 183V184H872V183V182H868V183ZM876 183V184H880V183V182H876V183ZM884 183V184H888V183V182H884V183ZM892 183V184H896V183V182H892V183ZM900 183V184H904V183V182H900V183ZM908 183V184H912V183V182H908V183ZM916 183V184H920V183V182H916V183ZM924 183V184H928V183V182H924V183ZM932 183V184H936V183V182H932V183ZM940 183V184H944V183V182H940V183ZM948 183V184H952V183V182H948V183ZM956 183V184H960V183V182H956V183ZM964 183V184H968V183V182H964V183ZM972 183V184H976V183V182H972V183ZM980 183V184H984V183V182H980V183ZM988 183V184H992V183V182H988V183ZM996 183V184H1000V183V182H996V183ZM1004 183V184H1008V183V182H1004V183ZM1012 183V184H1016V183V182H1012V183ZM1020 183V184H1024V183V182H1020V183ZM1028 183V184H1032V183V182H1028V183ZM1036 183V184H1040V183V182H1036V183ZM1044 183V184H1048V183V182H1044V183ZM1052 183V184H1056V183V182H1052V183ZM1060 183V184H1064V183V182H1060V183ZM1068 183V184H1072V183V182H1068V183ZM1076 183V184H1080V183V182H1076V183ZM1084 183V184H1088V183V182H1084V183ZM1092 183V184H1096V183V182H1092V183ZM1100 183V184H1104V183V182H1100V183ZM1108 183V184H1112V183V182H1108V183ZM1116 183V184H1120V183V182H1116V183ZM1124 183V184H1128V183V182H1124V183ZM1132 183V184H1136V183V182H1132V183ZM1140 183V184H1144V183V182H1140V183ZM1148 183V184H1150V183V182H1148V183Z" fill="black"/>
<path d="M424.001 183L425.001 183L425.001 182L424.001 182L424.001 183ZM424.001 280L423.001 280L423.001 281L424.001 281L424.001 280ZM452.708 280.707C453.098 280.316 453.098 279.683 452.708 279.293L446.344 272.929C445.953 272.538 445.32 272.538 444.929 272.929C444.539 273.319 444.539 273.952 444.929 274.343L450.586 280L444.929 285.657C444.539 286.047 444.539 286.68 444.929 287.071C445.32 287.461 445.953 287.461 446.344 287.071L452.708 280.707ZM409 183L409 184L410.876 184L410.876 183L410.876 182L409 182L409 183ZM414.626 183L414.626 184L418.376 184L418.376 183L418.376 182L414.626 182L414.626 183ZM422.126 183L422.126 184L424.001 184L424.001 183L424.001 182L422.126 182L422.126 183ZM424.001 183L423.001 183L423.001 185.021L424.001 185.021L425.001 185.021L425.001 183L424.001 183ZM424.001 189.062L423.001 189.062L423.001 193.104L424.001 193.104L425.001 193.104L425.001 189.062L424.001 189.062ZM424.001 197.146L423.001 197.146L423.001 201.187L424.001 201.187L425.001 201.187L425.001 197.146L424.001 197.146ZM424.001 205.229L423.001 205.229L423.001 209.271L424.001 209.271L425.001 209.271L425.001 205.229L424.001 205.229ZM424.001 213.312L423.001 213.312L423.001 217.354L424.001 217.354L425.001 217.354L425.001 213.312L424.001 213.312ZM424.001 221.396L423.001 221.396L423.001 225.437L424.001 225.437L425.001 225.437L425.001 221.396L424.001 221.396ZM424.001 229.479L423.001 229.479L423.001 233.521L424.001 233.521L425.001 233.521L425.001 229.479L424.001 229.479ZM424.001 237.562L423.001 237.562L423.001 241.604L424.001 241.604L425.001 241.604L425.001 237.562L424.001 237.562ZM424.001 245.646L423.001 245.646L423.001 249.687L424.001 249.687L425.001 249.687L425.001 245.646L424.001 245.646ZM424.001 253.729L423.001 253.729L423.001 257.771L424.001 257.771L425.001 257.771L425.001 253.729L424.001 253.729ZM424.001 261.812L423.001 261.812L423.001 265.854L424.001 265.854L425.001 265.854L425.001 261.812L424.001 261.812ZM424.001 269.896L423.001 269.896L423.001 273.937L424.001 273.937L425.001 273.937L425.001 269.896L424.001 269.896ZM424.001 277.979L423.001 277.979L423.001 280L424.001 280L425.001 280L425.001 277.979L424.001 277.979ZM424.001 280L424.001 281L426.334 281L426.334 280L426.334 279L424.001 279L424.001 280ZM431.001 280L431.001 281L435.667 281L435.667 280L435.667 279L431.001 279L431.001 280ZM440.334 280L440.334 281L445.001 281L445.001 280L445.001 279L440.334 279L440.334 280ZM449.667 280L449.667 281L452 281L452 280L452 279L449.667 279L449.667 280ZM424.001 183L425.001 183L425.001 182L424.001 182L424.001 183ZM424.001 280L423.001 280L423.001 281L424.001 281L424.001 280ZM452.708 280.707C453.098 280.316 453.098 279.683 452.708 279.293L446.344 272.929C445.953 272.538 445.32 272.538 444.929 272.929C444.539 273.319 444.539 273.952 444.929 274.343L450.586 280L444.929 285.657C444.539 286.047 444.539 286.68 444.929 287.071C445.32 287.461 445.953 287.461 446.344 287.071L452.708 280.707ZM409 183L409 184L410.876 184L410.876 183L410.876 182L409 182L409 183ZM414.626 183L414.626 184L418.376 184L418.376 183L418.376 182L414.626 182L414.626 183ZM422.126 183L422.126 184L424.001 184L424.001 183L424.001 182L422.126 182L422.126 183ZM424.001 183L423.001 183L423.001 185.021L424.001 185.021L425.001 185.021L425.001 183L424.001 183ZM424.001 189.062L423.001 189.062L423.001 193.104L424.001 193.104L425.001 193.104L425.001 189.062L424.001 189.062ZM424.001 197.146L423.001 197.146L423.001 201.187L424.001 201.187L425.001 201.187L425.001 197.146L424.001 197.146ZM424.001 205.229L423.001 205.229L423.001 209.271L424.001 209.271L425.001 209.271L425.001 205.229L424.001 205.229ZM424.001 213.312L423.001 213.312L423.001 217.354L424.001 217.354L425.001 217.354L425.001 213.312L424.001 213.312ZM424.001 221.396L423.001 221.396L423.001 225.437L424.001 225.437L425.001 225.437L425.001 221.396L424.001 221.396ZM424.001 229.479L423.001 229.479L423.001 233.521L424.001 233.521L425.001 233.521L425.001 229.479L424.001 229.479ZM424.001 237.562L423.001 237.562L423.001 241.604L424.001 241.604L425.001 241.604L425.001 237.562L424.001 237.562ZM424.001 245.646L423.001 245.646L423.001 249.687L424.001 249.687L425.001 249.687L425.001 245.646L424.001 245.646ZM424.001 253.729L423.001 253.729L423.001 257.771L424.001 257.771L425.001 257.771L425.001 253.729L424.001 253.729ZM424.001 261.812L423.001 261.812L423.001 265.854L424.001 265.854L425.001 265.854L425.001 261.812L424.001 261.812ZM424.001 269.896L423.001 269.896L423.001 273.937L424.001 273.937L425.001 273.937L425.001 269.896L424.001 269.896ZM424.001 277.979L423.001 277.979L423.001 280L424.001 280L425.001 280L425.001 277.979L424.001 277.979ZM424.001 280L424.001 281L426.334 281L426.334 280L426.334 279L424.001 279L424.001 280ZM431.001 280L431.001 281L435.667 281L435.667 280L435.667 279L431.001 279L431.001 280ZM440.334 280L440.334 281L445.001 281L445.001 280L445.001 279L440.334 279L440.334 280ZM449.667 280L449.667 281L452 281L452 280L452 279L449.667 279L449.667 280Z" fill="black"/>
<rect x="10.5" y="30.5" width="1374" height="396" stroke="black" stroke-dasharray="2 2"/>
<path d="M24.1364 404.256C24.733 404.26 25.3295 404.374 25.9261 404.597C26.5227 404.819 27.0672 405.188 27.5597 405.705C28.0521 406.216 28.4474 406.914 28.7457 407.8C29.044 408.685 29.1932 409.795 29.1932 411.131C29.1932 412.423 29.0701 413.571 28.8239 414.575C28.5824 415.574 28.232 416.417 27.7727 417.104C27.3182 417.79 26.7642 418.311 26.1108 418.666C25.4621 419.021 24.7282 419.199 23.9091 419.199C23.0947 419.199 22.3679 419.038 21.7287 418.716C21.0942 418.389 20.5734 417.937 20.1662 417.359C19.7637 416.777 19.5057 416.102 19.392 415.335H21.125C21.2812 416.003 21.5914 416.554 22.0554 416.99C22.5241 417.421 23.142 417.636 23.9091 417.636C25.0313 417.636 25.9167 417.146 26.5653 416.166C27.2188 415.186 27.5455 413.801 27.5455 412.011H27.4318C27.1667 412.409 26.8518 412.752 26.4872 413.041C26.1226 413.33 25.7178 413.553 25.2727 413.709C24.8277 413.865 24.3542 413.943 23.8523 413.943C23.0189 413.943 22.2543 413.737 21.5582 413.325C20.867 412.909 20.313 412.338 19.8963 411.614C19.4844 410.884 19.2784 410.051 19.2784 409.114C19.2784 408.223 19.4773 407.409 19.875 406.67C20.2775 405.927 20.8409 405.335 21.5653 404.895C22.2945 404.455 23.1515 404.241 24.1364 404.256ZM24.1364 405.818C23.5398 405.818 23.0024 405.967 22.5241 406.266C22.0507 406.559 21.6742 406.957 21.3949 407.459C21.1203 407.956 20.983 408.508 20.983 409.114C20.983 409.72 21.1155 410.271 21.3807 410.768C21.6506 411.261 22.0175 411.654 22.4815 411.947C22.9503 412.236 23.483 412.381 24.0795 412.381C24.5294 412.381 24.9484 412.293 25.3366 412.118C25.7249 411.938 26.0634 411.694 26.3523 411.386C26.6458 411.074 26.8755 410.721 27.0412 410.328C27.2069 409.93 27.2898 409.516 27.2898 409.085C27.2898 408.517 27.1525 407.984 26.8778 407.487C26.608 406.99 26.2339 406.588 25.7557 406.28C25.2822 405.972 24.7424 405.818 24.1364 405.818Z" fill="black"/>
<rect x="1185.5" y="84.5" width="96" height="31" fill="#76D1FE" stroke="#FF0000" stroke-width="3"/>
<path d="M1202.53 107V96.0909H1204.15V97.7955H1204.3C1204.52 97.2131 1204.89 96.7609 1205.4 96.4389C1205.9 96.1122 1206.51 95.9489 1207.22 95.9489C1207.94 95.9489 1208.54 96.1122 1209.02 96.4389C1209.5 96.7609 1209.88 97.2131 1210.15 97.7955H1210.26C1210.54 97.232 1210.96 96.7846 1211.52 96.4531C1212.08 96.117 1212.75 95.9489 1213.53 95.9489C1214.5 95.9489 1215.3 96.2543 1215.92 96.8651C1216.54 97.4711 1216.85 98.4157 1216.85 99.6989V107H1215.18V99.6989C1215.18 98.8939 1214.96 98.3187 1214.52 97.973C1214.08 97.6274 1213.56 97.4545 1212.96 97.4545C1212.19 97.4545 1211.6 97.6866 1211.18 98.1506C1210.76 98.6098 1210.55 99.1922 1210.55 99.8977V107H1208.84V99.5284C1208.84 98.9081 1208.64 98.4086 1208.24 98.0298C1207.83 97.6463 1207.32 97.4545 1206.68 97.4545C1206.25 97.4545 1205.84 97.5705 1205.46 97.8026C1205.09 98.0346 1204.78 98.3565 1204.55 98.7685C1204.32 99.1757 1204.21 99.6468 1204.21 100.182V107H1202.53ZM1223.13 107.256C1222.44 107.256 1221.81 107.125 1221.25 106.865C1220.68 106.6 1220.23 106.219 1219.9 105.722C1219.57 105.22 1219.41 104.614 1219.41 103.903C1219.41 103.278 1219.53 102.772 1219.77 102.384C1220.02 101.991 1220.35 101.683 1220.76 101.46C1221.17 101.238 1221.63 101.072 1222.13 100.963C1222.63 100.849 1223.13 100.759 1223.64 100.693C1224.3 100.608 1224.84 100.544 1225.25 100.501C1225.67 100.454 1225.97 100.376 1226.16 100.267C1226.35 100.158 1226.45 99.9687 1226.45 99.6989V99.642C1226.45 98.9413 1226.26 98.3968 1225.88 98.0085C1225.5 97.6203 1224.92 97.4261 1224.15 97.4261C1223.35 97.4261 1222.72 97.6013 1222.27 97.9517C1221.81 98.3021 1221.49 98.6761 1221.31 99.0739L1219.72 98.5057C1220 97.8428 1220.38 97.3267 1220.85 96.9574C1221.33 96.5833 1221.85 96.3229 1222.42 96.1761C1222.99 96.0246 1223.54 95.9489 1224.09 95.9489C1224.44 95.9489 1224.85 95.9915 1225.3 96.0767C1225.76 96.1572 1226.2 96.3253 1226.63 96.581C1227.06 96.8366 1227.42 97.2225 1227.7 97.7386C1227.99 98.2547 1228.13 98.946 1228.13 99.8125V107H1226.45V105.523H1226.37C1226.25 105.759 1226.06 106.013 1225.8 106.283C1225.53 106.553 1225.18 106.782 1224.74 106.972C1224.3 107.161 1223.76 107.256 1223.13 107.256ZM1223.38 105.75C1224.05 105.75 1224.6 105.62 1225.06 105.359C1225.52 105.099 1225.86 104.763 1226.1 104.351C1226.33 103.939 1226.45 103.506 1226.45 103.051V101.517C1226.38 101.602 1226.22 101.68 1225.98 101.751C1225.75 101.818 1225.47 101.877 1225.16 101.929C1224.85 101.976 1224.55 102.019 1224.26 102.057C1223.97 102.09 1223.73 102.118 1223.55 102.142C1223.12 102.199 1222.71 102.291 1222.33 102.419C1221.96 102.542 1221.65 102.729 1221.42 102.98C1221.2 103.226 1221.08 103.562 1221.08 103.989C1221.08 104.571 1221.3 105.011 1221.73 105.31C1222.16 105.603 1222.72 105.75 1223.38 105.75ZM1238.91 98.5341L1237.41 98.9602C1237.31 98.7093 1237.17 98.4654 1236.99 98.2287C1236.81 97.9872 1236.56 97.7884 1236.25 97.6321C1235.94 97.4759 1235.54 97.3977 1235.05 97.3977C1234.38 97.3977 1233.83 97.5516 1233.38 97.8594C1232.94 98.1624 1232.72 98.5483 1232.72 99.017C1232.72 99.4337 1232.87 99.7628 1233.18 100.004C1233.48 100.246 1233.95 100.447 1234.6 100.608L1236.21 101.006C1237.19 101.242 1237.92 101.605 1238.4 102.092C1238.87 102.575 1239.11 103.198 1239.11 103.96C1239.11 104.585 1238.93 105.144 1238.57 105.636C1238.22 106.129 1237.72 106.517 1237.08 106.801C1236.44 107.085 1235.7 107.227 1234.85 107.227C1233.74 107.227 1232.82 106.986 1232.09 106.503C1231.36 106.02 1230.9 105.314 1230.7 104.386L1232.29 103.989C1232.45 104.576 1232.73 105.016 1233.15 105.31C1233.58 105.603 1234.14 105.75 1234.82 105.75C1235.6 105.75 1236.22 105.584 1236.68 105.253C1237.15 104.917 1237.38 104.514 1237.38 104.045C1237.38 103.667 1237.25 103.349 1236.98 103.094C1236.72 102.833 1236.31 102.639 1235.76 102.511L1233.94 102.085C1232.94 101.848 1232.21 101.482 1231.74 100.984C1231.28 100.482 1231.04 99.8551 1231.04 99.1023C1231.04 98.4867 1231.22 97.9422 1231.56 97.4688C1231.91 96.9953 1232.39 96.6236 1232.99 96.3537C1233.6 96.0838 1234.28 95.9489 1235.05 95.9489C1236.13 95.9489 1236.98 96.1856 1237.59 96.6591C1238.21 97.1326 1238.65 97.7576 1238.91 98.5341ZM1246.38 96.0909V97.5114H1240.73V96.0909H1246.38ZM1242.37 93.4773H1244.05V103.875C1244.05 104.348 1244.12 104.704 1244.26 104.94C1244.4 105.172 1244.58 105.329 1244.8 105.409C1245.02 105.485 1245.25 105.523 1245.5 105.523C1245.68 105.523 1245.84 105.513 1245.95 105.494C1246.07 105.471 1246.17 105.452 1246.24 105.438L1246.58 106.943C1246.47 106.986 1246.31 107.028 1246.1 107.071C1245.9 107.118 1245.64 107.142 1245.33 107.142C1244.86 107.142 1244.39 107.04 1243.94 106.837C1243.49 106.633 1243.11 106.323 1242.81 105.906C1242.52 105.49 1242.37 104.964 1242.37 104.33V93.4773ZM1253.36 107.227C1252.31 107.227 1251.4 106.995 1250.64 106.531C1249.88 106.062 1249.3 105.409 1248.88 104.571C1248.48 103.728 1248.27 102.748 1248.27 101.631C1248.27 100.513 1248.48 99.5284 1248.88 98.6761C1249.3 97.8191 1249.87 97.1515 1250.6 96.6733C1251.34 96.1903 1252.2 95.9489 1253.19 95.9489C1253.76 95.9489 1254.32 96.0436 1254.87 96.233C1255.42 96.4223 1255.93 96.7301 1256.38 97.1562C1256.84 97.5777 1257.2 98.1364 1257.47 98.8324C1257.74 99.5284 1257.88 100.385 1257.88 101.403V102.114H1249.47V100.665H1256.17C1256.17 100.049 1256.05 99.5 1255.8 99.017C1255.56 98.5341 1255.21 98.1529 1254.76 97.8736C1254.32 97.5942 1253.79 97.4545 1253.19 97.4545C1252.52 97.4545 1251.94 97.6203 1251.45 97.9517C1250.97 98.2784 1250.6 98.7045 1250.34 99.2301C1250.08 99.7557 1249.95 100.319 1249.95 100.92V101.886C1249.95 102.71 1250.09 103.409 1250.38 103.982C1250.66 104.55 1251.06 104.983 1251.58 105.281C1252.09 105.575 1252.68 105.722 1253.36 105.722C1253.8 105.722 1254.2 105.66 1254.55 105.537C1254.91 105.409 1255.22 105.22 1255.48 104.969C1255.74 104.713 1255.94 104.396 1256.09 104.017L1257.7 104.472C1257.53 105.021 1257.25 105.504 1256.85 105.92C1256.44 106.332 1255.95 106.654 1255.35 106.886C1254.76 107.114 1254.1 107.227 1253.36 107.227ZM1260.42 107V96.0909H1262.04V97.7386H1262.16C1262.36 97.1989 1262.72 96.7609 1263.24 96.4247C1263.76 96.0885 1264.35 95.9205 1265 95.9205C1265.12 95.9205 1265.28 95.9228 1265.46 95.9276C1265.64 95.9323 1265.78 95.9394 1265.88 95.9489V97.6534C1265.82 97.6392 1265.69 97.6179 1265.49 97.5895C1265.29 97.5563 1265.08 97.5398 1264.86 97.5398C1264.33 97.5398 1263.85 97.651 1263.44 97.8736C1263.02 98.0914 1262.7 98.3944 1262.46 98.7827C1262.22 99.1662 1262.1 99.6042 1262.1 100.097V107H1260.42Z" fill="black"/>
<path d="M1049.53 176V165.091H1051.15V166.795H1051.3C1051.52 166.213 1051.89 165.761 1052.4 165.439C1052.9 165.112 1053.51 164.949 1054.22 164.949C1054.94 164.949 1055.54 165.112 1056.02 165.439C1056.5 165.761 1056.88 166.213 1057.15 166.795H1057.26C1057.54 166.232 1057.96 165.785 1058.52 165.453C1059.08 165.117 1059.75 164.949 1060.53 164.949C1061.5 164.949 1062.3 165.254 1062.92 165.865C1063.54 166.471 1063.85 167.416 1063.85 168.699V176H1062.18V168.699C1062.18 167.894 1061.96 167.319 1061.52 166.973C1061.08 166.627 1060.56 166.455 1059.96 166.455C1059.19 166.455 1058.6 166.687 1058.18 167.151C1057.76 167.61 1057.55 168.192 1057.55 168.898V176H1055.84V168.528C1055.84 167.908 1055.64 167.409 1055.24 167.03C1054.83 166.646 1054.32 166.455 1053.68 166.455C1053.25 166.455 1052.84 166.571 1052.46 166.803C1052.09 167.035 1051.78 167.357 1051.55 167.768C1051.32 168.176 1051.21 168.647 1051.21 169.182V176H1049.53ZM1071.49 176.227C1070.44 176.227 1069.53 175.995 1068.77 175.531C1068.01 175.062 1067.43 174.409 1067.02 173.571C1066.61 172.728 1066.41 171.748 1066.41 170.631C1066.41 169.513 1066.61 168.528 1067.02 167.676C1067.43 166.819 1068 166.152 1068.74 165.673C1069.47 165.19 1070.34 164.949 1071.32 164.949C1071.89 164.949 1072.45 165.044 1073 165.233C1073.56 165.422 1074.06 165.73 1074.52 166.156C1074.97 166.578 1075.33 167.136 1075.6 167.832C1075.87 168.528 1076.01 169.385 1076.01 170.403V171.114H1067.6V169.665H1074.3C1074.3 169.049 1074.18 168.5 1073.93 168.017C1073.69 167.534 1073.35 167.153 1072.9 166.874C1072.45 166.594 1071.93 166.455 1071.32 166.455C1070.65 166.455 1070.08 166.62 1069.59 166.952C1069.1 167.278 1068.73 167.705 1068.47 168.23C1068.21 168.756 1068.08 169.319 1068.08 169.92V170.886C1068.08 171.71 1068.22 172.409 1068.51 172.982C1068.8 173.55 1069.2 173.983 1069.71 174.281C1070.22 174.575 1070.81 174.722 1071.49 174.722C1071.93 174.722 1072.33 174.66 1072.68 174.537C1073.04 174.409 1073.35 174.22 1073.61 173.969C1073.87 173.713 1074.08 173.396 1074.22 173.017L1075.84 173.472C1075.67 174.021 1075.38 174.504 1074.98 174.92C1074.58 175.332 1074.08 175.654 1073.49 175.886C1072.89 176.114 1072.23 176.227 1071.49 176.227ZM1078.56 176V165.091H1080.18V166.739H1080.29C1080.49 166.199 1080.85 165.761 1081.37 165.425C1081.89 165.089 1082.48 164.92 1083.13 164.92C1083.25 164.92 1083.41 164.923 1083.59 164.928C1083.78 164.932 1083.92 164.939 1084.01 164.949V166.653C1083.96 166.639 1083.83 166.618 1083.62 166.589C1083.42 166.556 1083.21 166.54 1082.99 166.54C1082.46 166.54 1081.99 166.651 1081.57 166.874C1081.16 167.091 1080.83 167.394 1080.59 167.783C1080.35 168.166 1080.23 168.604 1080.23 169.097V176H1078.56ZM1090.07 180.318C1089.26 180.318 1088.56 180.214 1087.98 180.006C1087.4 179.802 1086.91 179.532 1086.53 179.196C1086.14 178.865 1085.84 178.509 1085.61 178.131L1086.95 177.193C1087.1 177.392 1087.29 177.619 1087.52 177.875C1087.75 178.135 1088.07 178.36 1088.47 178.55C1088.88 178.744 1089.41 178.841 1090.07 178.841C1090.95 178.841 1091.68 178.628 1092.25 178.202C1092.82 177.776 1093.11 177.108 1093.11 176.199V173.983H1092.97C1092.84 174.182 1092.67 174.428 1092.44 174.722C1092.22 175.01 1091.9 175.268 1091.48 175.496C1091.06 175.718 1090.5 175.83 1089.79 175.83C1088.91 175.83 1088.11 175.621 1087.41 175.205C1086.72 174.788 1086.17 174.182 1085.76 173.386C1085.36 172.591 1085.16 171.625 1085.16 170.489C1085.16 169.371 1085.35 168.398 1085.75 167.57C1086.14 166.736 1086.68 166.092 1087.39 165.638C1088.09 165.179 1088.9 164.949 1089.81 164.949C1090.52 164.949 1091.09 165.067 1091.5 165.304C1091.93 165.536 1092.25 165.801 1092.47 166.099C1092.7 166.393 1092.87 166.634 1093 166.824H1093.17V165.091H1094.79V176.312C1094.79 177.25 1094.57 178.012 1094.15 178.599C1093.73 179.191 1093.16 179.625 1092.44 179.899C1091.73 180.179 1090.94 180.318 1090.07 180.318ZM1090.01 174.324C1090.69 174.324 1091.25 174.17 1091.72 173.862C1092.18 173.554 1092.53 173.112 1092.78 172.534C1093.02 171.956 1093.14 171.265 1093.14 170.46C1093.14 169.674 1093.02 168.981 1092.78 168.379C1092.55 167.778 1092.2 167.307 1091.73 166.966C1091.27 166.625 1090.7 166.455 1090.01 166.455C1089.3 166.455 1088.71 166.634 1088.24 166.994C1087.77 167.354 1087.42 167.837 1087.18 168.443C1086.95 169.049 1086.83 169.722 1086.83 170.46C1086.83 171.218 1086.95 171.888 1087.19 172.47C1087.43 173.048 1087.78 173.502 1088.25 173.834C1088.73 174.161 1089.31 174.324 1090.01 174.324ZM1102.43 176.227C1101.38 176.227 1100.47 175.995 1099.71 175.531C1098.95 175.062 1098.37 174.409 1097.95 173.571C1097.55 172.728 1097.34 171.748 1097.34 170.631C1097.34 169.513 1097.55 168.528 1097.95 167.676C1098.37 166.819 1098.94 166.152 1099.67 165.673C1100.41 165.19 1101.27 164.949 1102.26 164.949C1102.83 164.949 1103.39 165.044 1103.94 165.233C1104.5 165.422 1105 165.73 1105.45 166.156C1105.91 166.578 1106.27 167.136 1106.54 167.832C1106.81 168.528 1106.95 169.385 1106.95 170.403V171.114H1098.54V169.665H1105.24C1105.24 169.049 1105.12 168.5 1104.87 168.017C1104.63 167.534 1104.28 167.153 1103.83 166.874C1103.39 166.594 1102.86 166.455 1102.26 166.455C1101.59 166.455 1101.01 166.62 1100.52 166.952C1100.04 167.278 1099.67 167.705 1099.41 168.23C1099.15 168.756 1099.02 169.319 1099.02 169.92V170.886C1099.02 171.71 1099.16 172.409 1099.45 172.982C1099.73 173.55 1100.13 173.983 1100.65 174.281C1101.16 174.575 1101.75 174.722 1102.43 174.722C1102.87 174.722 1103.27 174.66 1103.62 174.537C1103.98 174.409 1104.29 174.22 1104.55 173.969C1104.81 173.713 1105.01 173.396 1105.16 173.017L1106.77 173.472C1106.6 174.021 1106.32 174.504 1105.92 174.92C1105.51 175.332 1105.02 175.654 1104.42 175.886C1103.83 176.114 1103.17 176.227 1102.43 176.227Z" fill="black"/>
<path d="M1063.73 248.205L1056.63 239.927L1057.86 238.873L1058.97 240.166L1059.07 240.074C1058.87 239.484 1058.85 238.902 1059.03 238.327C1059.2 237.749 1059.55 237.229 1060.09 236.767C1060.64 236.298 1061.2 236.032 1061.78 235.968C1062.35 235.898 1062.93 235.996 1063.52 236.262L1063.6 236.188C1063.45 235.579 1063.47 234.966 1063.68 234.351C1063.89 233.732 1064.29 233.168 1064.88 232.659C1065.62 232.024 1066.42 231.736 1067.29 231.795C1068.16 231.851 1069.01 232.366 1069.84 233.34L1074.6 238.88L1073.33 239.972L1068.57 234.431C1068.05 233.821 1067.5 233.528 1066.95 233.552C1066.39 233.577 1065.88 233.783 1065.43 234.172C1064.85 234.671 1064.55 235.234 1064.53 235.861C1064.51 236.484 1064.73 237.063 1065.19 237.598L1069.81 242.988L1068.52 244.098L1063.65 238.428C1063.25 237.958 1062.77 237.71 1062.22 237.684C1061.66 237.655 1061.15 237.848 1060.66 238.261C1060.33 238.544 1060.1 238.898 1059.96 239.32C1059.83 239.74 1059.81 240.182 1059.9 240.646C1060 241.103 1060.22 241.534 1060.56 241.94L1065.01 247.114L1063.73 248.205ZM1080.54 234.077C1079.74 234.762 1078.91 235.177 1078.02 235.321C1077.14 235.459 1076.28 235.344 1075.42 234.976C1074.56 234.602 1073.77 233.991 1073.04 233.143C1072.31 232.295 1071.82 231.415 1071.58 230.503C1071.33 229.584 1071.33 228.705 1071.58 227.864C1071.82 227.016 1072.32 226.272 1073.07 225.63C1073.5 225.26 1073.99 224.967 1074.53 224.749C1075.07 224.532 1075.66 224.438 1076.28 224.465C1076.9 224.489 1077.54 224.677 1078.2 225.029C1078.85 225.381 1079.51 225.944 1080.18 226.716L1080.64 227.255L1074.26 232.732L1073.31 231.633L1078.4 227.266C1078 226.799 1077.55 226.462 1077.05 226.256C1076.55 226.047 1076.04 225.983 1075.52 226.064C1075 226.142 1074.51 226.378 1074.05 226.773C1073.54 227.208 1073.21 227.71 1073.06 228.279C1072.9 228.841 1072.9 229.407 1073.04 229.975C1073.19 230.543 1073.46 231.056 1073.85 231.512L1074.48 232.245C1075.01 232.87 1075.58 233.308 1076.16 233.557C1076.75 233.8 1077.34 233.869 1077.92 233.762C1078.5 233.652 1079.05 233.376 1079.56 232.935C1079.9 232.648 1080.16 232.342 1080.35 232.018C1080.54 231.686 1080.65 231.341 1080.68 230.981C1080.71 230.617 1080.66 230.245 1080.52 229.865L1082.05 229.155C1082.27 229.683 1082.37 230.236 1082.34 230.815C1082.3 231.389 1082.13 231.957 1081.83 232.519C1081.53 233.077 1081.1 233.596 1080.54 234.077ZM1085.76 229.302L1078.65 221.024L1079.88 219.97L1080.95 221.22L1081.04 221.146C1080.84 220.607 1080.83 220.04 1081 219.446C1081.18 218.852 1081.52 218.342 1082.01 217.916C1082.1 217.836 1082.22 217.737 1082.37 217.621C1082.51 217.504 1082.62 217.419 1082.7 217.364L1083.81 218.657C1083.76 218.684 1083.64 218.752 1083.47 218.863C1083.3 218.968 1083.13 219.092 1082.96 219.237C1082.56 219.583 1082.27 219.976 1082.1 220.416C1081.93 220.849 1081.88 221.292 1081.95 221.744C1082.02 222.189 1082.21 222.599 1082.53 222.972L1087.03 228.211L1085.76 229.302ZM1097.31 225.081C1096.69 225.608 1096.09 225.982 1095.52 226.204C1094.94 226.428 1094.4 226.54 1093.89 226.538C1093.38 226.536 1092.92 226.465 1092.5 226.326L1092.9 224.745C1093.14 224.797 1093.44 224.845 1093.78 224.887C1094.12 224.934 1094.51 224.898 1094.94 224.78C1095.38 224.662 1095.84 224.388 1096.34 223.96C1097.01 223.386 1097.42 222.751 1097.58 222.055C1097.74 221.358 1097.52 220.665 1096.93 219.975L1095.49 218.294L1095.38 218.386C1095.41 218.617 1095.44 218.918 1095.46 219.289C1095.48 219.653 1095.4 220.059 1095.23 220.506C1095.06 220.946 1094.71 221.397 1094.17 221.86C1093.5 222.433 1092.76 222.79 1091.96 222.93C1091.16 223.068 1090.35 222.967 1089.52 222.629C1088.7 222.287 1087.91 221.685 1087.17 220.823C1086.45 219.975 1085.96 219.109 1085.72 218.224C1085.48 217.336 1085.47 216.491 1085.71 215.69C1085.94 214.885 1086.4 214.183 1087.1 213.585C1087.64 213.122 1088.14 212.845 1088.62 212.753C1089.09 212.655 1089.5 212.646 1089.87 212.728C1090.23 212.803 1090.52 212.872 1090.74 212.935L1090.87 212.824L1089.74 211.509L1090.97 210.455L1098.27 218.97C1098.89 219.681 1099.22 220.398 1099.28 221.121C1099.34 221.845 1099.2 222.544 1098.83 223.218C1098.48 223.892 1097.97 224.513 1097.31 225.081ZM1093.36 220.569C1093.87 220.131 1094.2 219.644 1094.35 219.109C1094.5 218.573 1094.48 218.007 1094.29 217.412C1094.1 216.816 1093.74 216.213 1093.21 215.602C1092.7 215.006 1092.16 214.556 1091.59 214.254C1091.02 213.952 1090.44 213.823 1089.87 213.866C1089.3 213.91 1088.75 214.154 1088.23 214.598C1087.69 215.06 1087.36 215.582 1087.24 216.164C1087.12 216.742 1087.16 217.338 1087.38 217.952C1087.6 218.563 1087.95 219.149 1088.43 219.71C1088.92 220.285 1089.45 220.716 1090.01 221.004C1090.57 221.285 1091.13 221.398 1091.7 221.345C1092.27 221.284 1092.83 221.026 1093.36 220.569ZM1104.02 213.928C1103.22 214.612 1102.38 215.027 1101.5 215.171C1100.62 215.309 1099.75 215.194 1098.89 214.826C1098.04 214.452 1097.24 213.841 1096.51 212.993C1095.79 212.145 1095.3 211.265 1095.05 210.353C1094.81 209.435 1094.81 208.555 1095.05 207.714C1095.3 206.866 1095.8 206.122 1096.54 205.481C1096.97 205.11 1097.46 204.817 1098.01 204.6C1098.55 204.383 1099.13 204.288 1099.75 204.315C1100.37 204.339 1101.01 204.527 1101.67 204.879C1102.33 205.232 1102.99 205.794 1103.65 206.567L1104.12 207.105L1097.73 212.582L1096.79 211.483L1101.88 207.116C1101.48 206.649 1101.03 206.313 1100.52 206.106C1100.03 205.897 1099.52 205.833 1098.99 205.914C1098.47 205.992 1097.98 206.228 1097.52 206.623C1097.02 207.058 1096.69 207.56 1096.53 208.129C1096.38 208.691 1096.37 209.257 1096.52 209.825C1096.66 210.394 1096.93 210.906 1097.32 211.362L1097.95 212.095C1098.49 212.72 1099.05 213.158 1099.64 213.408C1100.23 213.651 1100.82 213.719 1101.4 213.612C1101.98 213.502 1102.52 213.226 1103.04 212.785C1103.37 212.498 1103.63 212.193 1103.82 211.868C1104.01 211.537 1104.12 211.191 1104.16 210.831C1104.19 210.467 1104.14 210.095 1104 209.715L1105.52 209.006C1105.75 209.534 1105.85 210.087 1105.81 210.665C1105.78 211.24 1105.61 211.808 1105.31 212.369C1105.01 212.927 1104.58 213.447 1104.02 213.928Z" fill="black"/>
<rect x="875.5" y="347.5" width="160" height="33" fill="#FEFE76" stroke="#FF0000" stroke-width="3"/>
<path d="M890.392 360.091V361.511H884.511V360.091H890.392ZM886.273 371V358.585C886.273 357.96 886.42 357.439 886.713 357.023C887.007 356.606 887.388 356.294 887.857 356.085C888.325 355.877 888.82 355.773 889.341 355.773C889.753 355.773 890.089 355.806 890.349 355.872C890.61 355.938 890.804 356 890.932 356.057L890.449 357.506C890.364 357.477 890.245 357.442 890.094 357.399C889.947 357.357 889.753 357.335 889.511 357.335C888.957 357.335 888.557 357.475 888.311 357.754C888.07 358.034 887.949 358.443 887.949 358.983V371H886.273ZM896.866 371.227C895.815 371.227 894.908 370.995 894.146 370.531C893.388 370.062 892.803 369.409 892.391 368.571C891.984 367.728 891.781 366.748 891.781 365.631C891.781 364.513 891.984 363.528 892.391 362.676C892.803 361.819 893.376 361.152 894.11 360.673C894.849 360.19 895.71 359.949 896.695 359.949C897.263 359.949 897.825 360.044 898.379 360.233C898.933 360.422 899.437 360.73 899.891 361.156C900.346 361.578 900.708 362.136 900.978 362.832C901.248 363.528 901.383 364.385 901.383 365.403V366.114H892.974V364.665H899.678C899.678 364.049 899.555 363.5 899.309 363.017C899.067 362.534 898.722 362.153 898.272 361.874C897.827 361.594 897.301 361.455 896.695 361.455C896.028 361.455 895.45 361.62 894.962 361.952C894.479 362.278 894.108 362.705 893.847 363.23C893.587 363.756 893.457 364.319 893.457 364.92V365.886C893.457 366.71 893.599 367.409 893.883 367.982C894.172 368.55 894.572 368.983 895.083 369.281C895.594 369.575 896.189 369.722 896.866 369.722C897.306 369.722 897.704 369.66 898.059 369.537C898.419 369.409 898.729 369.22 898.989 368.969C899.25 368.713 899.451 368.396 899.593 368.017L901.212 368.472C901.042 369.021 900.755 369.504 900.353 369.92C899.951 370.332 899.453 370.654 898.862 370.886C898.27 371.114 897.604 371.227 896.866 371.227ZM907.143 371.256C906.451 371.256 905.824 371.125 905.261 370.865C904.697 370.6 904.25 370.219 903.918 369.722C903.587 369.22 903.421 368.614 903.421 367.903C903.421 367.278 903.544 366.772 903.79 366.384C904.037 365.991 904.366 365.683 904.778 365.46C905.19 365.238 905.644 365.072 906.141 364.963C906.643 364.849 907.147 364.759 907.654 364.693C908.317 364.608 908.854 364.544 909.266 364.501C909.683 364.454 909.986 364.376 910.175 364.267C910.37 364.158 910.467 363.969 910.467 363.699V363.642C910.467 362.941 910.275 362.397 909.891 362.009C909.513 361.62 908.937 361.426 908.165 361.426C907.365 361.426 906.738 361.601 906.283 361.952C905.829 362.302 905.509 362.676 905.325 363.074L903.734 362.506C904.018 361.843 904.397 361.327 904.87 360.957C905.348 360.583 905.869 360.323 906.433 360.176C907.001 360.025 907.559 359.949 908.109 359.949C908.459 359.949 908.862 359.991 909.316 360.077C909.775 360.157 910.218 360.325 910.644 360.581C911.075 360.837 911.433 361.223 911.717 361.739C912.001 362.255 912.143 362.946 912.143 363.812V371H910.467V369.523H910.381C910.268 369.759 910.078 370.013 909.813 370.283C909.548 370.553 909.195 370.782 908.755 370.972C908.315 371.161 907.777 371.256 907.143 371.256ZM907.398 369.75C908.061 369.75 908.62 369.62 909.075 369.359C909.534 369.099 909.879 368.763 910.112 368.351C910.348 367.939 910.467 367.506 910.467 367.051V365.517C910.396 365.602 910.239 365.68 909.998 365.751C909.761 365.818 909.487 365.877 909.174 365.929C908.866 365.976 908.566 366.019 908.272 366.057C907.983 366.09 907.749 366.118 907.569 366.142C907.133 366.199 906.726 366.291 906.347 366.419C905.973 366.542 905.67 366.729 905.438 366.98C905.211 367.226 905.097 367.562 905.097 367.989C905.097 368.571 905.313 369.011 905.744 369.31C906.179 369.603 906.731 369.75 907.398 369.75ZM919.946 360.091V361.511H914.293V360.091H919.946ZM915.941 357.477H917.617V367.875C917.617 368.348 917.685 368.704 917.823 368.94C917.965 369.172 918.145 369.329 918.363 369.409C918.585 369.485 918.819 369.523 919.066 369.523C919.25 369.523 919.402 369.513 919.52 369.494C919.639 369.471 919.733 369.452 919.804 369.438L920.145 370.943C920.032 370.986 919.873 371.028 919.669 371.071C919.466 371.118 919.208 371.142 918.895 371.142C918.422 371.142 917.958 371.04 917.503 370.837C917.053 370.633 916.679 370.323 916.381 369.906C916.087 369.49 915.941 368.964 915.941 368.33V357.477ZM929.343 366.54V360.091H931.019V371H929.343V369.153H929.229C928.973 369.707 928.576 370.179 928.036 370.567C927.496 370.95 926.814 371.142 925.99 371.142C925.309 371.142 924.703 370.993 924.172 370.695C923.642 370.392 923.225 369.937 922.922 369.331C922.619 368.72 922.468 367.951 922.468 367.023V360.091H924.144V366.909C924.144 367.705 924.366 368.339 924.811 368.812C925.261 369.286 925.834 369.523 926.53 369.523C926.947 369.523 927.371 369.416 927.801 369.203C928.237 368.99 928.602 368.663 928.895 368.223C929.194 367.783 929.343 367.222 929.343 366.54ZM934.089 371V360.091H935.708V361.739H935.822C936.021 361.199 936.38 360.761 936.901 360.425C937.422 360.089 938.009 359.92 938.663 359.92C938.786 359.92 938.94 359.923 939.124 359.928C939.309 359.932 939.449 359.939 939.543 359.949V361.653C939.487 361.639 939.356 361.618 939.153 361.589C938.954 361.556 938.743 361.54 938.521 361.54C937.99 361.54 937.517 361.651 937.1 361.874C936.688 362.091 936.362 362.394 936.12 362.783C935.883 363.166 935.765 363.604 935.765 364.097V371H934.089ZM945.772 371.227C944.721 371.227 943.814 370.995 943.052 370.531C942.294 370.062 941.71 369.409 941.298 368.571C940.89 367.728 940.687 366.748 940.687 365.631C940.687 364.513 940.89 363.528 941.298 362.676C941.71 361.819 942.282 361.152 943.016 360.673C943.755 360.19 944.617 359.949 945.602 359.949C946.17 359.949 946.731 360.044 947.285 360.233C947.839 360.422 948.343 360.73 948.798 361.156C949.252 361.578 949.614 362.136 949.884 362.832C950.154 363.528 950.289 364.385 950.289 365.403V366.114H941.88V364.665H948.585C948.585 364.049 948.461 363.5 948.215 363.017C947.974 362.534 947.628 362.153 947.178 361.874C946.733 361.594 946.208 361.455 945.602 361.455C944.934 361.455 944.356 361.62 943.869 361.952C943.386 362.278 943.014 362.705 942.754 363.23C942.493 363.756 942.363 364.319 942.363 364.92V365.886C942.363 366.71 942.505 367.409 942.789 367.982C943.078 368.55 943.478 368.983 943.989 369.281C944.501 369.575 945.095 369.722 945.772 369.722C946.212 369.722 946.61 369.66 946.965 369.537C947.325 369.409 947.635 369.22 947.896 368.969C948.156 368.713 948.357 368.396 948.499 368.017L950.119 368.472C949.948 369.021 949.662 369.504 949.259 369.92C948.857 370.332 948.36 370.654 947.768 370.886C947.176 371.114 946.511 371.227 945.772 371.227ZM959.089 363.983V365.545H952.725V363.983H959.089ZM962.265 371V356.455H963.941V361.824H964.083C964.207 361.634 964.377 361.393 964.595 361.099C964.817 360.801 965.135 360.536 965.547 360.304C965.963 360.067 966.527 359.949 967.237 359.949C968.155 359.949 968.965 360.179 969.666 360.638C970.367 361.097 970.913 361.748 971.306 362.591C971.699 363.434 971.896 364.428 971.896 365.574C971.896 366.729 971.699 367.731 971.306 368.578C970.913 369.421 970.369 370.074 969.673 370.538C968.977 370.998 968.174 371.227 967.265 371.227C966.565 371.227 966.003 371.111 965.582 370.879C965.161 370.643 964.836 370.375 964.609 370.077C964.382 369.774 964.207 369.523 964.083 369.324H963.885V371H962.265ZM963.913 365.545C963.913 366.369 964.034 367.096 964.275 367.726C964.517 368.351 964.869 368.841 965.333 369.196C965.797 369.546 966.366 369.722 967.038 369.722C967.739 369.722 968.324 369.537 968.792 369.168C969.266 368.794 969.621 368.292 969.858 367.662C970.099 367.027 970.22 366.322 970.22 365.545C970.22 364.778 970.101 364.087 969.865 363.472C969.633 362.851 969.28 362.361 968.806 362.001C968.338 361.637 967.748 361.455 967.038 361.455C966.356 361.455 965.783 361.627 965.319 361.973C964.855 362.314 964.505 362.792 964.268 363.408C964.031 364.018 963.913 364.731 963.913 365.545ZM974.46 371V360.091H976.079V361.739H976.193C976.392 361.199 976.752 360.761 977.272 360.425C977.793 360.089 978.38 359.92 979.034 359.92C979.157 359.92 979.311 359.923 979.495 359.928C979.68 359.932 979.82 359.939 979.914 359.949V361.653C979.858 361.639 979.727 361.618 979.524 361.589C979.325 361.556 979.114 361.54 978.892 361.54C978.361 361.54 977.888 361.651 977.471 361.874C977.059 362.091 976.733 362.394 976.491 362.783C976.254 363.166 976.136 363.604 976.136 364.097V371H974.46ZM985.112 371.256C984.42 371.256 983.793 371.125 983.229 370.865C982.666 370.6 982.219 370.219 981.887 369.722C981.556 369.22 981.39 368.614 981.39 367.903C981.39 367.278 981.513 366.772 981.759 366.384C982.005 365.991 982.335 365.683 982.746 365.46C983.158 365.238 983.613 365.072 984.11 364.963C984.612 364.849 985.116 364.759 985.623 364.693C986.286 364.608 986.823 364.544 987.235 364.501C987.652 364.454 987.955 364.376 988.144 364.267C988.338 364.158 988.435 363.969 988.435 363.699V363.642C988.435 362.941 988.244 362.397 987.86 362.009C987.481 361.62 986.906 361.426 986.134 361.426C985.334 361.426 984.707 361.601 984.252 361.952C983.798 362.302 983.478 362.676 983.293 363.074L981.702 362.506C981.987 361.843 982.365 361.327 982.839 360.957C983.317 360.583 983.838 360.323 984.401 360.176C984.969 360.025 985.528 359.949 986.077 359.949C986.428 359.949 986.83 359.991 987.285 360.077C987.744 360.157 988.187 360.325 988.613 360.581C989.044 360.837 989.401 361.223 989.685 361.739C989.969 362.255 990.112 362.946 990.112 363.812V371H988.435V369.523H988.35C988.237 369.759 988.047 370.013 987.782 370.283C987.517 370.553 987.164 370.782 986.724 370.972C986.283 371.161 985.746 371.256 985.112 371.256ZM985.367 369.75C986.03 369.75 986.589 369.62 987.043 369.359C987.503 369.099 987.848 368.763 988.08 368.351C988.317 367.939 988.435 367.506 988.435 367.051V365.517C988.364 365.602 988.208 365.68 987.967 365.751C987.73 365.818 987.455 365.877 987.143 365.929C986.835 365.976 986.534 366.019 986.241 366.057C985.952 366.09 985.718 366.118 985.538 366.142C985.102 366.199 984.695 366.291 984.316 366.419C983.942 366.542 983.639 366.729 983.407 366.98C983.18 367.226 983.066 367.562 983.066 367.989C983.066 368.571 983.281 369.011 983.712 369.31C984.148 369.603 984.7 369.75 985.367 369.75ZM994.847 364.438V371H993.171V360.091H994.79V361.795H994.932C995.188 361.241 995.576 360.796 996.097 360.46C996.618 360.119 997.29 359.949 998.114 359.949C998.853 359.949 999.499 360.1 1000.05 360.403C1000.61 360.702 1001.04 361.156 1001.35 361.767C1001.65 362.373 1001.81 363.14 1001.81 364.068V371H1000.13V364.182C1000.13 363.325 999.908 362.657 999.463 362.179C999.018 361.696 998.408 361.455 997.631 361.455C997.096 361.455 996.618 361.571 996.196 361.803C995.78 362.035 995.451 362.373 995.209 362.818C994.968 363.263 994.847 363.803 994.847 364.438ZM1009.3 371.227C1008.28 371.227 1007.4 370.986 1006.66 370.503C1005.92 370.02 1005.35 369.355 1004.96 368.507C1004.56 367.66 1004.36 366.691 1004.36 365.602C1004.36 364.494 1004.56 363.517 1004.97 362.669C1005.38 361.817 1005.95 361.152 1006.69 360.673C1007.43 360.19 1008.29 359.949 1009.27 359.949C1010.04 359.949 1010.73 360.091 1011.35 360.375C1011.96 360.659 1012.47 361.057 1012.86 361.568C1013.25 362.08 1013.5 362.676 1013.59 363.358H1011.92C1011.79 362.861 1011.5 362.42 1011.06 362.037C1010.63 361.649 1010.04 361.455 1009.3 361.455C1008.65 361.455 1008.08 361.625 1007.58 361.966C1007.1 362.302 1006.71 362.778 1006.44 363.393C1006.17 364.004 1006.03 364.722 1006.03 365.545C1006.03 366.388 1006.17 367.122 1006.43 367.747C1006.7 368.372 1007.08 368.857 1007.57 369.203C1008.06 369.549 1008.64 369.722 1009.3 369.722C1009.74 369.722 1010.13 369.646 1010.49 369.494C1010.84 369.343 1011.14 369.125 1011.39 368.841C1011.64 368.557 1011.81 368.216 1011.92 367.818H1013.59C1013.5 368.462 1013.26 369.042 1012.89 369.558C1012.52 370.07 1012.03 370.477 1011.42 370.78C1010.81 371.078 1010.11 371.227 1009.3 371.227ZM1017.72 364.438V371H1016.04V356.455H1017.72V361.795H1017.86C1018.12 361.232 1018.5 360.785 1019.01 360.453C1019.53 360.117 1020.21 359.949 1021.07 359.949C1021.81 359.949 1022.46 360.098 1023.02 360.396C1023.58 360.69 1024.02 361.142 1024.32 361.753C1024.64 362.359 1024.79 363.131 1024.79 364.068V371H1023.12V364.182C1023.12 363.315 1022.89 362.645 1022.44 362.172C1022 361.694 1021.38 361.455 1020.59 361.455C1020.04 361.455 1019.55 361.571 1019.11 361.803C1018.68 362.035 1018.34 362.373 1018.09 362.818C1017.84 363.263 1017.72 363.803 1017.72 364.438Z" fill="black"/>
</svg>
