<svg width="1071" height="457" viewBox="0 0 1071 457" fill="none" xmlns="http://www.w3.org/2000/svg">
<rect x="907.5" y="347.5" width="96" height="56" fill="#FEFE76" stroke="#FF0000" stroke-width="3"/>
<path d="M945.523 391V361.909H963.08V365.034H949.045V374.125H956.432C958.515 374.125 960.272 374.466 961.702 375.148C963.141 375.83 964.23 376.791 964.969 378.031C965.717 379.272 966.091 380.735 966.091 382.42C966.091 384.106 965.717 385.593 964.969 386.881C964.23 388.169 963.141 389.177 961.702 389.906C960.272 390.635 958.515 391 956.432 391H945.523ZM949.045 387.932H956.432C957.758 387.932 958.88 387.667 959.798 387.136C960.726 386.597 961.427 385.905 961.901 385.062C962.384 384.21 962.625 383.311 962.625 382.364C962.625 380.972 962.09 379.774 961.02 378.77C959.95 377.757 958.42 377.25 956.432 377.25H949.045V387.932Z" fill="black"/>
<rect x="698.5" y="59.5" width="96" height="56" fill="#76D1FE" stroke="#FF0000" stroke-width="3"/>
<path d="M737.716 103H734.023L744.705 73.9091H748.341L759.023 103H755.33L746.636 78.5114H746.409L737.716 103ZM739.08 91.6364H753.966V94.7614H739.08V91.6364Z" fill="black"/>
<path d="M747 147L755.66 132H738.34L747 147ZM747 117H745.5V133.5H747H748.5V117H747Z" fill="#FF0000"/>
<path d="M956 316L947.34 331H964.66L956 316ZM956 346H957.5V329.5H956H954.5V346H956Z" fill="#FF0000"/>
<rect x="32.5" y="147.5" width="166" height="71" rx="19.5" fill="#76D1FE" stroke="#897F7F"/>
<path d="M61.5341 190V179.091H63.2102V183.835H64.3182L68.2386 179.091H70.3977L65.9943 184.347L70.4545 190H68.2955L64.7159 185.398H63.2102V190H61.5341ZM76.2589 190.227C75.274 190.227 74.4099 189.993 73.6665 189.524C72.9279 189.055 72.3503 188.4 71.9336 187.557C71.5217 186.714 71.3157 185.729 71.3157 184.602C71.3157 183.466 71.5217 182.474 71.9336 181.626C72.3503 180.779 72.9279 180.121 73.6665 179.652C74.4099 179.183 75.274 178.949 76.2589 178.949C77.2437 178.949 78.1055 179.183 78.8441 179.652C79.5875 180.121 80.1651 180.779 80.5771 181.626C80.9937 182.474 81.2021 183.466 81.2021 184.602C81.2021 185.729 80.9937 186.714 80.5771 187.557C80.1651 188.4 79.5875 189.055 78.8441 189.524C78.1055 189.993 77.2437 190.227 76.2589 190.227ZM76.2589 188.722C77.007 188.722 77.6225 188.53 78.1055 188.146C78.5884 187.763 78.9459 187.259 79.1779 186.634C79.4099 186.009 79.5259 185.331 79.5259 184.602C79.5259 183.873 79.4099 183.194 79.1779 182.564C78.9459 181.934 78.5884 181.425 78.1055 181.037C77.6225 180.649 77.007 180.455 76.2589 180.455C75.5108 180.455 74.8952 180.649 74.4123 181.037C73.9293 181.425 73.5719 181.934 73.3398 182.564C73.1078 183.194 72.9918 183.873 72.9918 184.602C72.9918 185.331 73.1078 186.009 73.3398 186.634C73.5719 187.259 73.9293 187.763 74.4123 188.146C74.8952 188.53 75.5108 188.722 76.2589 188.722ZM89.7266 187.727L93.5334 179.091H95.1243L90.4084 190H89.0447L84.4141 179.091H85.9766L89.7266 187.727ZM85.4368 179.091V190H83.7607V179.091H85.4368ZM94.0163 190V179.091H95.6925V190H94.0163ZM104.727 187.727L108.533 179.091H110.124L105.408 190H104.045L99.4141 179.091H100.977L104.727 187.727ZM100.437 179.091V190H98.7607V179.091H100.437ZM109.016 190V179.091H110.692V190H109.016ZM115.437 187.528L120.692 179.091H122.624V190H120.948V181.562L115.721 190H113.761V179.091H115.437V187.528ZM124.21 180.653V179.091H133.074V180.653H129.494V190H127.818V180.653H124.21ZM141.967 190H140.121L145.462 175.455H147.28L152.621 190H150.774L146.428 177.756H146.314L141.967 190ZM142.649 184.318H150.092V185.881H142.649V184.318ZM160.909 181.946V183.509H154.545V181.946H160.909ZM168.944 175.455V190H167.182V177.301H167.097L163.546 179.659V177.869L167.182 175.455H168.944Z" fill="black"/>
<rect x="242.5" y="147.5" width="166" height="71" rx="19.5" fill="#76D1FE" stroke="#897F7F"/>
<path d="M271.534 190V179.091H273.21V183.835H274.318L278.239 179.091H280.398L275.994 184.347L280.455 190H278.295L274.716 185.398H273.21V190H271.534ZM286.259 190.227C285.274 190.227 284.41 189.993 283.667 189.524C282.928 189.055 282.35 188.4 281.934 187.557C281.522 186.714 281.316 185.729 281.316 184.602C281.316 183.466 281.522 182.474 281.934 181.626C282.35 180.779 282.928 180.121 283.667 179.652C284.41 179.183 285.274 178.949 286.259 178.949C287.244 178.949 288.105 179.183 288.844 179.652C289.587 180.121 290.165 180.779 290.577 181.626C290.994 182.474 291.202 183.466 291.202 184.602C291.202 185.729 290.994 186.714 290.577 187.557C290.165 188.4 289.587 189.055 288.844 189.524C288.105 189.993 287.244 190.227 286.259 190.227ZM286.259 188.722C287.007 188.722 287.623 188.53 288.105 188.146C288.588 187.763 288.946 187.259 289.178 186.634C289.41 186.009 289.526 185.331 289.526 184.602C289.526 183.873 289.41 183.194 289.178 182.564C288.946 181.934 288.588 181.425 288.105 181.037C287.623 180.649 287.007 180.455 286.259 180.455C285.511 180.455 284.895 180.649 284.412 181.037C283.929 181.425 283.572 181.934 283.34 182.564C283.108 183.194 282.992 183.873 282.992 184.602C282.992 185.331 283.108 186.009 283.34 186.634C283.572 187.259 283.929 187.763 284.412 188.146C284.895 188.53 285.511 188.722 286.259 188.722ZM299.727 187.727L303.533 179.091H305.124L300.408 190H299.045L294.414 179.091H295.977L299.727 187.727ZM295.437 179.091V190H293.761V179.091H295.437ZM304.016 190V179.091H305.692V190H304.016ZM314.727 187.727L318.533 179.091H320.124L315.408 190H314.045L309.414 179.091H310.977L314.727 187.727ZM310.437 179.091V190H308.761V179.091H310.437ZM319.016 190V179.091H320.692V190H319.016ZM325.437 187.528L330.692 179.091H332.624V190H330.948V181.562L325.721 190H323.761V179.091H325.437V187.528ZM334.21 180.653V179.091H343.074V180.653H339.494V190H337.818V180.653H334.21ZM351.967 190H350.121L355.462 175.455H357.28L362.621 190H360.774L356.428 177.756H356.314L351.967 190ZM352.649 184.318H360.092V185.881H352.649V184.318ZM370.909 181.946V183.509H364.545V181.946H370.909ZM373.146 190V188.722L377.947 183.466C378.511 182.85 378.975 182.315 379.339 181.861C379.704 181.402 379.974 180.971 380.149 180.568C380.329 180.161 380.419 179.735 380.419 179.29C380.419 178.778 380.296 178.336 380.05 177.962C379.808 177.588 379.477 177.299 379.055 177.095C378.634 176.892 378.161 176.79 377.635 176.79C377.076 176.79 376.589 176.906 376.172 177.138C375.76 177.365 375.44 177.685 375.213 178.097C374.991 178.509 374.879 178.991 374.879 179.545H373.203C373.203 178.693 373.4 177.945 373.793 177.301C374.186 176.657 374.721 176.155 375.398 175.795C376.08 175.436 376.844 175.256 377.692 175.256C378.544 175.256 379.299 175.436 379.957 175.795C380.616 176.155 381.132 176.641 381.506 177.251C381.88 177.862 382.067 178.542 382.067 179.29C382.067 179.825 381.97 180.348 381.776 180.859C381.586 181.366 381.255 181.932 380.781 182.557C380.312 183.177 379.661 183.935 378.828 184.83L375.561 188.324V188.438H382.322V190H373.146Z" fill="black"/>
<rect x="452.5" y="147.5" width="166" height="71" rx="19.5" fill="#76D1FE" stroke="#897F7F"/>
<path d="M481.534 190V179.091H483.21V183.835H484.318L488.239 179.091H490.398L485.994 184.347L490.455 190H488.295L484.716 185.398H483.21V190H481.534ZM496.259 190.227C495.274 190.227 494.41 189.993 493.667 189.524C492.928 189.055 492.35 188.4 491.934 187.557C491.522 186.714 491.316 185.729 491.316 184.602C491.316 183.466 491.522 182.474 491.934 181.626C492.35 180.779 492.928 180.121 493.667 179.652C494.41 179.183 495.274 178.949 496.259 178.949C497.244 178.949 498.105 179.183 498.844 179.652C499.587 180.121 500.165 180.779 500.577 181.626C500.994 182.474 501.202 183.466 501.202 184.602C501.202 185.729 500.994 186.714 500.577 187.557C500.165 188.4 499.587 189.055 498.844 189.524C498.105 189.993 497.244 190.227 496.259 190.227ZM496.259 188.722C497.007 188.722 497.623 188.53 498.105 188.146C498.588 187.763 498.946 187.259 499.178 186.634C499.41 186.009 499.526 185.331 499.526 184.602C499.526 183.873 499.41 183.194 499.178 182.564C498.946 181.934 498.588 181.425 498.105 181.037C497.623 180.649 497.007 180.455 496.259 180.455C495.511 180.455 494.895 180.649 494.412 181.037C493.929 181.425 493.572 181.934 493.34 182.564C493.108 183.194 492.992 183.873 492.992 184.602C492.992 185.331 493.108 186.009 493.34 186.634C493.572 187.259 493.929 187.763 494.412 188.146C494.895 188.53 495.511 188.722 496.259 188.722ZM509.727 187.727L513.533 179.091H515.124L510.408 190H509.045L504.414 179.091H505.977L509.727 187.727ZM505.437 179.091V190H503.761V179.091H505.437ZM514.016 190V179.091H515.692V190H514.016ZM524.727 187.727L528.533 179.091H530.124L525.408 190H524.045L519.414 179.091H520.977L524.727 187.727ZM520.437 179.091V190H518.761V179.091H520.437ZM529.016 190V179.091H530.692V190H529.016ZM535.437 187.528L540.692 179.091H542.624V190H540.948V181.562L535.721 190H533.761V179.091H535.437V187.528ZM544.21 180.653V179.091H553.074V180.653H549.494V190H547.818V180.653H544.21ZM561.967 190H560.121L565.462 175.455H567.28L572.621 190H570.774L566.428 177.756H566.314L561.967 190ZM562.649 184.318H570.092V185.881H562.649V184.318ZM580.909 181.946V183.509H574.545V181.946H580.909ZM588.51 190.199C587.573 190.199 586.737 190.038 586.003 189.716C585.274 189.394 584.694 188.946 584.263 188.374C583.837 187.796 583.605 187.126 583.567 186.364H585.357C585.395 186.832 585.556 187.237 585.84 187.578C586.124 187.914 586.496 188.175 586.955 188.359C587.414 188.544 587.923 188.636 588.482 188.636C589.107 188.636 589.661 188.527 590.144 188.31C590.627 188.092 591.006 187.789 591.28 187.401C591.555 187.012 591.692 186.562 591.692 186.051C591.692 185.516 591.56 185.045 591.294 184.638C591.029 184.226 590.641 183.904 590.13 183.672C589.618 183.44 588.993 183.324 588.255 183.324H587.09V181.761H588.255C588.832 181.761 589.339 181.657 589.775 181.449C590.215 181.241 590.558 180.947 590.804 180.568C591.055 180.189 591.181 179.744 591.181 179.233C591.181 178.741 591.072 178.312 590.854 177.947C590.636 177.583 590.328 177.299 589.931 177.095C589.538 176.892 589.074 176.79 588.539 176.79C588.037 176.79 587.563 176.882 587.118 177.067C586.678 177.247 586.318 177.509 586.039 177.855C585.759 178.196 585.608 178.608 585.584 179.091H583.88C583.908 178.329 584.138 177.661 584.569 177.088C584.999 176.51 585.563 176.061 586.259 175.739C586.96 175.417 587.729 175.256 588.567 175.256C589.467 175.256 590.239 175.438 590.882 175.803C591.526 176.162 592.021 176.638 592.367 177.23C592.712 177.822 592.885 178.461 592.885 179.148C592.885 179.967 592.67 180.665 592.239 181.243C591.813 181.821 591.233 182.221 590.499 182.443V182.557C591.417 182.708 592.135 183.099 592.651 183.729C593.167 184.354 593.425 185.128 593.425 186.051C593.425 186.842 593.21 187.552 592.779 188.182C592.353 188.807 591.77 189.299 591.032 189.659C590.293 190.019 589.453 190.199 588.51 190.199Z" fill="black"/>
<rect x="452.5" y="244.5" width="166" height="71" rx="19.5" fill="#FEFE76" stroke="#897F7F"/>
<path d="M481.534 287V276.091H483.21V280.835H484.318L488.239 276.091H490.398L485.994 281.347L490.455 287H488.295L484.716 282.398H483.21V287H481.534ZM496.259 287.227C495.274 287.227 494.41 286.993 493.667 286.524C492.928 286.055 492.35 285.4 491.934 284.557C491.522 283.714 491.316 282.729 491.316 281.602C491.316 280.466 491.522 279.474 491.934 278.626C492.35 277.779 492.928 277.121 493.667 276.652C494.41 276.183 495.274 275.949 496.259 275.949C497.244 275.949 498.105 276.183 498.844 276.652C499.587 277.121 500.165 277.779 500.577 278.626C500.994 279.474 501.202 280.466 501.202 281.602C501.202 282.729 500.994 283.714 500.577 284.557C500.165 285.4 499.587 286.055 498.844 286.524C498.105 286.993 497.244 287.227 496.259 287.227ZM496.259 285.722C497.007 285.722 497.623 285.53 498.105 285.146C498.588 284.763 498.946 284.259 499.178 283.634C499.41 283.009 499.526 282.331 499.526 281.602C499.526 280.873 499.41 280.194 499.178 279.564C498.946 278.934 498.588 278.425 498.105 278.037C497.623 277.649 497.007 277.455 496.259 277.455C495.511 277.455 494.895 277.649 494.412 278.037C493.929 278.425 493.572 278.934 493.34 279.564C493.108 280.194 492.992 280.873 492.992 281.602C492.992 282.331 493.108 283.009 493.34 283.634C493.572 284.259 493.929 284.763 494.412 285.146C494.895 285.53 495.511 285.722 496.259 285.722ZM509.727 284.727L513.533 276.091H515.124L510.408 287H509.045L504.414 276.091H505.977L509.727 284.727ZM505.437 276.091V287H503.761V276.091H505.437ZM514.016 287V276.091H515.692V287H514.016ZM524.727 284.727L528.533 276.091H530.124L525.408 287H524.045L519.414 276.091H520.977L524.727 284.727ZM520.437 276.091V287H518.761V276.091H520.437ZM529.016 287V276.091H530.692V287H529.016ZM535.437 284.528L540.692 276.091H542.624V287H540.948V278.562L535.721 287H533.761V276.091H535.437V284.528ZM544.21 277.653V276.091H553.074V277.653H549.494V287H547.818V277.653H544.21ZM561.371 287V272.455H570.149V274.017H563.132V278.562H566.825C567.867 278.562 568.745 278.733 569.46 279.074C570.18 279.415 570.724 279.895 571.094 280.516C571.468 281.136 571.655 281.867 571.655 282.71C571.655 283.553 571.468 284.296 571.094 284.94C570.724 285.584 570.18 286.089 569.46 286.453C568.745 286.818 567.867 287 566.825 287H561.371ZM563.132 285.466H566.825C567.488 285.466 568.049 285.333 568.509 285.068C568.973 284.798 569.323 284.453 569.56 284.031C569.801 283.605 569.922 283.155 569.922 282.682C569.922 281.986 569.654 281.387 569.119 280.885C568.584 280.378 567.82 280.125 566.825 280.125H563.132V285.466ZM580.577 278.946V280.509H574.213V278.946H580.577ZM588.612 272.455V287H586.85V274.301H586.765L583.214 276.659V274.869L586.85 272.455H588.612Z" fill="black"/>
<path d="M242.707 183.707C243.098 183.317 243.098 182.683 242.707 182.293L236.343 175.929C235.953 175.538 235.319 175.538 234.929 175.929C234.538 176.319 234.538 176.953 234.929 177.343L240.586 183L234.929 188.657C234.538 189.047 234.538 189.681 234.929 190.071C235.319 190.462 235.953 190.462 236.343 190.071L242.707 183.707ZM199 183V184H201.15V183V182H199V183ZM205.45 183V184H209.75V183V182H205.45V183ZM214.05 183V184H218.35V183V182H214.05V183ZM222.65 183V184H226.95V183V182H222.65V183ZM231.25 183V184H235.55V183V182H231.25V183ZM239.85 183V184H242V183V182H239.85V183ZM242.707 183.707C243.098 183.317 243.098 182.683 242.707 182.293L236.343 175.929C235.953 175.538 235.319 175.538 234.929 175.929C234.538 176.319 234.538 176.953 234.929 177.343L240.586 183L234.929 188.657C234.538 189.047 234.538 189.681 234.929 190.071C235.319 190.462 235.953 190.462 236.343 190.071L242.707 183.707ZM199 183V184H201.15V183V182H199V183ZM205.45 183V184H209.75V183V182H205.45V183ZM214.05 183V184H218.35V183V182H214.05V183ZM222.65 183V184H226.95V183V182H222.65V183ZM231.25 183V184H235.55V183V182H231.25V183ZM239.85 183V184H242V183V182H239.85V183Z" fill="black"/>
<path d="M453.707 183.707C454.098 183.317 454.098 182.683 453.707 182.293L447.343 175.929C446.953 175.538 446.319 175.538 445.929 175.929C445.538 176.319 445.538 176.953 445.929 177.343L451.586 183L445.929 188.657C445.538 189.047 445.538 189.681 445.929 190.071C446.319 190.462 446.953 190.462 447.343 190.071L453.707 183.707ZM410 183V184H412.15V183V182H410V183ZM416.45 183V184H420.75V183V182H416.45V183ZM425.05 183V184H429.35V183V182H425.05V183ZM433.65 183V184H437.95V183V182H433.65V183ZM442.25 183V184H446.55V183V182H442.25V183ZM450.85 183V184H453V183V182H450.85V183ZM453.707 183.707C454.098 183.317 454.098 182.683 453.707 182.293L447.343 175.929C446.953 175.538 446.319 175.538 445.929 175.929C445.538 176.319 445.538 176.953 445.929 177.343L451.586 183L445.929 188.657C445.538 189.047 445.538 189.681 445.929 190.071C446.319 190.462 446.953 190.462 447.343 190.071L453.707 183.707ZM410 183V184H412.15V183V182H410V183ZM416.45 183V184H420.75V183V182H416.45V183ZM425.05 183V184H429.35V183V182H425.05V183ZM433.65 183V184H437.95V183V182H433.65V183ZM442.25 183V184H446.55V183V182H442.25V183ZM450.85 183V184H453V183V182H450.85V183Z" fill="black"/>
<rect x="661.5" y="244.5" width="166" height="71" rx="19.5" fill="#FEFE76" stroke="#897F7F"/>
<path d="M690.534 287V276.091H692.21V280.835H693.318L697.239 276.091H699.398L694.994 281.347L699.455 287H697.295L693.716 282.398H692.21V287H690.534ZM705.259 287.227C704.274 287.227 703.41 286.993 702.667 286.524C701.928 286.055 701.35 285.4 700.934 284.557C700.522 283.714 700.316 282.729 700.316 281.602C700.316 280.466 700.522 279.474 700.934 278.626C701.35 277.779 701.928 277.121 702.667 276.652C703.41 276.183 704.274 275.949 705.259 275.949C706.244 275.949 707.105 276.183 707.844 276.652C708.587 277.121 709.165 277.779 709.577 278.626C709.994 279.474 710.202 280.466 710.202 281.602C710.202 282.729 709.994 283.714 709.577 284.557C709.165 285.4 708.587 286.055 707.844 286.524C707.105 286.993 706.244 287.227 705.259 287.227ZM705.259 285.722C706.007 285.722 706.623 285.53 707.105 285.146C707.588 284.763 707.946 284.259 708.178 283.634C708.41 283.009 708.526 282.331 708.526 281.602C708.526 280.873 708.41 280.194 708.178 279.564C707.946 278.934 707.588 278.425 707.105 278.037C706.623 277.649 706.007 277.455 705.259 277.455C704.511 277.455 703.895 277.649 703.412 278.037C702.929 278.425 702.572 278.934 702.34 279.564C702.108 280.194 701.992 280.873 701.992 281.602C701.992 282.331 702.108 283.009 702.34 283.634C702.572 284.259 702.929 284.763 703.412 285.146C703.895 285.53 704.511 285.722 705.259 285.722ZM718.727 284.727L722.533 276.091H724.124L719.408 287H718.045L713.414 276.091H714.977L718.727 284.727ZM714.437 276.091V287H712.761V276.091H714.437ZM723.016 287V276.091H724.692V287H723.016ZM733.727 284.727L737.533 276.091H739.124L734.408 287H733.045L728.414 276.091H729.977L733.727 284.727ZM729.437 276.091V287H727.761V276.091H729.437ZM738.016 287V276.091H739.692V287H738.016ZM744.437 284.528L749.692 276.091H751.624V287H749.948V278.562L744.721 287H742.761V276.091H744.437V284.528ZM753.21 277.653V276.091H762.074V277.653H758.494V287H756.818V277.653H753.21ZM770.371 287V272.455H779.149V274.017H772.132V278.562H775.825C776.867 278.562 777.745 278.733 778.46 279.074C779.18 279.415 779.724 279.895 780.094 280.516C780.468 281.136 780.655 281.867 780.655 282.71C780.655 283.553 780.468 284.296 780.094 284.94C779.724 285.584 779.18 286.089 778.46 286.453C777.745 286.818 776.867 287 775.825 287H770.371ZM772.132 285.466H775.825C776.488 285.466 777.049 285.333 777.509 285.068C777.973 284.798 778.323 284.453 778.56 284.031C778.801 283.605 778.922 283.155 778.922 282.682C778.922 281.986 778.654 281.387 778.119 280.885C777.584 280.378 776.82 280.125 775.825 280.125H772.132V285.466ZM789.577 278.946V280.509H783.213V278.946H789.577ZM791.814 287V285.722L796.615 280.466C797.179 279.85 797.643 279.315 798.007 278.861C798.372 278.402 798.642 277.971 798.817 277.568C798.997 277.161 799.087 276.735 799.087 276.29C799.087 275.778 798.964 275.336 798.718 274.962C798.476 274.588 798.145 274.299 797.723 274.095C797.302 273.892 796.828 273.79 796.303 273.79C795.744 273.79 795.257 273.906 794.84 274.138C794.428 274.365 794.108 274.685 793.881 275.097C793.658 275.509 793.547 275.991 793.547 276.545H791.871C791.871 275.693 792.068 274.945 792.461 274.301C792.854 273.657 793.389 273.155 794.066 272.795C794.748 272.436 795.512 272.256 796.36 272.256C797.212 272.256 797.967 272.436 798.625 272.795C799.283 273.155 799.8 273.641 800.174 274.251C800.548 274.862 800.735 275.542 800.735 276.29C800.735 276.825 800.638 277.348 800.444 277.859C800.254 278.366 799.923 278.932 799.449 279.557C798.98 280.177 798.329 280.935 797.496 281.83L794.229 285.324V285.438H800.99V287H791.814Z" fill="black"/>
<path d="M662.707 280.707C663.098 280.317 663.098 279.683 662.707 279.293L656.343 272.929C655.953 272.538 655.319 272.538 654.929 272.929C654.538 273.319 654.538 273.953 654.929 274.343L660.586 280L654.929 285.657C654.538 286.047 654.538 286.681 654.929 287.071C655.319 287.462 655.953 287.462 656.343 287.071L662.707 280.707ZM619 280V281H621.15V280V279H619V280ZM625.45 280V281H629.75V280V279H625.45V280ZM634.05 280V281H638.35V280V279H634.05V280ZM642.65 280V281H646.95V280V279H642.65V280ZM651.25 280V281H655.55V280V279H651.25V280ZM659.85 280V281H662V280V279H659.85V280ZM662.707 280.707C663.098 280.317 663.098 279.683 662.707 279.293L656.343 272.929C655.953 272.538 655.319 272.538 654.929 272.929C654.538 273.319 654.538 273.953 654.929 274.343L660.586 280L654.929 285.657C654.538 286.047 654.538 286.681 654.929 287.071C655.319 287.462 655.953 287.462 656.343 287.071L662.707 280.707ZM619 280V281H621.15V280V279H619V280ZM625.45 280V281H629.75V280V279H625.45V280ZM634.05 280V281H638.35V280V279H634.05V280ZM642.65 280V281H646.95V280V279H642.65V280ZM651.25 280V281H655.55V280V279H651.25V280ZM659.85 280V281H662V280V279H659.85V280Z" fill="black"/>
<rect x="870.5" y="244.5" width="166" height="71" rx="19.5" fill="#FEFE76" stroke="#897F7F"/>
<path d="M899.534 287V276.091H901.21V280.835H902.318L906.239 276.091H908.398L903.994 281.347L908.455 287H906.295L902.716 282.398H901.21V287H899.534ZM914.259 287.227C913.274 287.227 912.41 286.993 911.667 286.524C910.928 286.055 910.35 285.4 909.934 284.557C909.522 283.714 909.316 282.729 909.316 281.602C909.316 280.466 909.522 279.474 909.934 278.626C910.35 277.779 910.928 277.121 911.667 276.652C912.41 276.183 913.274 275.949 914.259 275.949C915.244 275.949 916.105 276.183 916.844 276.652C917.587 277.121 918.165 277.779 918.577 278.626C918.994 279.474 919.202 280.466 919.202 281.602C919.202 282.729 918.994 283.714 918.577 284.557C918.165 285.4 917.587 286.055 916.844 286.524C916.105 286.993 915.244 287.227 914.259 287.227ZM914.259 285.722C915.007 285.722 915.623 285.53 916.105 285.146C916.588 284.763 916.946 284.259 917.178 283.634C917.41 283.009 917.526 282.331 917.526 281.602C917.526 280.873 917.41 280.194 917.178 279.564C916.946 278.934 916.588 278.425 916.105 278.037C915.623 277.649 915.007 277.455 914.259 277.455C913.511 277.455 912.895 277.649 912.412 278.037C911.929 278.425 911.572 278.934 911.34 279.564C911.108 280.194 910.992 280.873 910.992 281.602C910.992 282.331 911.108 283.009 911.34 283.634C911.572 284.259 911.929 284.763 912.412 285.146C912.895 285.53 913.511 285.722 914.259 285.722ZM927.727 284.727L931.533 276.091H933.124L928.408 287H927.045L922.414 276.091H923.977L927.727 284.727ZM923.437 276.091V287H921.761V276.091H923.437ZM932.016 287V276.091H933.692V287H932.016ZM942.727 284.727L946.533 276.091H948.124L943.408 287H942.045L937.414 276.091H938.977L942.727 284.727ZM938.437 276.091V287H936.761V276.091H938.437ZM947.016 287V276.091H948.692V287H947.016ZM953.437 284.528L958.692 276.091H960.624V287H958.948V278.562L953.721 287H951.761V276.091H953.437V284.528ZM962.21 277.653V276.091H971.074V277.653H967.494V287H965.818V277.653H962.21ZM979.371 287V272.455H988.149V274.017H981.132V278.562H984.825C985.867 278.562 986.745 278.733 987.46 279.074C988.18 279.415 988.724 279.895 989.094 280.516C989.468 281.136 989.655 281.867 989.655 282.71C989.655 283.553 989.468 284.296 989.094 284.94C988.724 285.584 988.18 286.089 987.46 286.453C986.745 286.818 985.867 287 984.825 287H979.371ZM981.132 285.466H984.825C985.488 285.466 986.049 285.333 986.509 285.068C986.973 284.798 987.323 284.453 987.56 284.031C987.801 283.605 987.922 283.155 987.922 282.682C987.922 281.986 987.654 281.387 987.119 280.885C986.584 280.378 985.82 280.125 984.825 280.125H981.132V285.466ZM998.577 278.946V280.509H992.213V278.946H998.577ZM1006.18 287.199C1005.24 287.199 1004.41 287.038 1003.67 286.716C1002.94 286.394 1002.36 285.946 1001.93 285.374C1001.5 284.796 1001.27 284.126 1001.24 283.364H1003.02C1003.06 283.832 1003.22 284.237 1003.51 284.578C1003.79 284.914 1004.16 285.175 1004.62 285.359C1005.08 285.544 1005.59 285.636 1006.15 285.636C1006.77 285.636 1007.33 285.527 1007.81 285.31C1008.29 285.092 1008.67 284.789 1008.95 284.401C1009.22 284.012 1009.36 283.562 1009.36 283.051C1009.36 282.516 1009.23 282.045 1008.96 281.638C1008.7 281.226 1008.31 280.904 1007.8 280.672C1007.29 280.44 1006.66 280.324 1005.92 280.324H1004.76V278.761H1005.92C1006.5 278.761 1007.01 278.657 1007.44 278.449C1007.88 278.241 1008.23 277.947 1008.47 277.568C1008.72 277.189 1008.85 276.744 1008.85 276.233C1008.85 275.741 1008.74 275.312 1008.52 274.947C1008.3 274.583 1008 274.299 1007.6 274.095C1007.21 273.892 1006.74 273.79 1006.21 273.79C1005.7 273.79 1005.23 273.882 1004.79 274.067C1004.35 274.247 1003.99 274.509 1003.71 274.855C1003.43 275.196 1003.28 275.608 1003.25 276.091H1001.55C1001.58 275.329 1001.81 274.661 1002.24 274.088C1002.67 273.51 1003.23 273.061 1003.93 272.739C1004.63 272.417 1005.4 272.256 1006.24 272.256C1007.13 272.256 1007.91 272.438 1008.55 272.803C1009.19 273.162 1009.69 273.638 1010.03 274.23C1010.38 274.822 1010.55 275.461 1010.55 276.148C1010.55 276.967 1010.34 277.665 1009.91 278.243C1009.48 278.821 1008.9 279.221 1008.17 279.443V279.557C1009.09 279.708 1009.8 280.099 1010.32 280.729C1010.83 281.354 1011.09 282.128 1011.09 283.051C1011.09 283.842 1010.88 284.552 1010.45 285.182C1010.02 285.807 1009.44 286.299 1008.7 286.659C1007.96 287.019 1007.12 287.199 1006.18 287.199Z" fill="black"/>
<path d="M871.707 280.707C872.098 280.317 872.098 279.683 871.707 279.293L865.343 272.929C864.953 272.538 864.319 272.538 863.929 272.929C863.538 273.319 863.538 273.953 863.929 274.343L869.586 280L863.929 285.657C863.538 286.047 863.538 286.681 863.929 287.071C864.319 287.462 864.953 287.462 865.343 287.071L871.707 280.707ZM828 280V281H830.15V280V279H828V280ZM834.45 280V281H838.75V280V279H834.45V280ZM843.05 280V281H847.35V280V279H843.05V280ZM851.65 280V281H855.95V280V279H851.65V280ZM860.25 280V281H864.55V280V279H860.25V280ZM868.85 280V281H871V280V279H868.85V280ZM871.707 280.707C872.098 280.317 872.098 279.683 871.707 279.293L865.343 272.929C864.953 272.538 864.319 272.538 863.929 272.929C863.538 273.319 863.538 273.953 863.929 274.343L869.586 280L863.929 285.657C863.538 286.047 863.538 286.681 863.929 287.071C864.319 287.462 864.953 287.462 865.343 287.071L871.707 280.707ZM828 280V281H830.15V280V279H828V280ZM834.45 280V281H838.75V280V279H834.45V280ZM843.05 280V281H847.35V280V279H843.05V280ZM851.65 280V281H855.95V280V279H851.65V280ZM860.25 280V281H864.55V280V279H860.25V280ZM868.85 280V281H871V280V279H868.85V280Z" fill="black"/>
<rect x="663.5" y="147.5" width="166" height="71" rx="19.5" fill="#76D1FE" stroke="#897F7F"/>
<path d="M692.534 190V179.091H694.21V183.835H695.318L699.239 179.091H701.398L696.994 184.347L701.455 190H699.295L695.716 185.398H694.21V190H692.534ZM707.259 190.227C706.274 190.227 705.41 189.993 704.667 189.524C703.928 189.055 703.35 188.4 702.934 187.557C702.522 186.714 702.316 185.729 702.316 184.602C702.316 183.466 702.522 182.474 702.934 181.626C703.35 180.779 703.928 180.121 704.667 179.652C705.41 179.183 706.274 178.949 707.259 178.949C708.244 178.949 709.105 179.183 709.844 179.652C710.587 180.121 711.165 180.779 711.577 181.626C711.994 182.474 712.202 183.466 712.202 184.602C712.202 185.729 711.994 186.714 711.577 187.557C711.165 188.4 710.587 189.055 709.844 189.524C709.105 189.993 708.244 190.227 707.259 190.227ZM707.259 188.722C708.007 188.722 708.623 188.53 709.105 188.146C709.588 187.763 709.946 187.259 710.178 186.634C710.41 186.009 710.526 185.331 710.526 184.602C710.526 183.873 710.41 183.194 710.178 182.564C709.946 181.934 709.588 181.425 709.105 181.037C708.623 180.649 708.007 180.455 707.259 180.455C706.511 180.455 705.895 180.649 705.412 181.037C704.929 181.425 704.572 181.934 704.34 182.564C704.108 183.194 703.992 183.873 703.992 184.602C703.992 185.331 704.108 186.009 704.34 186.634C704.572 187.259 704.929 187.763 705.412 188.146C705.895 188.53 706.511 188.722 707.259 188.722ZM720.727 187.727L724.533 179.091H726.124L721.408 190H720.045L715.414 179.091H716.977L720.727 187.727ZM716.437 179.091V190H714.761V179.091H716.437ZM725.016 190V179.091H726.692V190H725.016ZM735.727 187.727L739.533 179.091H741.124L736.408 190H735.045L730.414 179.091H731.977L735.727 187.727ZM731.437 179.091V190H729.761V179.091H731.437ZM740.016 190V179.091H741.692V190H740.016ZM746.437 187.528L751.692 179.091H753.624V190H751.948V181.562L746.721 190H744.761V179.091H746.437V187.528ZM755.21 180.653V179.091H764.074V180.653H760.494V190H758.818V180.653H755.21ZM772.967 190H771.121L776.462 175.455H778.28L783.621 190H781.774L777.428 177.756H777.314L772.967 190ZM773.649 184.318H781.092V185.881H773.649V184.318ZM791.909 181.946V183.509H785.545V181.946H791.909ZM794.489 187.017V185.568L800.881 175.455H801.932V177.699H801.222L796.392 185.341V185.455H805V187.017H794.489ZM801.336 190V186.577V185.902V175.455H803.012V190H801.336Z" fill="black"/>
<path d="M664.707 183.707C665.098 183.317 665.098 182.683 664.707 182.293L658.343 175.929C657.953 175.538 657.319 175.538 656.929 175.929C656.538 176.319 656.538 176.953 656.929 177.343L662.586 183L656.929 188.657C656.538 189.047 656.538 189.681 656.929 190.071C657.319 190.462 657.953 190.462 658.343 190.071L664.707 183.707ZM621 183V184H623.15V183V182H621V183ZM627.45 183V184H631.75V183V182H627.45V183ZM636.05 183V184H640.35V183V182H636.05V183ZM644.65 183V184H648.95V183V182H644.65V183ZM653.25 183V184H657.55V183V182H653.25V183ZM661.85 183V184H664V183V182H661.85V183ZM664.707 183.707C665.098 183.317 665.098 182.683 664.707 182.293L658.343 175.929C657.953 175.538 657.319 175.538 656.929 175.929C656.538 176.319 656.538 176.953 656.929 177.343L662.586 183L656.929 188.657C656.538 189.047 656.538 189.681 656.929 190.071C657.319 190.462 657.953 190.462 658.343 190.071L664.707 183.707ZM621 183V184H623.15V183V182H621V183ZM627.45 183V184H631.75V183V182H627.45V183ZM636.05 183V184H640.35V183V182H636.05V183ZM644.65 183V184H648.95V183V182H644.65V183ZM653.25 183V184H657.55V183V182H653.25V183ZM661.85 183V184H664V183V182H661.85V183Z" fill="black"/>
<path d="M424.001 183L425.001 183L425.001 182L424.001 182L424.001 183ZM424.001 280L423.001 280L423.001 281L424.001 281L424.001 280ZM452.708 280.707C453.098 280.316 453.098 279.683 452.708 279.293L446.344 272.929C445.953 272.538 445.32 272.538 444.929 272.929C444.539 273.319 444.539 273.952 444.929 274.343L450.586 280L444.929 285.657C444.539 286.047 444.539 286.68 444.929 287.071C445.32 287.461 445.953 287.461 446.344 287.071L452.708 280.707ZM409 183L409 184L410.876 184L410.876 183L410.876 182L409 182L409 183ZM414.626 183L414.626 184L418.376 184L418.376 183L418.376 182L414.626 182L414.626 183ZM422.126 183L422.126 184L424.001 184L424.001 183L424.001 182L422.126 182L422.126 183ZM424.001 183L423.001 183L423.001 185.021L424.001 185.021L425.001 185.021L425.001 183L424.001 183ZM424.001 189.062L423.001 189.062L423.001 193.104L424.001 193.104L425.001 193.104L425.001 189.062L424.001 189.062ZM424.001 197.146L423.001 197.146L423.001 201.187L424.001 201.187L425.001 201.187L425.001 197.146L424.001 197.146ZM424.001 205.229L423.001 205.229L423.001 209.271L424.001 209.271L425.001 209.271L425.001 205.229L424.001 205.229ZM424.001 213.312L423.001 213.312L423.001 217.354L424.001 217.354L425.001 217.354L425.001 213.312L424.001 213.312ZM424.001 221.396L423.001 221.396L423.001 225.437L424.001 225.437L425.001 225.437L425.001 221.396L424.001 221.396ZM424.001 229.479L423.001 229.479L423.001 233.521L424.001 233.521L425.001 233.521L425.001 229.479L424.001 229.479ZM424.001 237.562L423.001 237.562L423.001 241.604L424.001 241.604L425.001 241.604L425.001 237.562L424.001 237.562ZM424.001 245.646L423.001 245.646L423.001 249.687L424.001 249.687L425.001 249.687L425.001 245.646L424.001 245.646ZM424.001 253.729L423.001 253.729L423.001 257.771L424.001 257.771L425.001 257.771L425.001 253.729L424.001 253.729ZM424.001 261.812L423.001 261.812L423.001 265.854L424.001 265.854L425.001 265.854L425.001 261.812L424.001 261.812ZM424.001 269.896L423.001 269.896L423.001 273.937L424.001 273.937L425.001 273.937L425.001 269.896L424.001 269.896ZM424.001 277.979L423.001 277.979L423.001 280L424.001 280L425.001 280L425.001 277.979L424.001 277.979ZM424.001 280L424.001 281L426.334 281L426.334 280L426.334 279L424.001 279L424.001 280ZM431.001 280L431.001 281L435.667 281L435.667 280L435.667 279L431.001 279L431.001 280ZM440.334 280L440.334 281L445.001 281L445.001 280L445.001 279L440.334 279L440.334 280ZM449.667 280L449.667 281L452 281L452 280L452 279L449.667 279L449.667 280ZM424.001 183L425.001 183L425.001 182L424.001 182L424.001 183ZM424.001 280L423.001 280L423.001 281L424.001 281L424.001 280ZM452.708 280.707C453.098 280.316 453.098 279.683 452.708 279.293L446.344 272.929C445.953 272.538 445.32 272.538 444.929 272.929C444.539 273.319 444.539 273.952 444.929 274.343L450.586 280L444.929 285.657C444.539 286.047 444.539 286.68 444.929 287.071C445.32 287.461 445.953 287.461 446.344 287.071L452.708 280.707ZM409 183L409 184L410.876 184L410.876 183L410.876 182L409 182L409 183ZM414.626 183L414.626 184L418.376 184L418.376 183L418.376 182L414.626 182L414.626 183ZM422.126 183L422.126 184L424.001 184L424.001 183L424.001 182L422.126 182L422.126 183ZM424.001 183L423.001 183L423.001 185.021L424.001 185.021L425.001 185.021L425.001 183L424.001 183ZM424.001 189.062L423.001 189.062L423.001 193.104L424.001 193.104L425.001 193.104L425.001 189.062L424.001 189.062ZM424.001 197.146L423.001 197.146L423.001 201.187L424.001 201.187L425.001 201.187L425.001 197.146L424.001 197.146ZM424.001 205.229L423.001 205.229L423.001 209.271L424.001 209.271L425.001 209.271L425.001 205.229L424.001 205.229ZM424.001 213.312L423.001 213.312L423.001 217.354L424.001 217.354L425.001 217.354L425.001 213.312L424.001 213.312ZM424.001 221.396L423.001 221.396L423.001 225.437L424.001 225.437L425.001 225.437L425.001 221.396L424.001 221.396ZM424.001 229.479L423.001 229.479L423.001 233.521L424.001 233.521L425.001 233.521L425.001 229.479L424.001 229.479ZM424.001 237.562L423.001 237.562L423.001 241.604L424.001 241.604L425.001 241.604L425.001 237.562L424.001 237.562ZM424.001 245.646L423.001 245.646L423.001 249.687L424.001 249.687L425.001 249.687L425.001 245.646L424.001 245.646ZM424.001 253.729L423.001 253.729L423.001 257.771L424.001 257.771L425.001 257.771L425.001 253.729L424.001 253.729ZM424.001 261.812L423.001 261.812L423.001 265.854L424.001 265.854L425.001 265.854L425.001 261.812L424.001 261.812ZM424.001 269.896L423.001 269.896L423.001 273.937L424.001 273.937L425.001 273.937L425.001 269.896L424.001 269.896ZM424.001 277.979L423.001 277.979L423.001 280L424.001 280L425.001 280L425.001 277.979L424.001 277.979ZM424.001 280L424.001 281L426.334 281L426.334 280L426.334 279L424.001 279L424.001 280ZM431.001 280L431.001 281L435.667 281L435.667 280L435.667 279L431.001 279L431.001 280ZM440.334 280L440.334 281L445.001 281L445.001 280L445.001 279L440.334 279L440.334 280ZM449.667 280L449.667 281L452 281L452 280L452 279L449.667 279L449.667 280Z" fill="black"/>
<rect x="10.5" y="30.5" width="1050" height="396" stroke="black" stroke-dasharray="2 2"/>
<path d="M24.3352 419.199C23.7386 419.189 23.142 419.076 22.5455 418.858C21.9489 418.64 21.4044 418.273 20.9119 417.757C20.4195 417.236 20.0241 416.533 19.7259 415.648C19.4276 414.758 19.2784 413.64 19.2784 412.295C19.2784 411.008 19.3991 409.866 19.6406 408.872C19.8821 407.873 20.2325 407.033 20.6918 406.351C21.151 405.664 21.705 405.143 22.3537 404.788C23.0071 404.433 23.7434 404.256 24.5625 404.256C25.3769 404.256 26.1013 404.419 26.7358 404.746C27.375 405.068 27.8958 405.518 28.2983 406.095C28.7008 406.673 28.9612 407.338 29.0795 408.091H27.3466C27.1856 407.437 26.8731 406.895 26.4091 406.464C25.9451 406.034 25.3295 405.818 24.5625 405.818C23.4356 405.818 22.5478 406.308 21.8991 407.288C21.2552 408.268 20.9309 409.644 20.9261 411.415H21.0398C21.3049 411.012 21.6198 410.669 21.9844 410.385C22.3537 410.096 22.7609 409.874 23.206 409.717C23.651 409.561 24.1222 409.483 24.6193 409.483C25.4527 409.483 26.215 409.691 26.9062 410.108C27.5975 410.52 28.1515 411.09 28.5682 411.82C28.9848 412.544 29.1932 413.375 29.1932 414.312C29.1932 415.212 28.992 416.036 28.5895 416.784C28.187 417.527 27.6212 418.119 26.892 418.56C26.1676 418.995 25.3153 419.208 24.3352 419.199ZM24.3352 417.636C24.9318 417.636 25.4669 417.487 25.9403 417.189C26.4186 416.891 26.795 416.491 27.0696 415.989C27.349 415.487 27.4886 414.928 27.4886 414.312C27.4886 413.711 27.3537 413.164 27.0838 412.672C26.8187 412.175 26.4517 411.779 25.983 411.486C25.5189 411.192 24.9886 411.045 24.392 411.045C23.9422 411.045 23.5232 411.135 23.1349 411.315C22.7467 411.491 22.4058 411.732 22.1122 412.04C21.8234 412.348 21.5961 412.7 21.4304 413.098C21.2647 413.491 21.1818 413.905 21.1818 414.341C21.1818 414.919 21.3168 415.458 21.5866 415.96C21.8613 416.462 22.2353 416.867 22.7088 417.175C23.187 417.482 23.7292 417.636 24.3352 417.636Z" fill="black"/>
</svg>
