<svg width="651" height="457" viewBox="0 0 651 457" fill="none" xmlns="http://www.w3.org/2000/svg">
<rect x="489.5" y="59.5" width="96" height="56" fill="#76D1FE" stroke="#FF0000" stroke-width="3"/>
<path d="M528.716 103H525.023L535.705 73.9091H539.341L550.023 103H546.33L537.636 78.5114H537.409L528.716 103ZM530.08 91.6364H544.966V94.7614H530.08V91.6364Z" fill="black"/>
<rect x="487.5" y="347.5" width="96" height="56" fill="#FEFE76" stroke="#FF0000" stroke-width="3"/>
<path d="M525.523 391V361.909H543.08V365.034H529.045V374.125H536.432C538.515 374.125 540.272 374.466 541.702 375.148C543.141 375.83 544.23 376.791 544.969 378.031C545.717 379.272 546.091 380.735 546.091 382.42C546.091 384.106 545.717 385.593 544.969 386.881C544.23 388.169 543.141 389.177 541.702 389.906C540.272 390.635 538.515 391 536.432 391H525.523ZM529.045 387.932H536.432C537.758 387.932 538.88 387.667 539.798 387.136C540.726 386.597 541.427 385.905 541.901 385.062C542.384 384.21 542.625 383.311 542.625 382.364C542.625 380.972 542.09 379.774 541.02 378.77C539.95 377.757 538.42 377.25 536.432 377.25H529.045V387.932Z" fill="black"/>
<path d="M538 147L546.66 132H529.34L538 147ZM538 117H536.5V133.5H538H539.5V117H538Z" fill="#FF0000"/>
<path d="M536 316L527.34 331H544.66L536 316ZM536 346H537.5V329.5H536H534.5V346H536Z" fill="#FF0000"/>
<rect x="32.5" y="147.5" width="166" height="71" rx="19.5" fill="#76D1FE" stroke="#897F7F"/>
<path d="M61.5341 190V179.091H63.2102V183.835H64.3182L68.2386 179.091H70.3977L65.9943 184.347L70.4545 190H68.2955L64.7159 185.398H63.2102V190H61.5341ZM76.2589 190.227C75.274 190.227 74.4099 189.993 73.6665 189.524C72.9279 189.055 72.3503 188.4 71.9336 187.557C71.5217 186.714 71.3157 185.729 71.3157 184.602C71.3157 183.466 71.5217 182.474 71.9336 181.626C72.3503 180.779 72.9279 180.121 73.6665 179.652C74.4099 179.183 75.274 178.949 76.2589 178.949C77.2437 178.949 78.1055 179.183 78.8441 179.652C79.5875 180.121 80.1651 180.779 80.5771 181.626C80.9937 182.474 81.2021 183.466 81.2021 184.602C81.2021 185.729 80.9937 186.714 80.5771 187.557C80.1651 188.4 79.5875 189.055 78.8441 189.524C78.1055 189.993 77.2437 190.227 76.2589 190.227ZM76.2589 188.722C77.007 188.722 77.6225 188.53 78.1055 188.146C78.5884 187.763 78.9459 187.259 79.1779 186.634C79.4099 186.009 79.5259 185.331 79.5259 184.602C79.5259 183.873 79.4099 183.194 79.1779 182.564C78.9459 181.934 78.5884 181.425 78.1055 181.037C77.6225 180.649 77.007 180.455 76.2589 180.455C75.5108 180.455 74.8952 180.649 74.4123 181.037C73.9293 181.425 73.5719 181.934 73.3398 182.564C73.1078 183.194 72.9918 183.873 72.9918 184.602C72.9918 185.331 73.1078 186.009 73.3398 186.634C73.5719 187.259 73.9293 187.763 74.4123 188.146C74.8952 188.53 75.5108 188.722 76.2589 188.722ZM89.7266 187.727L93.5334 179.091H95.1243L90.4084 190H89.0447L84.4141 179.091H85.9766L89.7266 187.727ZM85.4368 179.091V190H83.7607V179.091H85.4368ZM94.0163 190V179.091H95.6925V190H94.0163ZM104.727 187.727L108.533 179.091H110.124L105.408 190H104.045L99.4141 179.091H100.977L104.727 187.727ZM100.437 179.091V190H98.7607V179.091H100.437ZM109.016 190V179.091H110.692V190H109.016ZM115.437 187.528L120.692 179.091H122.624V190H120.948V181.562L115.721 190H113.761V179.091H115.437V187.528ZM124.21 180.653V179.091H133.074V180.653H129.494V190H127.818V180.653H124.21ZM141.967 190H140.121L145.462 175.455H147.28L152.621 190H150.774L146.428 177.756H146.314L141.967 190ZM142.649 184.318H150.092V185.881H142.649V184.318ZM160.909 181.946V183.509H154.545V181.946H160.909ZM168.944 175.455V190H167.182V177.301H167.097L163.546 179.659V177.869L167.182 175.455H168.944Z" fill="black"/>
<rect x="242.5" y="147.5" width="166" height="71" rx="19.5" fill="#76D1FE" stroke="#897F7F"/>
<path d="M271.534 190V179.091H273.21V183.835H274.318L278.239 179.091H280.398L275.994 184.347L280.455 190H278.295L274.716 185.398H273.21V190H271.534ZM286.259 190.227C285.274 190.227 284.41 189.993 283.667 189.524C282.928 189.055 282.35 188.4 281.934 187.557C281.522 186.714 281.316 185.729 281.316 184.602C281.316 183.466 281.522 182.474 281.934 181.626C282.35 180.779 282.928 180.121 283.667 179.652C284.41 179.183 285.274 178.949 286.259 178.949C287.244 178.949 288.105 179.183 288.844 179.652C289.587 180.121 290.165 180.779 290.577 181.626C290.994 182.474 291.202 183.466 291.202 184.602C291.202 185.729 290.994 186.714 290.577 187.557C290.165 188.4 289.587 189.055 288.844 189.524C288.105 189.993 287.244 190.227 286.259 190.227ZM286.259 188.722C287.007 188.722 287.623 188.53 288.105 188.146C288.588 187.763 288.946 187.259 289.178 186.634C289.41 186.009 289.526 185.331 289.526 184.602C289.526 183.873 289.41 183.194 289.178 182.564C288.946 181.934 288.588 181.425 288.105 181.037C287.623 180.649 287.007 180.455 286.259 180.455C285.511 180.455 284.895 180.649 284.412 181.037C283.929 181.425 283.572 181.934 283.34 182.564C283.108 183.194 282.992 183.873 282.992 184.602C282.992 185.331 283.108 186.009 283.34 186.634C283.572 187.259 283.929 187.763 284.412 188.146C284.895 188.53 285.511 188.722 286.259 188.722ZM299.727 187.727L303.533 179.091H305.124L300.408 190H299.045L294.414 179.091H295.977L299.727 187.727ZM295.437 179.091V190H293.761V179.091H295.437ZM304.016 190V179.091H305.692V190H304.016ZM314.727 187.727L318.533 179.091H320.124L315.408 190H314.045L309.414 179.091H310.977L314.727 187.727ZM310.437 179.091V190H308.761V179.091H310.437ZM319.016 190V179.091H320.692V190H319.016ZM325.437 187.528L330.692 179.091H332.624V190H330.948V181.562L325.721 190H323.761V179.091H325.437V187.528ZM334.21 180.653V179.091H343.074V180.653H339.494V190H337.818V180.653H334.21ZM351.967 190H350.121L355.462 175.455H357.28L362.621 190H360.774L356.428 177.756H356.314L351.967 190ZM352.649 184.318H360.092V185.881H352.649V184.318ZM370.909 181.946V183.509H364.545V181.946H370.909ZM373.146 190V188.722L377.947 183.466C378.511 182.85 378.975 182.315 379.339 181.861C379.704 181.402 379.974 180.971 380.149 180.568C380.329 180.161 380.419 179.735 380.419 179.29C380.419 178.778 380.296 178.336 380.05 177.962C379.808 177.588 379.477 177.299 379.055 177.095C378.634 176.892 378.161 176.79 377.635 176.79C377.076 176.79 376.589 176.906 376.172 177.138C375.76 177.365 375.44 177.685 375.213 178.097C374.991 178.509 374.879 178.991 374.879 179.545H373.203C373.203 178.693 373.4 177.945 373.793 177.301C374.186 176.657 374.721 176.155 375.398 175.795C376.08 175.436 376.844 175.256 377.692 175.256C378.544 175.256 379.299 175.436 379.957 175.795C380.616 176.155 381.132 176.641 381.506 177.251C381.88 177.862 382.067 178.542 382.067 179.29C382.067 179.825 381.97 180.348 381.776 180.859C381.586 181.366 381.255 181.932 380.781 182.557C380.312 183.177 379.661 183.935 378.828 184.83L375.561 188.324V188.438H382.322V190H373.146Z" fill="black"/>
<rect x="452.5" y="147.5" width="166" height="71" rx="19.5" fill="#76D1FE" stroke="#897F7F"/>
<path d="M481.534 190V179.091H483.21V183.835H484.318L488.239 179.091H490.398L485.994 184.347L490.455 190H488.295L484.716 185.398H483.21V190H481.534ZM496.259 190.227C495.274 190.227 494.41 189.993 493.667 189.524C492.928 189.055 492.35 188.4 491.934 187.557C491.522 186.714 491.316 185.729 491.316 184.602C491.316 183.466 491.522 182.474 491.934 181.626C492.35 180.779 492.928 180.121 493.667 179.652C494.41 179.183 495.274 178.949 496.259 178.949C497.244 178.949 498.105 179.183 498.844 179.652C499.587 180.121 500.165 180.779 500.577 181.626C500.994 182.474 501.202 183.466 501.202 184.602C501.202 185.729 500.994 186.714 500.577 187.557C500.165 188.4 499.587 189.055 498.844 189.524C498.105 189.993 497.244 190.227 496.259 190.227ZM496.259 188.722C497.007 188.722 497.623 188.53 498.105 188.146C498.588 187.763 498.946 187.259 499.178 186.634C499.41 186.009 499.526 185.331 499.526 184.602C499.526 183.873 499.41 183.194 499.178 182.564C498.946 181.934 498.588 181.425 498.105 181.037C497.623 180.649 497.007 180.455 496.259 180.455C495.511 180.455 494.895 180.649 494.412 181.037C493.929 181.425 493.572 181.934 493.34 182.564C493.108 183.194 492.992 183.873 492.992 184.602C492.992 185.331 493.108 186.009 493.34 186.634C493.572 187.259 493.929 187.763 494.412 188.146C494.895 188.53 495.511 188.722 496.259 188.722ZM509.727 187.727L513.533 179.091H515.124L510.408 190H509.045L504.414 179.091H505.977L509.727 187.727ZM505.437 179.091V190H503.761V179.091H505.437ZM514.016 190V179.091H515.692V190H514.016ZM524.727 187.727L528.533 179.091H530.124L525.408 190H524.045L519.414 179.091H520.977L524.727 187.727ZM520.437 179.091V190H518.761V179.091H520.437ZM529.016 190V179.091H530.692V190H529.016ZM535.437 187.528L540.692 179.091H542.624V190H540.948V181.562L535.721 190H533.761V179.091H535.437V187.528ZM544.21 180.653V179.091H553.074V180.653H549.494V190H547.818V180.653H544.21ZM561.967 190H560.121L565.462 175.455H567.28L572.621 190H570.774L566.428 177.756H566.314L561.967 190ZM562.649 184.318H570.092V185.881H562.649V184.318ZM580.909 181.946V183.509H574.545V181.946H580.909ZM588.51 190.199C587.573 190.199 586.737 190.038 586.003 189.716C585.274 189.394 584.694 188.946 584.263 188.374C583.837 187.796 583.605 187.126 583.567 186.364H585.357C585.395 186.832 585.556 187.237 585.84 187.578C586.124 187.914 586.496 188.175 586.955 188.359C587.414 188.544 587.923 188.636 588.482 188.636C589.107 188.636 589.661 188.527 590.144 188.31C590.627 188.092 591.006 187.789 591.28 187.401C591.555 187.012 591.692 186.562 591.692 186.051C591.692 185.516 591.56 185.045 591.294 184.638C591.029 184.226 590.641 183.904 590.13 183.672C589.618 183.44 588.993 183.324 588.255 183.324H587.09V181.761H588.255C588.832 181.761 589.339 181.657 589.775 181.449C590.215 181.241 590.558 180.947 590.804 180.568C591.055 180.189 591.181 179.744 591.181 179.233C591.181 178.741 591.072 178.312 590.854 177.947C590.636 177.583 590.328 177.299 589.931 177.095C589.538 176.892 589.074 176.79 588.539 176.79C588.037 176.79 587.563 176.882 587.118 177.067C586.678 177.247 586.318 177.509 586.039 177.855C585.759 178.196 585.608 178.608 585.584 179.091H583.88C583.908 178.329 584.138 177.661 584.569 177.088C584.999 176.51 585.563 176.061 586.259 175.739C586.96 175.417 587.729 175.256 588.567 175.256C589.467 175.256 590.239 175.438 590.882 175.803C591.526 176.162 592.021 176.638 592.367 177.23C592.712 177.822 592.885 178.461 592.885 179.148C592.885 179.967 592.67 180.665 592.239 181.243C591.813 181.821 591.233 182.221 590.499 182.443V182.557C591.417 182.708 592.135 183.099 592.651 183.729C593.167 184.354 593.425 185.128 593.425 186.051C593.425 186.842 593.21 187.552 592.779 188.182C592.353 188.807 591.77 189.299 591.032 189.659C590.293 190.019 589.453 190.199 588.51 190.199Z" fill="black"/>
<rect x="452.5" y="244.5" width="166" height="71" rx="19.5" fill="#FEFE76" stroke="#897F7F"/>
<path d="M481.534 287V276.091H483.21V280.835H484.318L488.239 276.091H490.398L485.994 281.347L490.455 287H488.295L484.716 282.398H483.21V287H481.534ZM496.259 287.227C495.274 287.227 494.41 286.993 493.667 286.524C492.928 286.055 492.35 285.4 491.934 284.557C491.522 283.714 491.316 282.729 491.316 281.602C491.316 280.466 491.522 279.474 491.934 278.626C492.35 277.779 492.928 277.121 493.667 276.652C494.41 276.183 495.274 275.949 496.259 275.949C497.244 275.949 498.105 276.183 498.844 276.652C499.587 277.121 500.165 277.779 500.577 278.626C500.994 279.474 501.202 280.466 501.202 281.602C501.202 282.729 500.994 283.714 500.577 284.557C500.165 285.4 499.587 286.055 498.844 286.524C498.105 286.993 497.244 287.227 496.259 287.227ZM496.259 285.722C497.007 285.722 497.623 285.53 498.105 285.146C498.588 284.763 498.946 284.259 499.178 283.634C499.41 283.009 499.526 282.331 499.526 281.602C499.526 280.873 499.41 280.194 499.178 279.564C498.946 278.934 498.588 278.425 498.105 278.037C497.623 277.649 497.007 277.455 496.259 277.455C495.511 277.455 494.895 277.649 494.412 278.037C493.929 278.425 493.572 278.934 493.34 279.564C493.108 280.194 492.992 280.873 492.992 281.602C492.992 282.331 493.108 283.009 493.34 283.634C493.572 284.259 493.929 284.763 494.412 285.146C494.895 285.53 495.511 285.722 496.259 285.722ZM509.727 284.727L513.533 276.091H515.124L510.408 287H509.045L504.414 276.091H505.977L509.727 284.727ZM505.437 276.091V287H503.761V276.091H505.437ZM514.016 287V276.091H515.692V287H514.016ZM524.727 284.727L528.533 276.091H530.124L525.408 287H524.045L519.414 276.091H520.977L524.727 284.727ZM520.437 276.091V287H518.761V276.091H520.437ZM529.016 287V276.091H530.692V287H529.016ZM535.437 284.528L540.692 276.091H542.624V287H540.948V278.562L535.721 287H533.761V276.091H535.437V284.528ZM544.21 277.653V276.091H553.074V277.653H549.494V287H547.818V277.653H544.21ZM561.371 287V272.455H570.149V274.017H563.132V278.562H566.825C567.867 278.562 568.745 278.733 569.46 279.074C570.18 279.415 570.724 279.895 571.094 280.516C571.468 281.136 571.655 281.867 571.655 282.71C571.655 283.553 571.468 284.296 571.094 284.94C570.724 285.584 570.18 286.089 569.46 286.453C568.745 286.818 567.867 287 566.825 287H561.371ZM563.132 285.466H566.825C567.488 285.466 568.049 285.333 568.509 285.068C568.973 284.798 569.323 284.453 569.56 284.031C569.801 283.605 569.922 283.155 569.922 282.682C569.922 281.986 569.654 281.387 569.119 280.885C568.584 280.378 567.82 280.125 566.825 280.125H563.132V285.466ZM580.577 278.946V280.509H574.213V278.946H580.577ZM588.612 272.455V287H586.85V274.301H586.765L583.214 276.659V274.869L586.85 272.455H588.612Z" fill="black"/>
<path d="M242.707 183.707C243.098 183.317 243.098 182.683 242.707 182.293L236.343 175.929C235.953 175.538 235.319 175.538 234.929 175.929C234.538 176.319 234.538 176.953 234.929 177.343L240.586 183L234.929 188.657C234.538 189.047 234.538 189.681 234.929 190.071C235.319 190.462 235.953 190.462 236.343 190.071L242.707 183.707ZM199 183V184H201.15V183V182H199V183ZM205.45 183V184H209.75V183V182H205.45V183ZM214.05 183V184H218.35V183V182H214.05V183ZM222.65 183V184H226.95V183V182H222.65V183ZM231.25 183V184H235.55V183V182H231.25V183ZM239.85 183V184H242V183V182H239.85V183ZM242.707 183.707C243.098 183.317 243.098 182.683 242.707 182.293L236.343 175.929C235.953 175.538 235.319 175.538 234.929 175.929C234.538 176.319 234.538 176.953 234.929 177.343L240.586 183L234.929 188.657C234.538 189.047 234.538 189.681 234.929 190.071C235.319 190.462 235.953 190.462 236.343 190.071L242.707 183.707ZM199 183V184H201.15V183V182H199V183ZM205.45 183V184H209.75V183V182H205.45V183ZM214.05 183V184H218.35V183V182H214.05V183ZM222.65 183V184H226.95V183V182H222.65V183ZM231.25 183V184H235.55V183V182H231.25V183ZM239.85 183V184H242V183V182H239.85V183Z" fill="black"/>
<path d="M453.707 183.707C454.098 183.317 454.098 182.683 453.707 182.293L447.343 175.929C446.953 175.538 446.319 175.538 445.929 175.929C445.538 176.319 445.538 176.953 445.929 177.343L451.586 183L445.929 188.657C445.538 189.047 445.538 189.681 445.929 190.071C446.319 190.462 446.953 190.462 447.343 190.071L453.707 183.707ZM410 183V184H412.15V183V182H410V183ZM416.45 183V184H420.75V183V182H416.45V183ZM425.05 183V184H429.35V183V182H425.05V183ZM433.65 183V184H437.95V183V182H433.65V183ZM442.25 183V184H446.55V183V182H442.25V183ZM450.85 183V184H453V183V182H450.85V183ZM453.707 183.707C454.098 183.317 454.098 182.683 453.707 182.293L447.343 175.929C446.953 175.538 446.319 175.538 445.929 175.929C445.538 176.319 445.538 176.953 445.929 177.343L451.586 183L445.929 188.657C445.538 189.047 445.538 189.681 445.929 190.071C446.319 190.462 446.953 190.462 447.343 190.071L453.707 183.707ZM410 183V184H412.15V183V182H410V183ZM416.45 183V184H420.75V183V182H416.45V183ZM425.05 183V184H429.35V183V182H425.05V183ZM433.65 183V184H437.95V183V182H433.65V183ZM442.25 183V184H446.55V183V182H442.25V183ZM450.85 183V184H453V183V182H450.85V183Z" fill="black"/>
<path d="M424.001 183L425.001 183L425.001 182L424.001 182L424.001 183ZM424.001 280L423.001 280L423.001 281L424.001 281L424.001 280ZM452.708 280.707C453.098 280.317 453.098 279.684 452.708 279.293L446.344 272.929C445.953 272.539 445.32 272.539 444.929 272.929C444.539 273.32 444.539 273.953 444.929 274.343L450.586 280L444.929 285.657C444.539 286.047 444.539 286.681 444.929 287.071C445.32 287.462 445.953 287.462 446.344 287.071L452.708 280.707ZM409 183L409 184L410.876 184L410.876 183L410.876 182L409 182L409 183ZM414.626 183L414.626 184L418.376 184L418.376 183L418.376 182L414.626 182L414.626 183ZM422.126 183L422.126 184L424.001 184L424.001 183L424.001 182L422.126 182L422.126 183ZM424.001 183L423.001 183L423.001 185.021L424.001 185.021L425.001 185.021L425.001 183L424.001 183ZM424.001 189.063L423.001 189.063L423.001 193.104L424.001 193.104L425.001 193.104L425.001 189.063L424.001 189.063ZM424.001 197.146L423.001 197.146L423.001 201.188L424.001 201.188L425.001 201.188L425.001 197.146L424.001 197.146ZM424.001 205.229L423.001 205.229L423.001 209.271L424.001 209.271L425.001 209.271L425.001 205.229L424.001 205.229ZM424.001 213.313L423.001 213.313L423.001 217.354L424.001 217.354L425.001 217.354L425.001 213.313L424.001 213.313ZM424.001 221.396L423.001 221.396L423.001 225.438L424.001 225.438L425.001 225.438L425.001 221.396L424.001 221.396ZM424.001 229.479L423.001 229.479L423.001 233.521L424.001 233.521L425.001 233.521L425.001 229.479L424.001 229.479ZM424.001 237.563L423.001 237.563L423.001 241.604L424.001 241.604L425.001 241.604L425.001 237.563L424.001 237.563ZM424.001 245.646L423.001 245.646L423.001 249.688L424.001 249.688L425.001 249.688L425.001 245.646L424.001 245.646ZM424.001 253.729L423.001 253.729L423.001 257.771L424.001 257.771L425.001 257.771L425.001 253.729L424.001 253.729ZM424.001 261.813L423.001 261.813L423.001 265.854L424.001 265.854L425.001 265.854L425.001 261.813L424.001 261.813ZM424.001 269.896L423.001 269.896L423.001 273.938L424.001 273.938L425.001 273.938L425.001 269.896L424.001 269.896ZM424.001 277.979L423.001 277.979L423.001 280L424.001 280L425.001 280L425.001 277.979L424.001 277.979ZM424.001 280L424.001 281L426.334 281L426.334 280L426.334 279L424.001 279L424.001 280ZM431.001 280L431.001 281L435.667 281L435.667 280L435.667 279L431.001 279L431.001 280ZM440.334 280L440.334 281L445.001 281L445.001 280L445.001 279L440.334 279L440.334 280ZM449.667 280L449.667 281L452 281L452 280L452 279L449.667 279L449.667 280ZM424.001 183L425.001 183L425.001 182L424.001 182L424.001 183ZM424.001 280L423.001 280L423.001 281L424.001 281L424.001 280ZM452.708 280.707C453.098 280.317 453.098 279.684 452.708 279.293L446.344 272.929C445.953 272.539 445.32 272.539 444.929 272.929C444.539 273.32 444.539 273.953 444.929 274.343L450.586 280L444.929 285.657C444.539 286.047 444.539 286.681 444.929 287.071C445.32 287.462 445.953 287.462 446.344 287.071L452.708 280.707ZM409 183L409 184L410.876 184L410.876 183L410.876 182L409 182L409 183ZM414.626 183L414.626 184L418.376 184L418.376 183L418.376 182L414.626 182L414.626 183ZM422.126 183L422.126 184L424.001 184L424.001 183L424.001 182L422.126 182L422.126 183ZM424.001 183L423.001 183L423.001 185.021L424.001 185.021L425.001 185.021L425.001 183L424.001 183ZM424.001 189.063L423.001 189.063L423.001 193.104L424.001 193.104L425.001 193.104L425.001 189.063L424.001 189.063ZM424.001 197.146L423.001 197.146L423.001 201.188L424.001 201.188L425.001 201.188L425.001 197.146L424.001 197.146ZM424.001 205.229L423.001 205.229L423.001 209.271L424.001 209.271L425.001 209.271L425.001 205.229L424.001 205.229ZM424.001 213.313L423.001 213.313L423.001 217.354L424.001 217.354L425.001 217.354L425.001 213.313L424.001 213.313ZM424.001 221.396L423.001 221.396L423.001 225.438L424.001 225.438L425.001 225.438L425.001 221.396L424.001 221.396ZM424.001 229.479L423.001 229.479L423.001 233.521L424.001 233.521L425.001 233.521L425.001 229.479L424.001 229.479ZM424.001 237.563L423.001 237.563L423.001 241.604L424.001 241.604L425.001 241.604L425.001 237.563L424.001 237.563ZM424.001 245.646L423.001 245.646L423.001 249.688L424.001 249.688L425.001 249.688L425.001 245.646L424.001 245.646ZM424.001 253.729L423.001 253.729L423.001 257.771L424.001 257.771L425.001 257.771L425.001 253.729L424.001 253.729ZM424.001 261.813L423.001 261.813L423.001 265.854L424.001 265.854L425.001 265.854L425.001 261.813L424.001 261.813ZM424.001 269.896L423.001 269.896L423.001 273.938L424.001 273.938L425.001 273.938L425.001 269.896L424.001 269.896ZM424.001 277.979L423.001 277.979L423.001 280L424.001 280L425.001 280L425.001 277.979L424.001 277.979ZM424.001 280L424.001 281L426.334 281L426.334 280L426.334 279L424.001 279L424.001 280ZM431.001 280L431.001 281L435.667 281L435.667 280L435.667 279L431.001 279L431.001 280ZM440.334 280L440.334 281L445.001 281L445.001 280L445.001 279L440.334 279L440.334 280ZM449.667 280L449.667 281L452 281L452 280L452 279L449.667 279L449.667 280Z" fill="black"/>
<rect x="10.5" y="30.5" width="630" height="396" stroke="black" stroke-dasharray="2 2"/>
<path d="M24.0511 419.199C23.2178 419.199 22.4673 419.033 21.7997 418.702C21.1321 418.37 20.5971 417.916 20.1946 417.338C19.7921 416.76 19.572 416.102 19.5341 415.364H21.2386C21.3049 416.022 21.6032 416.566 22.1335 416.997C22.6686 417.423 23.3078 417.636 24.0511 417.636C24.6477 417.636 25.178 417.497 25.642 417.217C26.1108 416.938 26.4777 416.554 26.7429 416.067C27.0128 415.574 27.1477 415.018 27.1477 414.398C27.1477 413.763 27.008 413.197 26.7287 412.7C26.4541 412.198 26.0753 411.803 25.5923 411.514C25.1094 411.225 24.5578 411.079 23.9375 411.074C23.4924 411.069 23.0355 411.138 22.5668 411.28C22.098 411.417 21.7121 411.595 21.4091 411.812L19.7614 411.614L20.642 404.455H28.1989V406.017H22.1193L21.608 410.307H21.6932C21.9915 410.07 22.3655 409.874 22.8153 409.717C23.2652 409.561 23.7339 409.483 24.2216 409.483C25.1117 409.483 25.9048 409.696 26.6009 410.122C27.3016 410.544 27.8509 411.121 28.2486 411.855C28.651 412.589 28.8523 413.427 28.8523 414.369C28.8523 415.297 28.6439 416.126 28.2273 416.855C27.8153 417.58 27.2472 418.152 26.5227 418.574C25.7983 418.991 24.9744 419.199 24.0511 419.199Z" fill="black"/>
</svg>
