<svg width="651" height="457" viewBox="0 0 651 457" fill="none" xmlns="http://www.w3.org/2000/svg">
<rect x="278.5" y="84.5" width="96" height="31" fill="#76D1FE" stroke="#FF0000" stroke-width="3"/>
<path d="M295.534 107V96.0909H297.153V97.7955H297.295C297.523 97.2131 297.89 96.7609 298.396 96.4389C298.903 96.1122 299.511 95.9489 300.222 95.9489C300.941 95.9489 301.54 96.1122 302.018 96.4389C302.501 96.7609 302.878 97.2131 303.148 97.7955H303.261C303.541 97.232 303.96 96.7846 304.518 96.4531C305.077 96.117 305.747 95.9489 306.528 95.9489C307.504 95.9489 308.302 96.2543 308.922 96.8651C309.542 97.4711 309.852 98.4157 309.852 99.6989V107H308.176V99.6989C308.176 98.8939 307.956 98.3187 307.516 97.973C307.075 97.6274 306.557 97.4545 305.96 97.4545C305.193 97.4545 304.599 97.6866 304.178 98.1506C303.756 98.6098 303.545 99.1922 303.545 99.8977V107H301.841V99.5284C301.841 98.9081 301.64 98.4086 301.237 98.0298C300.835 97.6463 300.316 97.4545 299.682 97.4545C299.246 97.4545 298.839 97.5705 298.46 97.8026C298.086 98.0346 297.783 98.3565 297.551 98.7685C297.324 99.1757 297.21 99.6468 297.21 100.182V107H295.534ZM316.127 107.256C315.436 107.256 314.808 107.125 314.245 106.865C313.682 106.6 313.234 106.219 312.903 105.722C312.571 105.22 312.406 104.614 312.406 103.903C312.406 103.278 312.529 102.772 312.775 102.384C313.021 101.991 313.35 101.683 313.762 101.46C314.174 101.238 314.629 101.072 315.126 100.963C315.628 100.849 316.132 100.759 316.638 100.693C317.301 100.608 317.839 100.544 318.251 100.501C318.667 100.454 318.97 100.376 319.16 100.267C319.354 100.158 319.451 99.9687 319.451 99.6989V99.642C319.451 98.9413 319.259 98.3968 318.876 98.0085C318.497 97.6203 317.922 97.4261 317.15 97.4261C316.35 97.4261 315.722 97.6013 315.268 97.9517C314.813 98.3021 314.494 98.6761 314.309 99.0739L312.718 98.5057C313.002 97.8428 313.381 97.3267 313.854 96.9574C314.333 96.5833 314.853 96.3229 315.417 96.1761C315.985 96.0246 316.544 95.9489 317.093 95.9489C317.443 95.9489 317.846 95.9915 318.3 96.0767C318.76 96.1572 319.202 96.3253 319.629 96.581C320.059 96.8366 320.417 97.2225 320.701 97.7386C320.985 98.2547 321.127 98.946 321.127 99.8125V107H319.451V105.523H319.366C319.252 105.759 319.063 106.013 318.798 106.283C318.532 106.553 318.18 106.782 317.739 106.972C317.299 107.161 316.762 107.256 316.127 107.256ZM316.383 105.75C317.046 105.75 317.604 105.62 318.059 105.359C318.518 105.099 318.864 104.763 319.096 104.351C319.333 103.939 319.451 103.506 319.451 103.051V101.517C319.38 101.602 319.224 101.68 318.982 101.751C318.746 101.818 318.471 101.877 318.158 101.929C317.851 101.976 317.55 102.019 317.256 102.057C316.968 102.09 316.733 102.118 316.553 102.142C316.118 102.199 315.71 102.291 315.332 102.419C314.958 102.542 314.655 102.729 314.423 102.98C314.195 103.226 314.082 103.562 314.082 103.989C314.082 104.571 314.297 105.011 314.728 105.31C315.164 105.603 315.715 105.75 316.383 105.75ZM331.914 98.5341L330.408 98.9602C330.313 98.7093 330.174 98.4654 329.989 98.2287C329.809 97.9872 329.563 97.7884 329.25 97.6321C328.938 97.4759 328.538 97.3977 328.05 97.3977C327.382 97.3977 326.826 97.5516 326.381 97.8594C325.941 98.1624 325.721 98.5483 325.721 99.017C325.721 99.4337 325.872 99.7628 326.175 100.004C326.478 100.246 326.952 100.447 327.596 100.608L329.215 101.006C330.19 101.242 330.917 101.605 331.395 102.092C331.873 102.575 332.113 103.198 332.113 103.96C332.113 104.585 331.933 105.144 331.573 105.636C331.218 106.129 330.721 106.517 330.081 106.801C329.442 107.085 328.699 107.227 327.851 107.227C326.739 107.227 325.818 106.986 325.088 106.503C324.359 106.02 323.898 105.314 323.703 104.386L325.294 103.989C325.446 104.576 325.732 105.016 326.154 105.31C326.58 105.603 327.136 105.75 327.823 105.75C328.604 105.75 329.224 105.584 329.684 105.253C330.148 104.917 330.38 104.514 330.38 104.045C330.38 103.667 330.247 103.349 329.982 103.094C329.717 102.833 329.31 102.639 328.76 102.511L326.942 102.085C325.943 101.848 325.209 101.482 324.74 100.984C324.276 100.482 324.044 99.8551 324.044 99.1023C324.044 98.4867 324.217 97.9422 324.563 97.4688C324.913 96.9953 325.389 96.6236 325.99 96.3537C326.596 96.0838 327.283 95.9489 328.05 95.9489C329.13 95.9489 329.977 96.1856 330.593 96.6591C331.213 97.1326 331.653 97.7576 331.914 98.5341ZM339.38 96.0909V97.5114H333.727V96.0909H339.38ZM335.374 93.4773H337.05V103.875C337.05 104.348 337.119 104.704 337.256 104.94C337.398 105.172 337.578 105.329 337.796 105.409C338.019 105.485 338.253 105.523 338.499 105.523C338.684 105.523 338.835 105.513 338.954 105.494C339.072 105.471 339.167 105.452 339.238 105.438L339.579 106.943C339.465 106.986 339.307 107.028 339.103 107.071C338.899 107.118 338.641 107.142 338.329 107.142C337.855 107.142 337.391 107.04 336.937 106.837C336.487 106.633 336.113 106.323 335.815 105.906C335.521 105.49 335.374 104.964 335.374 104.33V93.4773ZM346.358 107.227C345.307 107.227 344.4 106.995 343.638 106.531C342.88 106.062 342.295 105.409 341.884 104.571C341.476 103.728 341.273 102.748 341.273 101.631C341.273 100.513 341.476 99.5284 341.884 98.6761C342.295 97.8191 342.868 97.1515 343.602 96.6733C344.341 96.1903 345.203 95.9489 346.188 95.9489C346.756 95.9489 347.317 96.0436 347.871 96.233C348.425 96.4223 348.929 96.7301 349.384 97.1562C349.838 97.5777 350.2 98.1364 350.47 98.8324C350.74 99.5284 350.875 100.385 350.875 101.403V102.114H342.466V100.665H349.17C349.17 100.049 349.047 99.5 348.801 99.017C348.56 98.5341 348.214 98.1529 347.764 97.8736C347.319 97.5942 346.794 97.4545 346.188 97.4545C345.52 97.4545 344.942 97.6203 344.455 97.9517C343.972 98.2784 343.6 98.7045 343.339 99.2301C343.079 99.7557 342.949 100.319 342.949 100.92V101.886C342.949 102.71 343.091 103.409 343.375 103.982C343.664 104.55 344.064 104.983 344.575 105.281C345.087 105.575 345.681 105.722 346.358 105.722C346.798 105.722 347.196 105.66 347.551 105.537C347.911 105.409 348.221 105.22 348.482 104.969C348.742 104.713 348.943 104.396 349.085 104.017L350.705 104.472C350.534 105.021 350.248 105.504 349.845 105.92C349.443 106.332 348.946 106.654 348.354 106.886C347.762 107.114 347.097 107.227 346.358 107.227ZM353.425 107V96.0909H355.044V97.7386H355.158C355.357 97.1989 355.716 96.7609 356.237 96.4247C356.758 96.0885 357.345 95.9205 357.999 95.9205C358.122 95.9205 358.276 95.9228 358.46 95.9276C358.645 95.9323 358.785 95.9394 358.879 95.9489V97.6534C358.822 97.6392 358.692 97.6179 358.489 97.5895C358.29 97.5563 358.079 97.5398 357.857 97.5398C357.326 97.5398 356.853 97.651 356.436 97.8736C356.024 98.0914 355.697 98.3944 355.456 98.7827C355.219 99.1662 355.101 99.6042 355.101 100.097V107H353.425Z" fill="black"/>
<rect x="455.5" y="347.5" width="160" height="33" fill="#FEFE76" stroke="#FF0000" stroke-width="3"/>
<path d="M470.392 360.091V361.511H464.511V360.091H470.392ZM466.273 371V358.585C466.273 357.96 466.42 357.439 466.713 357.023C467.007 356.606 467.388 356.294 467.857 356.085C468.325 355.877 468.82 355.773 469.341 355.773C469.753 355.773 470.089 355.806 470.349 355.872C470.61 355.938 470.804 356 470.932 356.057L470.449 357.506C470.364 357.477 470.245 357.442 470.094 357.399C469.947 357.357 469.753 357.335 469.511 357.335C468.957 357.335 468.557 357.475 468.311 357.754C468.07 358.034 467.949 358.443 467.949 358.983V371H466.273ZM476.866 371.227C475.815 371.227 474.908 370.995 474.146 370.531C473.388 370.062 472.803 369.409 472.391 368.571C471.984 367.728 471.781 366.748 471.781 365.631C471.781 364.513 471.984 363.528 472.391 362.676C472.803 361.819 473.376 361.152 474.11 360.673C474.849 360.19 475.71 359.949 476.695 359.949C477.263 359.949 477.825 360.044 478.379 360.233C478.933 360.422 479.437 360.73 479.891 361.156C480.346 361.578 480.708 362.136 480.978 362.832C481.248 363.528 481.383 364.385 481.383 365.403V366.114H472.974V364.665H479.678C479.678 364.049 479.555 363.5 479.309 363.017C479.067 362.534 478.722 362.153 478.272 361.874C477.827 361.594 477.301 361.455 476.695 361.455C476.028 361.455 475.45 361.62 474.962 361.952C474.479 362.278 474.108 362.705 473.847 363.23C473.587 363.756 473.457 364.319 473.457 364.92V365.886C473.457 366.71 473.599 367.409 473.883 367.982C474.172 368.55 474.572 368.983 475.083 369.281C475.594 369.575 476.189 369.722 476.866 369.722C477.306 369.722 477.704 369.66 478.059 369.537C478.419 369.409 478.729 369.22 478.989 368.969C479.25 368.713 479.451 368.396 479.593 368.017L481.212 368.472C481.042 369.021 480.755 369.504 480.353 369.92C479.951 370.332 479.453 370.654 478.862 370.886C478.27 371.114 477.604 371.227 476.866 371.227ZM487.143 371.256C486.451 371.256 485.824 371.125 485.261 370.865C484.697 370.6 484.25 370.219 483.918 369.722C483.587 369.22 483.421 368.614 483.421 367.903C483.421 367.278 483.544 366.772 483.79 366.384C484.037 365.991 484.366 365.683 484.778 365.46C485.19 365.238 485.644 365.072 486.141 364.963C486.643 364.849 487.147 364.759 487.654 364.693C488.317 364.608 488.854 364.544 489.266 364.501C489.683 364.454 489.986 364.376 490.175 364.267C490.37 364.158 490.467 363.969 490.467 363.699V363.642C490.467 362.941 490.275 362.397 489.891 362.009C489.513 361.62 488.937 361.426 488.165 361.426C487.365 361.426 486.738 361.601 486.283 361.952C485.829 362.302 485.509 362.676 485.325 363.074L483.734 362.506C484.018 361.843 484.397 361.327 484.87 360.957C485.348 360.583 485.869 360.323 486.433 360.176C487.001 360.025 487.559 359.949 488.109 359.949C488.459 359.949 488.862 359.991 489.316 360.077C489.775 360.157 490.218 360.325 490.644 360.581C491.075 360.837 491.433 361.223 491.717 361.739C492.001 362.255 492.143 362.946 492.143 363.812V371H490.467V369.523H490.381C490.268 369.759 490.078 370.013 489.813 370.283C489.548 370.553 489.195 370.782 488.755 370.972C488.315 371.161 487.777 371.256 487.143 371.256ZM487.398 369.75C488.061 369.75 488.62 369.62 489.075 369.359C489.534 369.099 489.879 368.763 490.112 368.351C490.348 367.939 490.467 367.506 490.467 367.051V365.517C490.396 365.602 490.239 365.68 489.998 365.751C489.761 365.818 489.487 365.877 489.174 365.929C488.866 365.976 488.566 366.019 488.272 366.057C487.983 366.09 487.749 366.118 487.569 366.142C487.133 366.199 486.726 366.291 486.347 366.419C485.973 366.542 485.67 366.729 485.438 366.98C485.211 367.226 485.097 367.562 485.097 367.989C485.097 368.571 485.313 369.011 485.744 369.31C486.179 369.603 486.731 369.75 487.398 369.75ZM499.946 360.091V361.511H494.293V360.091H499.946ZM495.941 357.477H497.617V367.875C497.617 368.348 497.685 368.704 497.823 368.94C497.965 369.172 498.145 369.329 498.363 369.409C498.585 369.485 498.819 369.523 499.066 369.523C499.25 369.523 499.402 369.513 499.52 369.494C499.639 369.471 499.733 369.452 499.804 369.438L500.145 370.943C500.032 370.986 499.873 371.028 499.669 371.071C499.466 371.118 499.208 371.142 498.895 371.142C498.422 371.142 497.958 371.04 497.503 370.837C497.053 370.633 496.679 370.323 496.381 369.906C496.087 369.49 495.941 368.964 495.941 368.33V357.477ZM509.343 366.54V360.091H511.019V371H509.343V369.153H509.229C508.973 369.707 508.576 370.179 508.036 370.567C507.496 370.95 506.814 371.142 505.99 371.142C505.309 371.142 504.703 370.993 504.172 370.695C503.642 370.392 503.225 369.937 502.922 369.331C502.619 368.72 502.468 367.951 502.468 367.023V360.091H504.144V366.909C504.144 367.705 504.366 368.339 504.811 368.812C505.261 369.286 505.834 369.523 506.53 369.523C506.947 369.523 507.371 369.416 507.801 369.203C508.237 368.99 508.602 368.663 508.895 368.223C509.194 367.783 509.343 367.222 509.343 366.54ZM514.089 371V360.091H515.708V361.739H515.822C516.021 361.199 516.38 360.761 516.901 360.425C517.422 360.089 518.009 359.92 518.663 359.92C518.786 359.92 518.94 359.923 519.124 359.928C519.309 359.932 519.449 359.939 519.543 359.949V361.653C519.487 361.639 519.356 361.618 519.153 361.589C518.954 361.556 518.743 361.54 518.521 361.54C517.99 361.54 517.517 361.651 517.1 361.874C516.688 362.091 516.362 362.394 516.12 362.783C515.883 363.166 515.765 363.604 515.765 364.097V371H514.089ZM525.772 371.227C524.721 371.227 523.814 370.995 523.052 370.531C522.294 370.062 521.71 369.409 521.298 368.571C520.89 367.728 520.687 366.748 520.687 365.631C520.687 364.513 520.89 363.528 521.298 362.676C521.71 361.819 522.282 361.152 523.016 360.673C523.755 360.19 524.617 359.949 525.602 359.949C526.17 359.949 526.731 360.044 527.285 360.233C527.839 360.422 528.343 360.73 528.798 361.156C529.252 361.578 529.614 362.136 529.884 362.832C530.154 363.528 530.289 364.385 530.289 365.403V366.114H521.88V364.665H528.585C528.585 364.049 528.461 363.5 528.215 363.017C527.974 362.534 527.628 362.153 527.178 361.874C526.733 361.594 526.208 361.455 525.602 361.455C524.934 361.455 524.356 361.62 523.869 361.952C523.386 362.278 523.014 362.705 522.754 363.23C522.493 363.756 522.363 364.319 522.363 364.92V365.886C522.363 366.71 522.505 367.409 522.789 367.982C523.078 368.55 523.478 368.983 523.989 369.281C524.501 369.575 525.095 369.722 525.772 369.722C526.212 369.722 526.61 369.66 526.965 369.537C527.325 369.409 527.635 369.22 527.896 368.969C528.156 368.713 528.357 368.396 528.499 368.017L530.119 368.472C529.948 369.021 529.662 369.504 529.259 369.92C528.857 370.332 528.36 370.654 527.768 370.886C527.176 371.114 526.511 371.227 525.772 371.227ZM539.089 363.983V365.545H532.725V363.983H539.089ZM542.265 371V356.455H543.941V361.824H544.083C544.207 361.634 544.377 361.393 544.595 361.099C544.817 360.801 545.135 360.536 545.547 360.304C545.963 360.067 546.527 359.949 547.237 359.949C548.155 359.949 548.965 360.179 549.666 360.638C550.367 361.097 550.913 361.748 551.306 362.591C551.699 363.434 551.896 364.428 551.896 365.574C551.896 366.729 551.699 367.731 551.306 368.578C550.913 369.421 550.369 370.074 549.673 370.538C548.977 370.998 548.174 371.227 547.265 371.227C546.565 371.227 546.003 371.111 545.582 370.879C545.161 370.643 544.836 370.375 544.609 370.077C544.382 369.774 544.207 369.523 544.083 369.324H543.885V371H542.265ZM543.913 365.545C543.913 366.369 544.034 367.096 544.275 367.726C544.517 368.351 544.869 368.841 545.333 369.196C545.797 369.546 546.366 369.722 547.038 369.722C547.739 369.722 548.324 369.537 548.792 369.168C549.266 368.794 549.621 368.292 549.858 367.662C550.099 367.027 550.22 366.322 550.22 365.545C550.22 364.778 550.101 364.087 549.865 363.472C549.633 362.851 549.28 362.361 548.806 362.001C548.338 361.637 547.748 361.455 547.038 361.455C546.356 361.455 545.783 361.627 545.319 361.973C544.855 362.314 544.505 362.792 544.268 363.408C544.031 364.018 543.913 364.731 543.913 365.545ZM554.46 371V360.091H556.079V361.739H556.193C556.392 361.199 556.752 360.761 557.272 360.425C557.793 360.089 558.38 359.92 559.034 359.92C559.157 359.92 559.311 359.923 559.495 359.928C559.68 359.932 559.82 359.939 559.914 359.949V361.653C559.858 361.639 559.727 361.618 559.524 361.589C559.325 361.556 559.114 361.54 558.892 361.54C558.361 361.54 557.888 361.651 557.471 361.874C557.059 362.091 556.733 362.394 556.491 362.783C556.254 363.166 556.136 363.604 556.136 364.097V371H554.46ZM565.112 371.256C564.42 371.256 563.793 371.125 563.229 370.865C562.666 370.6 562.219 370.219 561.887 369.722C561.556 369.22 561.39 368.614 561.39 367.903C561.39 367.278 561.513 366.772 561.759 366.384C562.005 365.991 562.335 365.683 562.746 365.46C563.158 365.238 563.613 365.072 564.11 364.963C564.612 364.849 565.116 364.759 565.623 364.693C566.286 364.608 566.823 364.544 567.235 364.501C567.652 364.454 567.955 364.376 568.144 364.267C568.338 364.158 568.435 363.969 568.435 363.699V363.642C568.435 362.941 568.244 362.397 567.86 362.009C567.481 361.62 566.906 361.426 566.134 361.426C565.334 361.426 564.707 361.601 564.252 361.952C563.798 362.302 563.478 362.676 563.293 363.074L561.702 362.506C561.987 361.843 562.365 361.327 562.839 360.957C563.317 360.583 563.838 360.323 564.401 360.176C564.969 360.025 565.528 359.949 566.077 359.949C566.428 359.949 566.83 359.991 567.285 360.077C567.744 360.157 568.187 360.325 568.613 360.581C569.044 360.837 569.401 361.223 569.685 361.739C569.969 362.255 570.112 362.946 570.112 363.812V371H568.435V369.523H568.35C568.237 369.759 568.047 370.013 567.782 370.283C567.517 370.553 567.164 370.782 566.724 370.972C566.283 371.161 565.746 371.256 565.112 371.256ZM565.367 369.75C566.03 369.75 566.589 369.62 567.043 369.359C567.503 369.099 567.848 368.763 568.08 368.351C568.317 367.939 568.435 367.506 568.435 367.051V365.517C568.364 365.602 568.208 365.68 567.967 365.751C567.73 365.818 567.455 365.877 567.143 365.929C566.835 365.976 566.534 366.019 566.241 366.057C565.952 366.09 565.718 366.118 565.538 366.142C565.102 366.199 564.695 366.291 564.316 366.419C563.942 366.542 563.639 366.729 563.407 366.98C563.18 367.226 563.066 367.562 563.066 367.989C563.066 368.571 563.281 369.011 563.712 369.31C564.148 369.603 564.7 369.75 565.367 369.75ZM574.847 364.438V371H573.171V360.091H574.79V361.795H574.932C575.188 361.241 575.576 360.796 576.097 360.46C576.618 360.119 577.29 359.949 578.114 359.949C578.853 359.949 579.499 360.1 580.053 360.403C580.607 360.702 581.038 361.156 581.346 361.767C581.653 362.373 581.807 363.14 581.807 364.068V371H580.131V364.182C580.131 363.325 579.908 362.657 579.463 362.179C579.018 361.696 578.408 361.455 577.631 361.455C577.096 361.455 576.618 361.571 576.196 361.803C575.78 362.035 575.451 362.373 575.209 362.818C574.968 363.263 574.847 363.803 574.847 364.438ZM589.302 371.227C588.279 371.227 587.398 370.986 586.66 370.503C585.921 370.02 585.353 369.355 584.955 368.507C584.558 367.66 584.359 366.691 584.359 365.602C584.359 364.494 584.562 363.517 584.969 362.669C585.381 361.817 585.954 361.152 586.688 360.673C587.427 360.19 588.289 359.949 589.273 359.949C590.04 359.949 590.732 360.091 591.347 360.375C591.963 360.659 592.467 361.057 592.86 361.568C593.253 362.08 593.497 362.676 593.592 363.358H591.915C591.788 362.861 591.504 362.42 591.063 362.037C590.628 361.649 590.04 361.455 589.302 361.455C588.648 361.455 588.076 361.625 587.583 361.966C587.095 362.302 586.714 362.778 586.44 363.393C586.17 364.004 586.035 364.722 586.035 365.545C586.035 366.388 586.167 367.122 586.433 367.747C586.702 368.372 587.081 368.857 587.569 369.203C588.061 369.549 588.639 369.722 589.302 369.722C589.737 369.722 590.133 369.646 590.488 369.494C590.843 369.343 591.144 369.125 591.39 368.841C591.636 368.557 591.811 368.216 591.915 367.818H593.592C593.497 368.462 593.263 369.042 592.888 369.558C592.519 370.07 592.029 370.477 591.418 370.78C590.812 371.078 590.107 371.227 589.302 371.227ZM597.718 364.438V371H596.042V356.455H597.718V361.795H597.86C598.116 361.232 598.499 360.785 599.011 360.453C599.527 360.117 600.213 359.949 601.07 359.949C601.814 359.949 602.465 360.098 603.023 360.396C603.582 360.69 604.015 361.142 604.323 361.753C604.636 362.359 604.792 363.131 604.792 364.068V371H603.116V364.182C603.116 363.315 602.891 362.645 602.441 362.172C601.996 361.694 601.378 361.455 600.587 361.455C600.038 361.455 599.546 361.571 599.11 361.803C598.679 362.035 598.338 362.373 598.087 362.818C597.841 363.263 597.718 363.803 597.718 364.438Z" fill="black"/>
<path d="M327 147L335.66 132H318.34L327 147ZM327 117H325.5V133.5H327H328.5V117H327Z" fill="#FF0000"/>
<path d="M536 316L527.34 331H544.66L536 316ZM536 346H537.5V329.5H536H534.5V346H536Z" fill="#FF0000"/>
<rect x="32.5" y="147.5" width="166" height="71" rx="19.5" fill="#76D1FE" stroke="#897F7F"/>
<path d="M61.5341 190V179.091H63.2102V183.835H64.3182L68.2386 179.091H70.3977L65.9943 184.347L70.4545 190H68.2955L64.7159 185.398H63.2102V190H61.5341ZM76.2589 190.227C75.274 190.227 74.4099 189.993 73.6665 189.524C72.9279 189.055 72.3503 188.4 71.9336 187.557C71.5217 186.714 71.3157 185.729 71.3157 184.602C71.3157 183.466 71.5217 182.474 71.9336 181.626C72.3503 180.779 72.9279 180.121 73.6665 179.652C74.4099 179.183 75.274 178.949 76.2589 178.949C77.2437 178.949 78.1055 179.183 78.8441 179.652C79.5875 180.121 80.1651 180.779 80.5771 181.626C80.9937 182.474 81.2021 183.466 81.2021 184.602C81.2021 185.729 80.9937 186.714 80.5771 187.557C80.1651 188.4 79.5875 189.055 78.8441 189.524C78.1055 189.993 77.2437 190.227 76.2589 190.227ZM76.2589 188.722C77.007 188.722 77.6225 188.53 78.1055 188.146C78.5884 187.763 78.9459 187.259 79.1779 186.634C79.4099 186.009 79.5259 185.331 79.5259 184.602C79.5259 183.873 79.4099 183.194 79.1779 182.564C78.9459 181.934 78.5884 181.425 78.1055 181.037C77.6225 180.649 77.007 180.455 76.2589 180.455C75.5108 180.455 74.8952 180.649 74.4123 181.037C73.9293 181.425 73.5719 181.934 73.3398 182.564C73.1078 183.194 72.9918 183.873 72.9918 184.602C72.9918 185.331 73.1078 186.009 73.3398 186.634C73.5719 187.259 73.9293 187.763 74.4123 188.146C74.8952 188.53 75.5108 188.722 76.2589 188.722ZM89.7266 187.727L93.5334 179.091H95.1243L90.4084 190H89.0447L84.4141 179.091H85.9766L89.7266 187.727ZM85.4368 179.091V190H83.7607V179.091H85.4368ZM94.0163 190V179.091H95.6925V190H94.0163ZM104.727 187.727L108.533 179.091H110.124L105.408 190H104.045L99.4141 179.091H100.977L104.727 187.727ZM100.437 179.091V190H98.7607V179.091H100.437ZM109.016 190V179.091H110.692V190H109.016ZM115.437 187.528L120.692 179.091H122.624V190H120.948V181.562L115.721 190H113.761V179.091H115.437V187.528ZM124.21 180.653V179.091H133.074V180.653H129.494V190H127.818V180.653H124.21ZM141.967 190H140.121L145.462 175.455H147.28L152.621 190H150.774L146.428 177.756H146.314L141.967 190ZM142.649 184.318H150.092V185.881H142.649V184.318ZM160.909 181.946V183.509H154.545V181.946H160.909ZM168.944 175.455V190H167.182V177.301H167.097L163.546 179.659V177.869L167.182 175.455H168.944Z" fill="black"/>
<rect x="242.5" y="147.5" width="166" height="71" rx="19.5" fill="#76D1FE" stroke="#897F7F"/>
<path d="M271.534 190V179.091H273.21V183.835H274.318L278.239 179.091H280.398L275.994 184.347L280.455 190H278.295L274.716 185.398H273.21V190H271.534ZM286.259 190.227C285.274 190.227 284.41 189.993 283.667 189.524C282.928 189.055 282.35 188.4 281.934 187.557C281.522 186.714 281.316 185.729 281.316 184.602C281.316 183.466 281.522 182.474 281.934 181.626C282.35 180.779 282.928 180.121 283.667 179.652C284.41 179.183 285.274 178.949 286.259 178.949C287.244 178.949 288.105 179.183 288.844 179.652C289.587 180.121 290.165 180.779 290.577 181.626C290.994 182.474 291.202 183.466 291.202 184.602C291.202 185.729 290.994 186.714 290.577 187.557C290.165 188.4 289.587 189.055 288.844 189.524C288.105 189.993 287.244 190.227 286.259 190.227ZM286.259 188.722C287.007 188.722 287.623 188.53 288.105 188.146C288.588 187.763 288.946 187.259 289.178 186.634C289.41 186.009 289.526 185.331 289.526 184.602C289.526 183.873 289.41 183.194 289.178 182.564C288.946 181.934 288.588 181.425 288.105 181.037C287.623 180.649 287.007 180.455 286.259 180.455C285.511 180.455 284.895 180.649 284.412 181.037C283.929 181.425 283.572 181.934 283.34 182.564C283.108 183.194 282.992 183.873 282.992 184.602C282.992 185.331 283.108 186.009 283.34 186.634C283.572 187.259 283.929 187.763 284.412 188.146C284.895 188.53 285.511 188.722 286.259 188.722ZM299.727 187.727L303.533 179.091H305.124L300.408 190H299.045L294.414 179.091H295.977L299.727 187.727ZM295.437 179.091V190H293.761V179.091H295.437ZM304.016 190V179.091H305.692V190H304.016ZM314.727 187.727L318.533 179.091H320.124L315.408 190H314.045L309.414 179.091H310.977L314.727 187.727ZM310.437 179.091V190H308.761V179.091H310.437ZM319.016 190V179.091H320.692V190H319.016ZM325.437 187.528L330.692 179.091H332.624V190H330.948V181.562L325.721 190H323.761V179.091H325.437V187.528ZM334.21 180.653V179.091H343.074V180.653H339.494V190H337.818V180.653H334.21ZM351.967 190H350.121L355.462 175.455H357.28L362.621 190H360.774L356.428 177.756H356.314L351.967 190ZM352.649 184.318H360.092V185.881H352.649V184.318ZM370.909 181.946V183.509H364.545V181.946H370.909ZM373.146 190V188.722L377.947 183.466C378.511 182.85 378.975 182.315 379.339 181.861C379.704 181.402 379.974 180.971 380.149 180.568C380.329 180.161 380.419 179.735 380.419 179.29C380.419 178.778 380.296 178.336 380.05 177.962C379.808 177.588 379.477 177.299 379.055 177.095C378.634 176.892 378.161 176.79 377.635 176.79C377.076 176.79 376.589 176.906 376.172 177.138C375.76 177.365 375.44 177.685 375.213 178.097C374.991 178.509 374.879 178.991 374.879 179.545H373.203C373.203 178.693 373.4 177.945 373.793 177.301C374.186 176.657 374.721 176.155 375.398 175.795C376.08 175.436 376.844 175.256 377.692 175.256C378.544 175.256 379.299 175.436 379.957 175.795C380.616 176.155 381.132 176.641 381.506 177.251C381.88 177.862 382.067 178.542 382.067 179.29C382.067 179.825 381.97 180.348 381.776 180.859C381.586 181.366 381.255 181.932 380.781 182.557C380.312 183.177 379.661 183.935 378.828 184.83L375.561 188.324V188.438H382.322V190H373.146Z" fill="black"/>
<rect x="452.5" y="244.5" width="166" height="71" rx="19.5" fill="#FEFE76" stroke="#897F7F"/>
<path d="M481.534 287V276.091H483.21V280.835H484.318L488.239 276.091H490.398L485.994 281.347L490.455 287H488.295L484.716 282.398H483.21V287H481.534ZM496.259 287.227C495.274 287.227 494.41 286.993 493.667 286.524C492.928 286.055 492.35 285.4 491.934 284.557C491.522 283.714 491.316 282.729 491.316 281.602C491.316 280.466 491.522 279.474 491.934 278.626C492.35 277.779 492.928 277.121 493.667 276.652C494.41 276.183 495.274 275.949 496.259 275.949C497.244 275.949 498.105 276.183 498.844 276.652C499.587 277.121 500.165 277.779 500.577 278.626C500.994 279.474 501.202 280.466 501.202 281.602C501.202 282.729 500.994 283.714 500.577 284.557C500.165 285.4 499.587 286.055 498.844 286.524C498.105 286.993 497.244 287.227 496.259 287.227ZM496.259 285.722C497.007 285.722 497.623 285.53 498.105 285.146C498.588 284.763 498.946 284.259 499.178 283.634C499.41 283.009 499.526 282.331 499.526 281.602C499.526 280.873 499.41 280.194 499.178 279.564C498.946 278.934 498.588 278.425 498.105 278.037C497.623 277.649 497.007 277.455 496.259 277.455C495.511 277.455 494.895 277.649 494.412 278.037C493.929 278.425 493.572 278.934 493.34 279.564C493.108 280.194 492.992 280.873 492.992 281.602C492.992 282.331 493.108 283.009 493.34 283.634C493.572 284.259 493.929 284.763 494.412 285.146C494.895 285.53 495.511 285.722 496.259 285.722ZM509.727 284.727L513.533 276.091H515.124L510.408 287H509.045L504.414 276.091H505.977L509.727 284.727ZM505.437 276.091V287H503.761V276.091H505.437ZM514.016 287V276.091H515.692V287H514.016ZM524.727 284.727L528.533 276.091H530.124L525.408 287H524.045L519.414 276.091H520.977L524.727 284.727ZM520.437 276.091V287H518.761V276.091H520.437ZM529.016 287V276.091H530.692V287H529.016ZM535.437 284.528L540.692 276.091H542.624V287H540.948V278.562L535.721 287H533.761V276.091H535.437V284.528ZM544.21 277.653V276.091H553.074V277.653H549.494V287H547.818V277.653H544.21ZM561.371 287V272.455H570.149V274.017H563.132V278.562H566.825C567.867 278.562 568.745 278.733 569.46 279.074C570.18 279.415 570.724 279.895 571.094 280.516C571.468 281.136 571.655 281.867 571.655 282.71C571.655 283.553 571.468 284.296 571.094 284.94C570.724 285.584 570.18 286.089 569.46 286.453C568.745 286.818 567.867 287 566.825 287H561.371ZM563.132 285.466H566.825C567.488 285.466 568.049 285.333 568.509 285.068C568.973 284.798 569.323 284.453 569.56 284.031C569.801 283.605 569.922 283.155 569.922 282.682C569.922 281.986 569.654 281.387 569.119 280.885C568.584 280.378 567.82 280.125 566.825 280.125H563.132V285.466ZM580.577 278.946V280.509H574.213V278.946H580.577ZM588.612 272.455V287H586.85V274.301H586.765L583.214 276.659V274.869L586.85 272.455H588.612Z" fill="black"/>
<path d="M242.707 183.707C243.098 183.317 243.098 182.683 242.707 182.293L236.343 175.929C235.953 175.538 235.319 175.538 234.929 175.929C234.538 176.319 234.538 176.953 234.929 177.343L240.586 183L234.929 188.657C234.538 189.047 234.538 189.681 234.929 190.071C235.319 190.462 235.953 190.462 236.343 190.071L242.707 183.707ZM199 183V184H201.15V183V182H199V183ZM205.45 183V184H209.75V183V182H205.45V183ZM214.05 183V184H218.35V183V182H214.05V183ZM222.65 183V184H226.95V183V182H222.65V183ZM231.25 183V184H235.55V183V182H231.25V183ZM239.85 183V184H242V183V182H239.85V183ZM242.707 183.707C243.098 183.317 243.098 182.683 242.707 182.293L236.343 175.929C235.953 175.538 235.319 175.538 234.929 175.929C234.538 176.319 234.538 176.953 234.929 177.343L240.586 183L234.929 188.657C234.538 189.047 234.538 189.681 234.929 190.071C235.319 190.462 235.953 190.462 236.343 190.071L242.707 183.707ZM199 183V184H201.15V183V182H199V183ZM205.45 183V184H209.75V183V182H205.45V183ZM214.05 183V184H218.35V183V182H214.05V183ZM222.65 183V184H226.95V183V182H222.65V183ZM231.25 183V184H235.55V183V182H231.25V183ZM239.85 183V184H242V183V182H239.85V183Z" fill="black"/>
<path d="M424.001 183L425.001 183L425.001 182L424.001 182L424.001 183ZM424.001 280L423.001 280L423.001 281L424.001 281L424.001 280ZM452.708 280.707C453.098 280.316 453.098 279.683 452.708 279.293L446.344 272.929C445.953 272.538 445.32 272.538 444.929 272.929C444.539 273.319 444.539 273.952 444.929 274.343L450.586 280L444.929 285.657C444.539 286.047 444.539 286.68 444.929 287.071C445.32 287.461 445.953 287.461 446.344 287.071L452.708 280.707ZM409 183L409 184L410.876 184L410.876 183L410.876 182L409 182L409 183ZM414.626 183L414.626 184L418.376 184L418.376 183L418.376 182L414.626 182L414.626 183ZM422.126 183L422.126 184L424.001 184L424.001 183L424.001 182L422.126 182L422.126 183ZM424.001 183L423.001 183L423.001 185.021L424.001 185.021L425.001 185.021L425.001 183L424.001 183ZM424.001 189.062L423.001 189.062L423.001 193.104L424.001 193.104L425.001 193.104L425.001 189.062L424.001 189.062ZM424.001 197.146L423.001 197.146L423.001 201.187L424.001 201.187L425.001 201.187L425.001 197.146L424.001 197.146ZM424.001 205.229L423.001 205.229L423.001 209.271L424.001 209.271L425.001 209.271L425.001 205.229L424.001 205.229ZM424.001 213.312L423.001 213.312L423.001 217.354L424.001 217.354L425.001 217.354L425.001 213.312L424.001 213.312ZM424.001 221.396L423.001 221.396L423.001 225.437L424.001 225.437L425.001 225.437L425.001 221.396L424.001 221.396ZM424.001 229.479L423.001 229.479L423.001 233.521L424.001 233.521L425.001 233.521L425.001 229.479L424.001 229.479ZM424.001 237.562L423.001 237.562L423.001 241.604L424.001 241.604L425.001 241.604L425.001 237.562L424.001 237.562ZM424.001 245.646L423.001 245.646L423.001 249.687L424.001 249.687L425.001 249.687L425.001 245.646L424.001 245.646ZM424.001 253.729L423.001 253.729L423.001 257.771L424.001 257.771L425.001 257.771L425.001 253.729L424.001 253.729ZM424.001 261.812L423.001 261.812L423.001 265.854L424.001 265.854L425.001 265.854L425.001 261.812L424.001 261.812ZM424.001 269.896L423.001 269.896L423.001 273.937L424.001 273.937L425.001 273.937L425.001 269.896L424.001 269.896ZM424.001 277.979L423.001 277.979L423.001 280L424.001 280L425.001 280L425.001 277.979L424.001 277.979ZM424.001 280L424.001 281L426.334 281L426.334 280L426.334 279L424.001 279L424.001 280ZM431.001 280L431.001 281L435.667 281L435.667 280L435.667 279L431.001 279L431.001 280ZM440.334 280L440.334 281L445.001 281L445.001 280L445.001 279L440.334 279L440.334 280ZM449.667 280L449.667 281L452 281L452 280L452 279L449.667 279L449.667 280ZM424.001 183L425.001 183L425.001 182L424.001 182L424.001 183ZM424.001 280L423.001 280L423.001 281L424.001 281L424.001 280ZM452.708 280.707C453.098 280.316 453.098 279.683 452.708 279.293L446.344 272.929C445.953 272.538 445.32 272.538 444.929 272.929C444.539 273.319 444.539 273.952 444.929 274.343L450.586 280L444.929 285.657C444.539 286.047 444.539 286.68 444.929 287.071C445.32 287.461 445.953 287.461 446.344 287.071L452.708 280.707ZM409 183L409 184L410.876 184L410.876 183L410.876 182L409 182L409 183ZM414.626 183L414.626 184L418.376 184L418.376 183L418.376 182L414.626 182L414.626 183ZM422.126 183L422.126 184L424.001 184L424.001 183L424.001 182L422.126 182L422.126 183ZM424.001 183L423.001 183L423.001 185.021L424.001 185.021L425.001 185.021L425.001 183L424.001 183ZM424.001 189.062L423.001 189.062L423.001 193.104L424.001 193.104L425.001 193.104L425.001 189.062L424.001 189.062ZM424.001 197.146L423.001 197.146L423.001 201.187L424.001 201.187L425.001 201.187L425.001 197.146L424.001 197.146ZM424.001 205.229L423.001 205.229L423.001 209.271L424.001 209.271L425.001 209.271L425.001 205.229L424.001 205.229ZM424.001 213.312L423.001 213.312L423.001 217.354L424.001 217.354L425.001 217.354L425.001 213.312L424.001 213.312ZM424.001 221.396L423.001 221.396L423.001 225.437L424.001 225.437L425.001 225.437L425.001 221.396L424.001 221.396ZM424.001 229.479L423.001 229.479L423.001 233.521L424.001 233.521L425.001 233.521L425.001 229.479L424.001 229.479ZM424.001 237.562L423.001 237.562L423.001 241.604L424.001 241.604L425.001 241.604L425.001 237.562L424.001 237.562ZM424.001 245.646L423.001 245.646L423.001 249.687L424.001 249.687L425.001 249.687L425.001 245.646L424.001 245.646ZM424.001 253.729L423.001 253.729L423.001 257.771L424.001 257.771L425.001 257.771L425.001 253.729L424.001 253.729ZM424.001 261.812L423.001 261.812L423.001 265.854L424.001 265.854L425.001 265.854L425.001 261.812L424.001 261.812ZM424.001 269.896L423.001 269.896L423.001 273.937L424.001 273.937L425.001 273.937L425.001 269.896L424.001 269.896ZM424.001 277.979L423.001 277.979L423.001 280L424.001 280L425.001 280L425.001 277.979L424.001 277.979ZM424.001 280L424.001 281L426.334 281L426.334 280L426.334 279L424.001 279L424.001 280ZM431.001 280L431.001 281L435.667 281L435.667 280L435.667 279L431.001 279L431.001 280ZM440.334 280L440.334 281L445.001 281L445.001 280L445.001 279L440.334 279L440.334 280ZM449.667 280L449.667 281L452 281L452 280L452 279L449.667 279L449.667 280Z" fill="black"/>
<rect x="10.5" y="30.5" width="630" height="396" stroke="black" stroke-dasharray="2 2"/>
<path d="M24.1648 419.199C23.1894 419.199 22.3277 419.026 21.5795 418.68C20.8362 418.33 20.2562 417.849 19.8395 417.239C19.4228 416.623 19.2169 415.922 19.2216 415.136C19.2169 414.521 19.3376 413.953 19.5838 413.432C19.83 412.906 20.1662 412.468 20.5923 412.118C21.0232 411.763 21.5038 411.538 22.0341 411.443V411.358C21.3381 411.178 20.7841 410.787 20.3722 410.186C19.9602 409.58 19.7566 408.891 19.7614 408.119C19.7566 407.381 19.9437 406.72 20.3224 406.138C20.7012 405.555 21.2221 405.096 21.8849 404.76C22.5526 404.424 23.3125 404.256 24.1648 404.256C25.0076 404.256 25.7604 404.424 26.4233 404.76C27.0862 405.096 27.607 405.555 27.9858 406.138C28.3693 406.72 28.5634 407.381 28.5682 408.119C28.5634 408.891 28.3527 409.58 27.9361 410.186C27.5241 410.787 26.9773 411.178 26.2955 411.358V411.443C26.821 411.538 27.2945 411.763 27.7159 412.118C28.1373 412.468 28.4735 412.906 28.7244 413.432C28.9754 413.953 29.1032 414.521 29.108 415.136C29.1032 415.922 28.8902 416.623 28.4688 417.239C28.0521 417.849 27.4721 418.33 26.7287 418.68C25.9901 419.026 25.1354 419.199 24.1648 419.199ZM24.1648 417.636C24.8229 417.636 25.3911 417.53 25.8693 417.317C26.3475 417.104 26.7169 416.803 26.9773 416.415C27.2377 416.027 27.3703 415.572 27.375 415.051C27.3703 414.502 27.2282 414.017 26.9489 413.595C26.6695 413.174 26.2884 412.842 25.8054 412.601C25.3272 412.359 24.7803 412.239 24.1648 412.239C23.5445 412.239 22.9905 412.359 22.5028 412.601C22.0199 412.842 21.6387 413.174 21.3594 413.595C21.0848 414.017 20.9498 414.502 20.9545 415.051C20.9498 415.572 21.0753 416.027 21.331 416.415C21.5914 416.803 21.9631 417.104 22.446 417.317C22.929 417.53 23.5019 417.636 24.1648 417.636ZM24.1648 410.733C24.6856 410.733 25.1473 410.629 25.5497 410.42C25.9569 410.212 26.2765 409.921 26.5085 409.547C26.7405 409.173 26.8589 408.735 26.8636 408.233C26.8589 407.741 26.7429 407.312 26.5156 406.947C26.2884 406.578 25.9735 406.294 25.571 406.095C25.1686 405.892 24.6998 405.79 24.1648 405.79C23.6203 405.79 23.1444 405.892 22.7372 406.095C22.33 406.294 22.0152 406.578 21.7926 406.947C21.5701 407.312 21.4612 407.741 21.4659 408.233C21.4612 408.735 21.5724 409.173 21.7997 409.547C22.0317 409.921 22.3513 410.212 22.7585 410.42C23.1657 410.629 23.6345 410.733 24.1648 410.733Z" fill="black"/>
</svg>
