<svg width="438" height="378" viewBox="0 0 438 378" fill="none" xmlns="http://www.w3.org/2000/svg">
<rect x="278.5" y="59.5" width="96" height="56" fill="#76D1FE" stroke="#FF0000" stroke-width="3"/>
<path d="M317.716 103H314.023L324.705 73.9091H328.341L339.023 103H335.33L326.636 78.5114H326.409L317.716 103ZM319.08 91.6364H333.966V94.7614H319.08V91.6364Z" fill="black"/>
<rect x="278.5" y="250.5" width="96" height="56" fill="#FEFE76" stroke="#FF0000" stroke-width="3"/>
<path d="M316.523 294V264.909H334.08V268.034H320.045V277.125H327.432C329.515 277.125 331.272 277.466 332.702 278.148C334.141 278.83 335.23 279.791 335.969 281.031C336.717 282.272 337.091 283.735 337.091 285.42C337.091 287.106 336.717 288.593 335.969 289.881C335.23 291.169 334.141 292.177 332.702 292.906C331.272 293.635 329.515 294 327.432 294H316.523ZM320.045 290.932H327.432C328.758 290.932 329.88 290.667 330.798 290.136C331.726 289.597 332.427 288.905 332.901 288.062C333.384 287.21 333.625 286.311 333.625 285.364C333.625 283.972 333.09 282.774 332.02 281.77C330.95 280.757 329.42 280.25 327.432 280.25H320.045V290.932Z" fill="black"/>
<path d="M327 147L335.66 132H318.34L327 147ZM327 117H325.5V133.5H327H328.5V117H327Z" fill="#FF0000"/>
<path d="M327 219L318.34 234H335.66L327 219ZM327 249H328.5V232.5H327H325.5V249H327Z" fill="#FF0000"/>
<rect x="32.5" y="147.5" width="166" height="71" rx="19.5" fill="#76D1FE" stroke="#897F7F"/>
<path d="M61.5341 190V179.091H63.2102V183.835H64.3182L68.2386 179.091H70.3977L65.9943 184.347L70.4545 190H68.2955L64.7159 185.398H63.2102V190H61.5341ZM76.2589 190.227C75.274 190.227 74.4099 189.993 73.6665 189.524C72.9279 189.055 72.3503 188.4 71.9336 187.557C71.5217 186.714 71.3157 185.729 71.3157 184.602C71.3157 183.466 71.5217 182.474 71.9336 181.626C72.3503 180.779 72.9279 180.121 73.6665 179.652C74.4099 179.183 75.274 178.949 76.2589 178.949C77.2437 178.949 78.1055 179.183 78.8441 179.652C79.5875 180.121 80.1651 180.779 80.5771 181.626C80.9937 182.474 81.2021 183.466 81.2021 184.602C81.2021 185.729 80.9937 186.714 80.5771 187.557C80.1651 188.4 79.5875 189.055 78.8441 189.524C78.1055 189.993 77.2437 190.227 76.2589 190.227ZM76.2589 188.722C77.007 188.722 77.6225 188.53 78.1055 188.146C78.5884 187.763 78.9459 187.259 79.1779 186.634C79.4099 186.009 79.5259 185.331 79.5259 184.602C79.5259 183.873 79.4099 183.194 79.1779 182.564C78.9459 181.934 78.5884 181.425 78.1055 181.037C77.6225 180.649 77.007 180.455 76.2589 180.455C75.5108 180.455 74.8952 180.649 74.4123 181.037C73.9293 181.425 73.5719 181.934 73.3398 182.564C73.1078 183.194 72.9918 183.873 72.9918 184.602C72.9918 185.331 73.1078 186.009 73.3398 186.634C73.5719 187.259 73.9293 187.763 74.4123 188.146C74.8952 188.53 75.5108 188.722 76.2589 188.722ZM89.7266 187.727L93.5334 179.091H95.1243L90.4084 190H89.0447L84.4141 179.091H85.9766L89.7266 187.727ZM85.4368 179.091V190H83.7607V179.091H85.4368ZM94.0163 190V179.091H95.6925V190H94.0163ZM104.727 187.727L108.533 179.091H110.124L105.408 190H104.045L99.4141 179.091H100.977L104.727 187.727ZM100.437 179.091V190H98.7607V179.091H100.437ZM109.016 190V179.091H110.692V190H109.016ZM115.437 187.528L120.692 179.091H122.624V190H120.948V181.562L115.721 190H113.761V179.091H115.437V187.528ZM124.21 180.653V179.091H133.074V180.653H129.494V190H127.818V180.653H124.21ZM141.967 190H140.121L145.462 175.455H147.28L152.621 190H150.774L146.428 177.756H146.314L141.967 190ZM142.649 184.318H150.092V185.881H142.649V184.318ZM160.909 181.946V183.509H154.545V181.946H160.909ZM168.944 175.455V190H167.182V177.301H167.097L163.546 179.659V177.869L167.182 175.455H168.944Z" fill="black"/>
<rect x="242.5" y="147.5" width="166" height="71" rx="19.5" fill="#76D1FE" stroke="#897F7F"/>
<path d="M271.534 190V179.091H273.21V183.835H274.318L278.239 179.091H280.398L275.994 184.347L280.455 190H278.295L274.716 185.398H273.21V190H271.534ZM286.259 190.227C285.274 190.227 284.41 189.993 283.667 189.524C282.928 189.055 282.35 188.4 281.934 187.557C281.522 186.714 281.316 185.729 281.316 184.602C281.316 183.466 281.522 182.474 281.934 181.626C282.35 180.779 282.928 180.121 283.667 179.652C284.41 179.183 285.274 178.949 286.259 178.949C287.244 178.949 288.105 179.183 288.844 179.652C289.587 180.121 290.165 180.779 290.577 181.626C290.994 182.474 291.202 183.466 291.202 184.602C291.202 185.729 290.994 186.714 290.577 187.557C290.165 188.4 289.587 189.055 288.844 189.524C288.105 189.993 287.244 190.227 286.259 190.227ZM286.259 188.722C287.007 188.722 287.623 188.53 288.105 188.146C288.588 187.763 288.946 187.259 289.178 186.634C289.41 186.009 289.526 185.331 289.526 184.602C289.526 183.873 289.41 183.194 289.178 182.564C288.946 181.934 288.588 181.425 288.105 181.037C287.623 180.649 287.007 180.455 286.259 180.455C285.511 180.455 284.895 180.649 284.412 181.037C283.929 181.425 283.572 181.934 283.34 182.564C283.108 183.194 282.992 183.873 282.992 184.602C282.992 185.331 283.108 186.009 283.34 186.634C283.572 187.259 283.929 187.763 284.412 188.146C284.895 188.53 285.511 188.722 286.259 188.722ZM299.727 187.727L303.533 179.091H305.124L300.408 190H299.045L294.414 179.091H295.977L299.727 187.727ZM295.437 179.091V190H293.761V179.091H295.437ZM304.016 190V179.091H305.692V190H304.016ZM314.727 187.727L318.533 179.091H320.124L315.408 190H314.045L309.414 179.091H310.977L314.727 187.727ZM310.437 179.091V190H308.761V179.091H310.437ZM319.016 190V179.091H320.692V190H319.016ZM325.437 187.528L330.692 179.091H332.624V190H330.948V181.562L325.721 190H323.761V179.091H325.437V187.528ZM334.21 180.653V179.091H343.074V180.653H339.494V190H337.818V180.653H334.21ZM351.967 190H350.121L355.462 175.455H357.28L362.621 190H360.774L356.428 177.756H356.314L351.967 190ZM352.649 184.318H360.092V185.881H352.649V184.318ZM370.909 181.946V183.509H364.545V181.946H370.909ZM373.146 190V188.722L377.947 183.466C378.511 182.85 378.975 182.315 379.339 181.861C379.704 181.402 379.974 180.971 380.149 180.568C380.329 180.161 380.419 179.735 380.419 179.29C380.419 178.778 380.296 178.336 380.05 177.962C379.808 177.588 379.477 177.299 379.055 177.095C378.634 176.892 378.161 176.79 377.635 176.79C377.076 176.79 376.589 176.906 376.172 177.138C375.76 177.365 375.44 177.685 375.213 178.097C374.991 178.509 374.879 178.991 374.879 179.545H373.203C373.203 178.693 373.4 177.945 373.793 177.301C374.186 176.657 374.721 176.155 375.398 175.795C376.08 175.436 376.844 175.256 377.692 175.256C378.544 175.256 379.299 175.436 379.957 175.795C380.616 176.155 381.132 176.641 381.506 177.251C381.88 177.862 382.067 178.542 382.067 179.29C382.067 179.825 381.97 180.348 381.776 180.859C381.586 181.366 381.255 181.932 380.781 182.557C380.312 183.177 379.661 183.935 378.828 184.83L375.561 188.324V188.438H382.322V190H373.146Z" fill="black"/>
<path d="M242.707 183.707C243.098 183.317 243.098 182.683 242.707 182.293L236.343 175.929C235.953 175.538 235.319 175.538 234.929 175.929C234.538 176.319 234.538 176.953 234.929 177.343L240.586 183L234.929 188.657C234.538 189.047 234.538 189.681 234.929 190.071C235.319 190.462 235.953 190.462 236.343 190.071L242.707 183.707ZM199 183V184H201.15V183V182H199V183ZM205.45 183V184H209.75V183V182H205.45V183ZM214.05 183V184H218.35V183V182H214.05V183ZM222.65 183V184H226.95V183V182H222.65V183ZM231.25 183V184H235.55V183V182H231.25V183ZM239.85 183V184H242V183V182H239.85V183ZM242.707 183.707C243.098 183.317 243.098 182.683 242.707 182.293L236.343 175.929C235.953 175.538 235.319 175.538 234.929 175.929C234.538 176.319 234.538 176.953 234.929 177.343L240.586 183L234.929 188.657C234.538 189.047 234.538 189.681 234.929 190.071C235.319 190.462 235.953 190.462 236.343 190.071L242.707 183.707ZM199 183V184H201.15V183V182H199V183ZM205.45 183V184H209.75V183V182H205.45V183ZM214.05 183V184H218.35V183V182H214.05V183ZM222.65 183V184H226.95V183V182H222.65V183ZM231.25 183V184H235.55V183V182H231.25V183ZM239.85 183V184H242V183V182H239.85V183Z" fill="black"/>
<rect x="10.5" y="30.5" width="417" height="317" stroke="black" stroke-dasharray="2 2"/>
<path d="M24.4205 340.199C23.483 340.199 22.6473 340.038 21.9134 339.716C21.1842 339.394 20.6042 338.946 20.1733 338.374C19.7472 337.796 19.5152 337.126 19.4773 336.364H21.267C21.3049 336.832 21.4659 337.237 21.75 337.578C22.0341 337.914 22.4058 338.175 22.8651 338.359C23.3243 338.544 23.8333 338.636 24.392 338.636C25.017 338.636 25.571 338.527 26.054 338.31C26.5369 338.092 26.9157 337.789 27.1903 337.401C27.465 337.012 27.6023 336.562 27.6023 336.051C27.6023 335.516 27.4697 335.045 27.2045 334.638C26.9394 334.226 26.5511 333.904 26.0398 333.672C25.5284 333.44 24.9034 333.324 24.1648 333.324H23V331.761H24.1648C24.7424 331.761 25.2491 331.657 25.6847 331.449C26.125 331.241 26.4683 330.947 26.7145 330.568C26.9654 330.189 27.0909 329.744 27.0909 329.233C27.0909 328.741 26.982 328.312 26.7642 327.947C26.5464 327.583 26.2386 327.299 25.8409 327.095C25.4479 326.892 24.9839 326.79 24.4489 326.79C23.947 326.79 23.4735 326.882 23.0284 327.067C22.5881 327.247 22.2282 327.509 21.9489 327.855C21.6695 328.196 21.518 328.608 21.4943 329.091H19.7898C19.8182 328.329 20.0478 327.661 20.4787 327.088C20.9096 326.51 21.473 326.061 22.169 325.739C22.8698 325.417 23.6392 325.256 24.4773 325.256C25.3769 325.256 26.1487 325.438 26.7926 325.803C27.4366 326.162 27.9313 326.638 28.277 327.23C28.6226 327.822 28.7955 328.461 28.7955 329.148C28.7955 329.967 28.58 330.665 28.1491 331.243C27.723 331.821 27.143 332.221 26.4091 332.443V332.557C27.3277 332.708 28.045 333.099 28.5611 333.729C29.0772 334.354 29.3352 335.128 29.3352 336.051C29.3352 336.842 29.1198 337.552 28.6889 338.182C28.2628 338.807 27.6804 339.299 26.9418 339.659C26.2031 340.019 25.3627 340.199 24.4205 340.199Z" fill="black"/>
</svg>
