<svg width="790" height="301" viewBox="0 0 790 301" fill="none" xmlns="http://www.w3.org/2000/svg">
<rect x="37.5" y="147.5" width="166" height="71" rx="19.5" fill="#76D1FE" stroke="#897F7F"/>
<path d="M66.5341 190V179.091H68.2102V183.835H69.3182L73.2386 179.091H75.3977L70.9943 184.347L75.4545 190H73.2955L69.7159 185.398H68.2102V190H66.5341ZM81.2589 190.227C80.274 190.227 79.4099 189.993 78.6665 189.524C77.9279 189.055 77.3503 188.4 76.9336 187.557C76.5217 186.714 76.3157 185.729 76.3157 184.602C76.3157 183.466 76.5217 182.474 76.9336 181.626C77.3503 180.779 77.9279 180.121 78.6665 179.652C79.4099 179.183 80.274 178.949 81.2589 178.949C82.2437 178.949 83.1055 179.183 83.8441 179.652C84.5875 180.121 85.1651 180.779 85.5771 181.626C85.9937 182.474 86.2021 183.466 86.2021 184.602C86.2021 185.729 85.9937 186.714 85.5771 187.557C85.1651 188.4 84.5875 189.055 83.8441 189.524C83.1055 189.993 82.2437 190.227 81.2589 190.227ZM81.2589 188.722C82.007 188.722 82.6225 188.53 83.1055 188.146C83.5884 187.763 83.9459 187.259 84.1779 186.634C84.4099 186.009 84.5259 185.331 84.5259 184.602C84.5259 183.873 84.4099 183.194 84.1779 182.564C83.9459 181.934 83.5884 181.425 83.1055 181.037C82.6225 180.649 82.007 180.455 81.2589 180.455C80.5108 180.455 79.8952 180.649 79.4123 181.037C78.9293 181.425 78.5719 181.934 78.3398 182.564C78.1078 183.194 77.9918 183.873 77.9918 184.602C77.9918 185.331 78.1078 186.009 78.3398 186.634C78.5719 187.259 78.9293 187.763 79.4123 188.146C79.8952 188.53 80.5108 188.722 81.2589 188.722ZM94.7266 187.727L98.5334 179.091H100.124L95.4084 190H94.0447L89.4141 179.091H90.9766L94.7266 187.727ZM90.4368 179.091V190H88.7607V179.091H90.4368ZM99.0163 190V179.091H100.692V190H99.0163ZM109.727 187.727L113.533 179.091H115.124L110.408 190H109.045L104.414 179.091H105.977L109.727 187.727ZM105.437 179.091V190H103.761V179.091H105.437ZM114.016 190V179.091H115.692V190H114.016ZM120.437 187.528L125.692 179.091H127.624V190H125.948V181.562L120.721 190H118.761V179.091H120.437V187.528ZM129.21 180.653V179.091H138.074V180.653H134.494V190H132.818V180.653H129.21ZM146.967 190H145.121L150.462 175.455H152.28L157.621 190H155.774L151.428 177.756H151.314L146.967 190ZM147.649 184.318H155.092V185.881H147.649V184.318ZM165.909 181.946V183.509H159.545V181.946H165.909ZM173.944 175.455V190H172.182V177.301H172.097L168.546 179.659V177.869L172.182 175.455H173.944Z" fill="black"/>
<rect x="72.5" y="59.5" width="96" height="56" fill="#76D1FE" stroke="#FF0000" stroke-width="3"/>
<path d="M111.716 103H108.023L118.705 73.9091H122.341L133.023 103H129.33L120.636 78.5114H120.409L111.716 103ZM113.08 91.6364H127.966V94.7614H113.08V91.6364Z" fill="black"/>
<path d="M121 147L129.66 132H112.34L121 147ZM121 117H119.5V133.5H121H122.5V117H121Z" fill="#FF0000"/>
<rect x="604.5" y="59.5" width="96" height="56" fill="#76D1FE" stroke="#FF0000" stroke-width="3"/>
<path d="M643.716 103H640.023L650.705 73.9091H654.341L665.023 103H661.33L652.636 78.5114H652.409L643.716 103ZM645.08 91.6364H659.966V94.7614H645.08V91.6364Z" fill="black"/>
<path d="M653 147L661.66 132H644.34L653 147ZM653 117H651.5V133.5H653H654.5V117H653Z" fill="#FF0000"/>
<rect x="358.5" y="147.5" width="166" height="71" rx="19.5" fill="#76D1FE" stroke="#897F7F"/>
<path d="M387.534 190V179.091H389.21V183.835H390.318L394.239 179.091H396.398L391.994 184.347L396.455 190H394.295L390.716 185.398H389.21V190H387.534ZM402.259 190.227C401.274 190.227 400.41 189.993 399.667 189.524C398.928 189.055 398.35 188.4 397.934 187.557C397.522 186.714 397.316 185.729 397.316 184.602C397.316 183.466 397.522 182.474 397.934 181.626C398.35 180.779 398.928 180.121 399.667 179.652C400.41 179.183 401.274 178.949 402.259 178.949C403.244 178.949 404.105 179.183 404.844 179.652C405.587 180.121 406.165 180.779 406.577 181.626C406.994 182.474 407.202 183.466 407.202 184.602C407.202 185.729 406.994 186.714 406.577 187.557C406.165 188.4 405.587 189.055 404.844 189.524C404.105 189.993 403.244 190.227 402.259 190.227ZM402.259 188.722C403.007 188.722 403.623 188.53 404.105 188.146C404.588 187.763 404.946 187.259 405.178 186.634C405.41 186.009 405.526 185.331 405.526 184.602C405.526 183.873 405.41 183.194 405.178 182.564C404.946 181.934 404.588 181.425 404.105 181.037C403.623 180.649 403.007 180.455 402.259 180.455C401.511 180.455 400.895 180.649 400.412 181.037C399.929 181.425 399.572 181.934 399.34 182.564C399.108 183.194 398.992 183.873 398.992 184.602C398.992 185.331 399.108 186.009 399.34 186.634C399.572 187.259 399.929 187.763 400.412 188.146C400.895 188.53 401.511 188.722 402.259 188.722ZM415.727 187.727L419.533 179.091H421.124L416.408 190H415.045L410.414 179.091H411.977L415.727 187.727ZM411.437 179.091V190H409.761V179.091H411.437ZM420.016 190V179.091H421.692V190H420.016ZM430.727 187.727L434.533 179.091H436.124L431.408 190H430.045L425.414 179.091H426.977L430.727 187.727ZM426.437 179.091V190H424.761V179.091H426.437ZM435.016 190V179.091H436.692V190H435.016ZM441.437 187.528L446.692 179.091H448.624V190H446.948V181.562L441.721 190H439.761V179.091H441.437V187.528ZM450.21 180.653V179.091H459.074V180.653H455.494V190H453.818V180.653H450.21ZM467.967 190H466.121L471.462 175.455H473.28L478.621 190H476.774L472.428 177.756H472.314L467.967 190ZM468.649 184.318H476.092V185.881H468.649V184.318ZM486.909 181.946V183.509H480.545V181.946H486.909ZM494.944 175.455V190H493.182V177.301H493.097L489.546 179.659V177.869L493.182 175.455H494.944Z" fill="black"/>
<rect x="568.5" y="147.5" width="166" height="71" rx="19.5" fill="#76D1FE" stroke="#897F7F"/>
<path d="M597.534 190V179.091H599.21V183.835H600.318L604.239 179.091H606.398L601.994 184.347L606.455 190H604.295L600.716 185.398H599.21V190H597.534ZM612.259 190.227C611.274 190.227 610.41 189.993 609.667 189.524C608.928 189.055 608.35 188.4 607.934 187.557C607.522 186.714 607.316 185.729 607.316 184.602C607.316 183.466 607.522 182.474 607.934 181.626C608.35 180.779 608.928 180.121 609.667 179.652C610.41 179.183 611.274 178.949 612.259 178.949C613.244 178.949 614.105 179.183 614.844 179.652C615.587 180.121 616.165 180.779 616.577 181.626C616.994 182.474 617.202 183.466 617.202 184.602C617.202 185.729 616.994 186.714 616.577 187.557C616.165 188.4 615.587 189.055 614.844 189.524C614.105 189.993 613.244 190.227 612.259 190.227ZM612.259 188.722C613.007 188.722 613.623 188.53 614.105 188.146C614.588 187.763 614.946 187.259 615.178 186.634C615.41 186.009 615.526 185.331 615.526 184.602C615.526 183.873 615.41 183.194 615.178 182.564C614.946 181.934 614.588 181.425 614.105 181.037C613.623 180.649 613.007 180.455 612.259 180.455C611.511 180.455 610.895 180.649 610.412 181.037C609.929 181.425 609.572 181.934 609.34 182.564C609.108 183.194 608.992 183.873 608.992 184.602C608.992 185.331 609.108 186.009 609.34 186.634C609.572 187.259 609.929 187.763 610.412 188.146C610.895 188.53 611.511 188.722 612.259 188.722ZM625.727 187.727L629.533 179.091H631.124L626.408 190H625.045L620.414 179.091H621.977L625.727 187.727ZM621.437 179.091V190H619.761V179.091H621.437ZM630.016 190V179.091H631.692V190H630.016ZM640.727 187.727L644.533 179.091H646.124L641.408 190H640.045L635.414 179.091H636.977L640.727 187.727ZM636.437 179.091V190H634.761V179.091H636.437ZM645.016 190V179.091H646.692V190H645.016ZM651.437 187.528L656.692 179.091H658.624V190H656.948V181.562L651.721 190H649.761V179.091H651.437V187.528ZM660.21 180.653V179.091H669.074V180.653H665.494V190H663.818V180.653H660.21ZM677.967 190H676.121L681.462 175.455H683.28L688.621 190H686.774L682.428 177.756H682.314L677.967 190ZM678.649 184.318H686.092V185.881H678.649V184.318ZM696.909 181.946V183.509H690.545V181.946H696.909ZM699.146 190V188.722L703.947 183.466C704.511 182.85 704.975 182.315 705.339 181.861C705.704 181.402 705.974 180.971 706.149 180.568C706.329 180.161 706.419 179.735 706.419 179.29C706.419 178.778 706.296 178.336 706.05 177.962C705.808 177.588 705.477 177.299 705.055 177.095C704.634 176.892 704.161 176.79 703.635 176.79C703.076 176.79 702.589 176.906 702.172 177.138C701.76 177.365 701.44 177.685 701.213 178.097C700.991 178.509 700.879 178.991 700.879 179.545H699.203C699.203 178.693 699.4 177.945 699.793 177.301C700.186 176.657 700.721 176.155 701.398 175.795C702.08 175.436 702.844 175.256 703.692 175.256C704.544 175.256 705.299 175.436 705.957 175.795C706.616 176.155 707.132 176.641 707.506 177.251C707.88 177.862 708.067 178.542 708.067 179.29C708.067 179.825 707.97 180.348 707.776 180.859C707.586 181.366 707.255 181.932 706.781 182.557C706.312 183.177 705.661 183.935 704.828 184.83L701.561 188.324V188.438H708.322V190H699.146Z" fill="black"/>
<path d="M568.707 183.707C569.098 183.317 569.098 182.683 568.707 182.293L562.343 175.929C561.953 175.538 561.319 175.538 560.929 175.929C560.538 176.319 560.538 176.953 560.929 177.343L566.586 183L560.929 188.657C560.538 189.047 560.538 189.681 560.929 190.071C561.319 190.462 561.953 190.462 562.343 190.071L568.707 183.707ZM525 183V184H527.15V183V182H525V183ZM531.45 183V184H535.75V183V182H531.45V183ZM540.05 183V184H544.35V183V182H540.05V183ZM548.65 183V184H552.95V183V182H548.65V183ZM557.25 183V184H561.55V183V182H557.25V183ZM565.85 183V184H568V183V182H565.85V183ZM568.707 183.707C569.098 183.317 569.098 182.683 568.707 182.293L562.343 175.929C561.953 175.538 561.319 175.538 560.929 175.929C560.538 176.319 560.538 176.953 560.929 177.343L566.586 183L560.929 188.657C560.538 189.047 560.538 189.681 560.929 190.071C561.319 190.462 561.953 190.462 562.343 190.071L568.707 183.707ZM525 183V184H527.15V183V182H525V183ZM531.45 183V184H535.75V183V182H531.45V183ZM540.05 183V184H544.35V183V182H540.05V183ZM548.65 183V184H552.95V183V182H548.65V183ZM557.25 183V184H561.55V183V182H557.25V183ZM565.85 183V184H568V183V182H565.85V183Z" fill="black"/>
<rect x="10.5" y="30.5" width="249" height="247" stroke="black" stroke-dasharray="2 2"/>
<rect x="336.5" y="30.5" width="417" height="247" stroke="black" stroke-dasharray="2 2"/>
<path d="M250.619 255.455V270H248.858V257.301H248.773L245.222 259.659V257.869L248.858 255.455H250.619Z" fill="black"/>
<path d="M345.506 270V268.722L350.307 263.466C350.87 262.85 351.334 262.315 351.699 261.861C352.063 261.402 352.333 260.971 352.509 260.568C352.688 260.161 352.778 259.735 352.778 259.29C352.778 258.778 352.655 258.336 352.409 257.962C352.168 257.588 351.836 257.299 351.415 257.095C350.993 256.892 350.52 256.79 349.994 256.79C349.436 256.79 348.948 256.906 348.531 257.138C348.119 257.365 347.8 257.685 347.572 258.097C347.35 258.509 347.239 258.991 347.239 259.545H345.562C345.562 258.693 345.759 257.945 346.152 257.301C346.545 256.657 347.08 256.155 347.757 255.795C348.439 255.436 349.204 255.256 350.051 255.256C350.903 255.256 351.659 255.436 352.317 255.795C352.975 256.155 353.491 256.641 353.865 257.251C354.239 257.862 354.426 258.542 354.426 259.29C354.426 259.825 354.329 260.348 354.135 260.859C353.946 261.366 353.614 261.932 353.141 262.557C352.672 263.177 352.021 263.935 351.188 264.83L347.92 268.324V268.438H354.682V270H345.506Z" fill="black"/>
</svg>
