<svg width="224" height="207" viewBox="0 0 224 207" fill="none" xmlns="http://www.w3.org/2000/svg">
<g clip-path="url(#clip0_599_3)">
<circle cx="111.5" cy="70" r="62.5" stroke="#3F3F3F" stroke-width="15"/>
<path d="M163.644 24.0625L178.458 54.0225C151.323 42.6736 130.251 37.21 109.604 37.3301C88.9969 37.4499 68.8631 43.1314 43.5996 53.9824L59.3496 24.0615L110.503 6.52637L163.644 24.0625Z" fill="#3F3F3F" stroke="#3F3F3F"/>
<path d="M106.5 50.418C97.9712 50.3127 91.2846 50.8272 84.6631 52.292C78.1016 53.7435 71.6243 56.1244 63.5 59.7314V53.835C79.4389 47.244 88.9735 45.1255 106.5 44.3701V50.418Z" fill="#3F3F3F" stroke="#3F3F3F"/>
<path d="M64.2466 59.5C63.5 75 65 102 93.5 114.5" stroke="#3F3F3F" stroke-width="2"/>
<path d="M70.5381 133.764C81.9162 130.775 94.5468 129.773 111.948 129.999L111.98 130H112.014C129.372 129.943 141.937 130.974 153.113 133.936C164.134 136.856 174.028 141.714 185.951 149.609C195.444 159.098 201.919 166.977 207.028 175.726C211.523 183.421 215.038 191.923 218.575 203H179.485C177.795 197.834 175.588 193.934 172.82 190.659C169.618 186.87 165.795 184.087 161.828 181.247L155.5 176.718V203H67.5V176.763L61.1875 181.235C56.672 184.435 52.8448 187.495 49.8037 191.39C47.2513 194.658 45.3653 198.368 43.9492 203H5.3291C8.74968 191.636 12.1953 183.035 16.5537 175.336C21.4729 166.646 27.6517 158.931 36.5566 149.614C49.0833 141.653 59.3161 136.711 70.5381 133.764Z" fill="#3F3F3F" stroke="#3F3F3F" stroke-width="8"/>
</g>
<defs>
<clipPath id="clip0_599_3">
<rect width="224" height="207" fill="white"/>
</clipPath>
</defs>
</svg>
